<svg xmlns="http://www.w3.org/2000/svg" viewBox="0 -0.5 512 288" shape-rendering="crispEdges">
<metadata>Made with Pixels to Svg https://codepen.io/shshaw/pen/XbxvNj</metadata>
<path stroke="#120445" d="M0 0h512M0 1h512M0 2h512M0 3h512M0 4h512M0 5h512M0 6h512M0 7h512M0 8h52M484 8h28M0 9h52M484 9h28M0 10h52M484 10h28M0 11h52M484 11h28M0 12h52M484 12h28M0 13h52M484 13h28M0 14h52M484 14h28M0 15h52M484 15h28M0 16h44M492 16h20M0 17h44M492 17h20M0 18h44M492 18h20M0 19h44M492 19h20M0 20h44M492 20h20M0 21h44M492 21h20M0 22h44M492 22h20M0 23h44M492 23h20M0 24h36M500 24h12M0 25h36M500 25h12M0 26h36M500 26h12M0 27h36M500 27h12M0 28h36M500 28h12M0 29h36M500 29h12M0 30h36M500 30h12M0 31h36M500 31h12M0 32h28M508 32h4M0 33h28M508 33h4M0 34h28M508 34h4M0 35h28M508 35h4M0 36h28M508 36h4M0 37h28M508 37h4M0 38h28M508 38h4M0 39h28M508 39h4M0 40h20M0 41h20M0 42h20M0 43h20M0 44h20M0 45h20M0 46h20M0 47h20M0 48h12M0 49h12M0 50h12M0 51h12M0 52h12M0 53h12M0 54h12M0 55h12M0 232h20M0 233h20M0 234h20M0 235h20M0 236h20M0 237h20M0 238h20M0 239h20M0 240h28M508 240h4M0 241h28M508 241h4M0 242h28M508 242h4M0 243h28M508 243h4M0 244h28M508 244h4M0 245h28M508 245h4M0 246h28M508 246h4M0 247h28M508 247h4M0 248h36M500 248h12M0 249h36M500 249h12M0 250h36M500 250h12M0 251h36M500 251h12M0 252h36M500 252h12M0 253h36M500 253h12M0 254h36M500 254h12M0 255h36M500 255h12M0 256h44M492 256h20M0 257h44M492 257h20M0 258h44M492 258h20M0 259h44M492 259h20M0 260h44M492 260h20M0 261h44M492 261h20M0 262h44M492 262h20M0 263h44M492 263h20M0 264h52M484 264h28M0 265h52M484 265h28M0 266h52M484 266h28M0 267h52M484 267h28M0 268h52M484 268h28M0 269h52M484 269h28M0 270h52M484 270h28M0 271h52M484 271h28M0 272h60M484 272h28M0 273h60M484 273h28M0 274h60M484 274h28M0 275h60M484 275h28M0 276h60M484 276h28M0 277h60M484 277h28M0 278h60M484 278h28M0 279h60M484 279h28M0 280h428M452 280h60M0 281h428M452 281h60M0 282h428M452 282h60M0 283h428M452 283h60M0 284h428M452 284h60M0 285h428M452 285h60M0 286h428M452 286h60M0 287h428M452 287h60" />
<path stroke="#1b0442" d="M52 8h432M52 9h432M52 10h432M52 11h432M52 12h432M52 13h432M52 14h432M52 15h432M44 16h16M476 16h16M44 17h16M476 17h16M44 18h16M476 18h16M44 19h16M476 19h16M44 20h16M476 20h16M44 21h16M476 21h16M44 22h16M476 22h16M44 23h16M476 23h16M36 24h16M484 24h16M36 25h16M484 25h16M36 26h16M484 26h16M36 27h16M484 27h16M36 28h16M484 28h16M36 29h16M484 29h16M36 30h16M484 30h16M36 31h16M484 31h16M28 32h16M492 32h16M28 33h16M492 33h16M28 34h16M492 34h16M28 35h16M492 35h16M28 36h16M492 36h16M28 37h16M492 37h16M28 38h16M492 38h16M28 39h16M492 39h16M20 40h16M500 40h12M20 41h16M500 41h12M20 42h16M500 42h12M20 43h16M500 43h12M20 44h16M500 44h12M20 45h16M500 45h12M20 46h16M500 46h12M20 47h16M500 47h12M12 48h16M508 48h4M12 49h16M508 49h4M12 50h16M508 50h4M12 51h16M508 51h4M12 52h16M508 52h4M12 53h16M508 53h4M12 54h16M508 54h4M12 55h16M508 55h4M0 56h20M0 57h20M0 58h20M0 59h20M0 60h20M0 61h20M0 62h20M0 63h20M0 64h20M0 65h20M0 66h20M0 67h20M0 68h20M0 69h20M0 70h20M0 71h20M0 72h20M0 73h20M0 74h20M0 75h20M0 76h20M0 77h20M0 78h20M0 79h20M0 80h20M0 81h20M0 82h20M0 83h20M0 84h20M0 85h20M0 86h20M0 87h20M0 88h20M0 89h20M0 90h20M0 91h20M0 92h20M0 93h20M0 94h20M0 95h20M0 96h20M0 97h20M0 98h20M0 99h20M0 100h20M0 101h20M0 102h20M0 103h20M0 104h20M0 105h20M0 106h20M0 107h20M0 108h20M0 109h20M0 110h20M0 111h20M0 112h20M0 113h20M0 114h20M0 115h20M0 116h20M0 117h20M0 118h20M0 119h20M0 120h20M0 121h20M0 122h20M0 123h20M0 124h20M0 125h20M0 126h20M0 127h20M0 128h20M0 129h20M0 130h20M0 131h20M0 132h20M0 133h20M0 134h20M0 135h20M0 136h20M0 137h20M0 138h20M0 139h20M0 140h20M0 141h20M0 142h20M0 143h20M0 144h20M0 145h20M0 146h20M0 147h20M0 148h20M0 149h20M0 150h20M0 151h20M0 152h20M0 153h20M0 154h20M0 155h20M0 156h20M0 157h20M0 158h20M0 159h20M0 160h20M0 161h20M0 162h20M0 163h20M0 164h20M0 165h20M0 166h20M0 167h20M0 168h20M0 169h20M0 170h20M0 171h20M0 172h20M0 173h20M0 174h20M0 175h20M0 176h20M0 177h20M0 178h20M0 179h20M0 180h20M0 181h20M0 182h20M0 183h20M0 184h20M0 185h20M0 186h20M0 187h20M0 188h20M0 189h20M0 190h20M0 191h20M0 192h20M0 193h20M0 194h20M0 195h20M0 196h20M0 197h20M0 198h20M0 199h20M0 200h20M0 201h20M0 202h20M0 203h20M0 204h20M0 205h20M0 206h20M0 207h20M0 208h20M0 209h20M0 210h20M0 211h20M0 212h20M0 213h20M0 214h20M0 215h20M0 216h20M0 217h20M0 218h20M0 219h20M0 220h20M0 221h20M0 222h20M0 223h20M0 224h28M508 224h4M0 225h28M508 225h4M0 226h28M508 226h4M0 227h28M508 227h4M0 228h28M508 228h4M0 229h28M508 229h4M0 230h28M508 230h4M0 231h28M508 231h4M20 232h16M500 232h12M20 233h16M500 233h12M20 234h16M500 234h12M20 235h16M500 235h12M20 236h16M500 236h12M20 237h16M500 237h12M20 238h16M500 238h12M20 239h16M500 239h12M28 240h16M492 240h16M28 241h16M492 241h16M28 242h16M492 242h16M28 243h16M492 243h16M28 244h16M492 244h16M28 245h16M492 245h16M28 246h16M492 246h16M28 247h16M492 247h16M36 248h16M484 248h16M36 249h16M484 249h16M36 250h16M484 250h16M36 251h16M484 251h16M36 252h16M484 252h16M36 253h16M484 253h16M36 254h16M484 254h16M36 255h16M484 255h16M44 256h16M476 256h16M44 257h16M476 257h16M44 258h16M476 258h16M44 259h16M476 259h16M44 260h16M476 260h16M44 261h16M476 261h16M44 262h16M476 262h16M44 263h16M476 263h16M52 264h16M468 264h16M52 265h16M468 265h16M52 266h16M468 266h16M52 267h16M468 267h16M52 268h16M468 268h16M52 269h16M468 269h16M52 270h16M468 270h16M52 271h16M468 271h16M60 272h424M60 273h424M60 274h424M60 275h424M60 276h424M60 277h424M60 278h424M60 279h424M428 280h24M428 281h24M428 282h24M428 283h24M428 284h24M428 285h24M428 286h24M428 287h24" />
<path stroke="#250540" d="M60 16h416M60 17h416M60 18h416M60 19h416M60 20h416M60 21h416M60 22h416M60 23h416M52 24h16M468 24h16M52 25h16M468 25h16M52 26h16M468 26h16M52 27h16M468 27h16M52 28h16M468 28h16M52 29h16M468 29h16M52 30h16M468 30h16M52 31h16M468 31h16M44 32h16M476 32h16M44 33h16M476 33h16M44 34h16M476 34h16M44 35h16M476 35h16M44 36h16M476 36h16M44 37h16M476 37h16M44 38h16M476 38h16M44 39h16M476 39h16M36 40h16M484 40h16M36 41h16M484 41h16M36 42h16M484 42h16M36 43h16M484 43h16M36 44h16M484 44h16M36 45h16M484 45h16M36 46h16M484 46h16M36 47h16M484 47h16M28 48h16M492 48h16M28 49h16M492 49h16M28 50h16M492 50h16M28 51h16M492 51h16M28 52h16M492 52h16M28 53h16M492 53h16M28 54h16M492 54h16M28 55h16M492 55h16M20 56h16M500 56h12M20 57h16M500 57h12M20 58h16M500 58h12M20 59h16M500 59h12M20 60h16M500 60h12M20 61h16M500 61h12M20 62h16M500 62h12M20 63h16M500 63h12M20 64h16M500 64h12M20 65h16M500 65h12M20 66h16M500 66h12M20 67h16M500 67h12M20 68h16M500 68h12M20 69h16M500 69h12M20 70h16M500 70h12M20 71h16M500 71h12M20 72h16M500 72h12M20 73h16M500 73h12M20 74h16M500 74h12M20 75h16M500 75h12M20 76h16M500 76h12M20 77h16M500 77h12M20 78h16M500 78h12M20 79h16M500 79h12M20 80h16M500 80h12M20 81h16M500 81h12M20 82h16M500 82h12M20 83h16M500 83h12M20 84h16M500 84h12M20 85h16M500 85h12M20 86h16M500 86h12M20 87h16M500 87h12M20 88h16M500 88h12M20 89h16M500 89h12M20 90h16M500 90h12M20 91h16M500 91h12M20 92h16M500 92h12M20 93h16M500 93h12M20 94h16M500 94h12M20 95h16M500 95h12M20 96h16M500 96h12M20 97h16M500 97h12M20 98h16M500 98h12M20 99h16M500 99h12M20 100h16M500 100h12M20 101h16M500 101h12M20 102h16M500 102h12M20 103h16M500 103h12M20 104h16M500 104h12M20 105h16M500 105h12M20 106h16M500 106h12M20 107h16M500 107h12M20 108h16M500 108h12M20 109h16M500 109h12M20 110h16M500 110h12M20 111h16M500 111h12M20 112h16M500 112h12M20 113h16M500 113h12M20 114h16M500 114h12M20 115h16M500 115h12M20 116h16M500 116h12M20 117h16M500 117h12M20 118h16M500 118h12M20 119h16M500 119h12M20 120h16M500 120h12M20 121h16M500 121h12M20 122h16M500 122h12M20 123h16M500 123h12M20 124h16M500 124h12M20 125h16M500 125h12M20 126h16M500 126h12M20 127h16M500 127h12M20 128h16M500 128h12M20 129h16M500 129h12M20 130h16M500 130h12M20 131h16M500 131h12M20 132h16M500 132h12M20 133h16M500 133h12M20 134h16M500 134h12M20 135h16M500 135h12M20 136h16M500 136h12M20 137h16M500 137h12M20 138h16M500 138h12M20 139h16M500 139h12M20 140h16M500 140h12M20 141h16M500 141h12M20 142h16M500 142h12M20 143h16M500 143h12M20 144h16M500 144h12M20 145h16M500 145h12M20 146h16M500 146h12M20 147h16M500 147h12M20 148h16M500 148h12M20 149h16M500 149h12M20 150h16M500 150h12M20 151h16M500 151h12M20 152h16M500 152h12M20 153h16M500 153h12M20 154h16M500 154h12M20 155h16M500 155h12M20 156h16M500 156h12M20 157h16M500 157h12M20 158h16M500 158h12M20 159h16M500 159h12M20 160h16M500 160h12M20 161h16M500 161h12M20 162h16M500 162h12M20 163h16M500 163h12M20 164h16M500 164h12M20 165h16M500 165h12M20 166h16M500 166h12M20 167h16M500 167h12M20 168h16M500 168h12M20 169h16M500 169h12M20 170h16M500 170h12M20 171h16M500 171h12M20 172h16M500 172h12M20 173h16M500 173h12M20 174h16M500 174h12M20 175h16M500 175h12M20 176h16M500 176h12M20 177h16M500 177h12M20 178h16M500 178h12M20 179h16M500 179h12M20 180h16M500 180h12M20 181h16M500 181h12M20 182h16M500 182h12M20 183h16M500 183h12M20 184h16M500 184h12M20 185h16M500 185h12M20 186h16M500 186h12M20 187h16M500 187h12M20 188h16M500 188h12M20 189h16M500 189h12M20 190h16M500 190h12M20 191h16M500 191h12M20 192h16M500 192h12M20 193h16M500 193h12M20 194h16M500 194h12M20 195h16M500 195h12M20 196h16M500 196h12M20 197h16M500 197h12M20 198h16M500 198h12M20 199h16M500 199h12M20 200h16M500 200h12M20 201h16M500 201h12M20 202h16M500 202h12M20 203h16M500 203h12M20 204h16M500 204h12M20 205h16M500 205h12M20 206h16M500 206h12M20 207h16M500 207h12M20 208h16M500 208h12M20 209h16M500 209h12M20 210h16M500 210h12M20 211h16M500 211h12M20 212h16M500 212h12M20 213h16M500 213h12M20 214h16M500 214h12M20 215h16M500 215h12M20 216h16M500 216h12M20 217h16M500 217h12M20 218h16M500 218h12M20 219h16M500 219h12M20 220h16M500 220h12M20 221h16M500 221h12M20 222h16M500 222h12M20 223h16M500 223h12M28 224h16M492 224h16M28 225h16M492 225h16M28 226h16M492 226h16M28 227h16M492 227h16M28 228h16M492 228h16M28 229h16M492 229h16M28 230h16M492 230h16M28 231h16M492 231h16M36 232h16M484 232h16M36 233h16M484 233h16M36 234h16M484 234h16M36 235h16M484 235h16M36 236h16M484 236h16M36 237h16M484 237h16M36 238h16M484 238h16M36 239h16M484 239h16M44 240h16M476 240h16M44 241h16M476 241h16M44 242h16M476 242h16M44 243h16M476 243h16M44 244h16M476 244h16M44 245h16M476 245h16M44 246h16M476 246h16M44 247h16M476 247h16M52 248h16M468 248h16M52 249h16M468 249h16M52 250h16M468 250h16M52 251h16M468 251h16M52 252h16M468 252h16M52 253h16M468 253h16M52 254h16M468 254h16M52 255h16M468 255h16M60 256h12M460 256h16M60 257h12M460 257h16M60 258h12M460 258h16M60 259h12M460 259h16M60 260h12M460 260h16M60 261h12M460 261h16M60 262h12M460 262h16M60 263h12M460 263h16M68 264h400M68 265h400M68 266h400M68 267h400M68 268h400M68 269h400M68 270h400M68 271h400" />
<path stroke="#2e053d" d="M68 24h400M68 25h400M68 26h400M68 27h400M68 28h400M68 29h400M68 30h400M68 31h400M60 32h24M452 32h24M60 33h24M452 33h24M60 34h24M452 34h24M60 35h24M452 35h24M60 36h24M452 36h24M60 37h24M452 37h24M60 38h24M452 38h24M60 39h24M452 39h24M52 40h20M460 40h24M52 41h20M460 41h24M52 42h20M460 42h24M52 43h20M460 43h24M52 44h20M460 44h24M52 45h20M460 45h24M52 46h20M460 46h24M52 47h20M460 47h24M44 48h24M468 48h24M44 49h24M468 49h24M44 50h24M468 50h24M44 51h24M468 51h24M44 52h24M468 52h24M44 53h24M468 53h24M44 54h24M468 54h24M44 55h24M468 55h24M36 56h24M476 56h24M36 57h24M476 57h24M36 58h24M476 58h24M36 59h24M476 59h24M36 60h24M476 60h24M36 61h24M476 61h24M36 62h24M476 62h24M36 63h24M476 63h24M36 64h24M476 64h24M36 65h24M476 65h24M36 66h24M476 66h24M36 67h24M476 67h24M36 68h24M476 68h24M36 69h24M476 69h24M36 70h24M476 70h24M36 71h24M476 71h24M36 72h24M476 72h24M36 73h24M476 73h24M36 74h24M476 74h24M36 75h24M476 75h24M36 76h24M476 76h24M36 77h24M476 77h24M36 78h24M476 78h24M36 79h24M476 79h24M36 80h24M476 80h24M36 81h24M476 81h24M36 82h24M476 82h24M36 83h24M476 83h24M36 84h24M476 84h24M36 85h24M476 85h24M36 86h24M476 86h24M36 87h24M476 87h24M36 88h24M476 88h24M36 89h24M476 89h24M36 90h24M476 90h24M36 91h24M476 91h24M36 92h24M476 92h24M36 93h24M476 93h24M36 94h24M476 94h24M36 95h24M476 95h24M36 96h24M476 96h24M36 97h24M476 97h24M36 98h24M476 98h24M36 99h24M476 99h24M36 100h24M476 100h24M36 101h24M476 101h24M36 102h24M476 102h24M36 103h24M476 103h24M36 104h24M476 104h24M36 105h24M476 105h24M36 106h24M476 106h24M36 107h24M476 107h24M36 108h24M476 108h24M36 109h24M476 109h24M36 110h24M476 110h24M36 111h24M476 111h24M36 112h24M476 112h24M36 113h24M476 113h24M36 114h24M476 114h24M36 115h24M476 115h24M36 116h24M476 116h24M36 117h24M476 117h24M36 118h24M476 118h24M36 119h24M476 119h24M36 120h24M476 120h24M36 121h24M476 121h24M36 122h24M476 122h24M36 123h24M476 123h24M36 124h24M476 124h24M36 125h24M476 125h24M36 126h24M476 126h24M36 127h24M476 127h24M36 128h24M476 128h24M36 129h24M476 129h24M36 130h24M476 130h24M36 131h24M476 131h24M36 132h24M476 132h24M36 133h24M476 133h24M36 134h24M476 134h24M36 135h24M476 135h24M36 136h24M476 136h24M36 137h24M476 137h24M36 138h24M476 138h24M36 139h24M476 139h24M36 140h24M476 140h24M36 141h24M476 141h24M36 142h24M476 142h24M36 143h24M476 143h24M36 144h24M476 144h24M36 145h24M476 145h24M36 146h24M476 146h24M36 147h24M476 147h24M36 148h24M476 148h24M36 149h24M476 149h24M36 150h24M476 150h24M36 151h24M476 151h24M36 152h24M476 152h24M36 153h24M476 153h24M36 154h24M476 154h24M36 155h24M476 155h24M36 156h24M476 156h24M36 157h24M476 157h24M36 158h24M476 158h24M36 159h24M476 159h24M36 160h24M476 160h24M36 161h24M476 161h24M36 162h24M476 162h24M36 163h24M476 163h24M36 164h24M476 164h24M36 165h24M476 165h24M36 166h24M476 166h24M36 167h24M476 167h24M36 168h24M476 168h24M36 169h24M476 169h24M36 170h24M476 170h24M36 171h24M476 171h24M36 172h24M476 172h24M36 173h24M476 173h24M36 174h24M476 174h24M36 175h24M476 175h24M36 176h24M476 176h24M36 177h24M476 177h24M36 178h24M476 178h24M36 179h24M476 179h24M36 180h24M476 180h24M36 181h24M476 181h24M36 182h24M476 182h24M36 183h24M476 183h24M36 184h24M476 184h24M36 185h24M476 185h24M36 186h24M476 186h24M36 187h24M476 187h24M36 188h24M476 188h24M36 189h24M476 189h24M36 190h24M476 190h24M36 191h24M476 191h24M36 192h24M476 192h24M36 193h24M476 193h24M36 194h24M476 194h24M36 195h24M476 195h24M36 196h24M476 196h24M36 197h24M476 197h24M36 198h24M476 198h24M36 199h24M476 199h24M36 200h24M476 200h24M36 201h24M476 201h24M36 202h24M476 202h24M36 203h24M476 203h24M36 204h24M476 204h24M36 205h24M476 205h24M36 206h24M476 206h24M36 207h24M476 207h24M36 208h24M476 208h24M36 209h24M476 209h24M36 210h24M476 210h24M36 211h24M476 211h24M36 212h24M476 212h24M36 213h24M476 213h24M36 214h24M476 214h24M36 215h24M476 215h24M36 216h24M476 216h24M36 217h24M476 217h24M36 218h24M476 218h24M36 219h24M476 219h24M36 220h24M476 220h24M36 221h24M476 221h24M36 222h24M476 222h24M36 223h24M476 223h24M44 224h16M476 224h16M44 225h16M476 225h16M44 226h16M476 226h16M44 227h16M476 227h16M44 228h16M476 228h16M44 229h16M476 229h16M44 230h16M476 230h16M44 231h16M476 231h16M52 232h16M468 232h16M52 233h16M468 233h16M52 234h16M468 234h16M52 235h16M468 235h16M52 236h16M468 236h16M52 237h16M468 237h16M52 238h16M468 238h16M52 239h16M468 239h16M60 240h24M460 240h16M60 241h24M460 241h16M60 242h24M460 242h16M60 243h24M460 243h16M60 244h24M460 244h16M60 245h24M460 245h16M60 246h24M460 246h16M60 247h24M460 247h16M68 248h24M452 248h16M68 249h24M452 249h16M68 250h24M452 250h16M68 251h24M452 251h16M68 252h24M452 252h16M68 253h24M452 253h16M68 254h24M452 254h16M68 255h24M452 255h16M72 256h388M72 257h388M72 258h388M72 259h388M72 260h388M72 261h388M72 262h388M72 263h388" />
<path stroke="#37053b" d="M84 32h368M84 33h368M84 34h368M84 35h368M84 36h368M84 37h368M84 38h368M84 39h368M72 40h20M444 40h16M72 41h20M444 41h16M72 42h20M444 42h16M72 43h20M444 43h16M72 44h20M444 44h16M72 45h20M444 45h16M72 46h20M444 46h16M72 47h20M444 47h16M68 48h16M452 48h16M68 49h16M452 49h16M68 50h16M452 50h16M68 51h16M452 51h16M68 52h16M452 52h16M68 53h16M452 53h16M68 54h16M452 54h16M68 55h16M452 55h16M60 56h12M460 56h16M60 57h12M460 57h16M60 58h12M460 58h16M60 59h12M460 59h16M60 60h12M460 60h16M60 61h12M460 61h16M60 62h12M460 62h16M60 63h12M460 63h16M60 64h12M460 64h16M60 65h12M460 65h16M60 66h12M460 66h16M60 67h12M460 67h16M60 68h12M460 68h16M60 69h12M460 69h16M60 70h12M460 70h16M60 71h12M460 71h16M60 72h12M460 72h16M60 73h12M460 73h16M60 74h12M460 74h16M60 75h12M460 75h16M60 76h12M460 76h16M60 77h12M460 77h16M60 78h12M460 78h16M60 79h12M460 79h16M60 80h12M460 80h16M60 81h12M460 81h16M60 82h12M460 82h16M60 83h12M460 83h16M60 84h12M460 84h16M60 85h12M460 85h16M60 86h12M460 86h16M60 87h12M460 87h16M60 88h12M460 88h16M60 89h12M460 89h16M60 90h12M460 90h16M60 91h12M460 91h16M60 92h12M460 92h16M60 93h12M460 93h16M60 94h12M460 94h16M60 95h12M460 95h16M60 96h12M460 96h16M60 97h12M460 97h16M60 98h12M460 98h16M60 99h12M460 99h16M60 100h12M460 100h16M60 101h12M460 101h16M60 102h12M460 102h16M60 103h12M460 103h16M60 104h12M460 104h16M60 105h12M460 105h16M60 106h12M460 106h16M60 107h12M460 107h16M60 108h12M460 108h16M60 109h12M460 109h16M60 110h12M460 110h16M60 111h12M460 111h16M60 112h12M460 112h16M60 113h12M460 113h16M60 114h12M460 114h16M60 115h12M460 115h16M60 116h12M460 116h16M60 117h12M460 117h16M60 118h12M460 118h16M60 119h12M460 119h16M60 120h12M460 120h16M60 121h12M460 121h16M60 122h12M460 122h16M60 123h12M460 123h16M60 124h12M460 124h16M60 125h12M460 125h16M60 126h12M460 126h16M60 127h12M460 127h16M60 128h12M460 128h16M60 129h12M460 129h16M60 130h12M460 130h16M60 131h12M460 131h16M60 132h12M460 132h16M60 133h12M460 133h16M60 134h12M460 134h16M60 135h12M460 135h16M60 136h12M460 136h16M60 137h12M460 137h16M60 138h12M460 138h16M60 139h12M460 139h16M60 140h12M460 140h16M60 141h12M460 141h16M60 142h12M460 142h16M60 143h12M460 143h16M60 144h12M460 144h16M60 145h12M460 145h16M60 146h12M460 146h16M60 147h12M460 147h16M60 148h12M460 148h16M60 149h12M460 149h16M60 150h12M460 150h16M60 151h12M460 151h16M60 152h12M460 152h16M60 153h12M460 153h16M60 154h12M460 154h16M60 155h12M460 155h16M60 156h12M460 156h16M60 157h12M460 157h16M60 158h12M460 158h16M60 159h12M460 159h16M60 160h12M460 160h16M60 161h12M460 161h16M60 162h12M460 162h16M60 163h12M460 163h16M60 164h12M460 164h16M60 165h12M460 165h16M60 166h12M460 166h16M60 167h12M460 167h16M60 168h12M460 168h16M60 169h12M460 169h16M60 170h12M460 170h16M60 171h12M460 171h16M60 172h12M460 172h16M60 173h12M460 173h16M60 174h12M460 174h16M60 175h12M460 175h16M60 176h12M460 176h16M60 177h12M460 177h16M60 178h12M460 178h16M60 179h12M460 179h16M60 180h12M460 180h16M60 181h12M460 181h16M60 182h12M460 182h16M60 183h12M460 183h16M60 184h12M460 184h16M60 185h12M460 185h16M60 186h12M460 186h16M60 187h12M460 187h16M60 188h12M460 188h16M60 189h12M460 189h16M60 190h12M460 190h16M60 191h12M460 191h16M60 192h12M460 192h16M60 193h12M460 193h16M60 194h12M460 194h16M60 195h12M460 195h16M60 196h12M460 196h16M60 197h12M460 197h16M60 198h12M460 198h16M60 199h12M460 199h16M60 200h12M460 200h16M60 201h12M460 201h16M60 202h12M460 202h16M60 203h12M460 203h16M60 204h12M460 204h16M60 205h12M460 205h16M60 206h12M460 206h16M60 207h12M460 207h16M60 208h12M460 208h16M60 209h12M460 209h16M60 210h12M460 210h16M60 211h12M460 211h16M60 212h12M460 212h16M60 213h12M460 213h16M60 214h12M460 214h16M60 215h12M460 215h16M60 216h12M460 216h16M60 217h12M460 217h16M60 218h12M460 218h16M60 219h12M460 219h16M60 220h12M460 220h16M60 221h12M460 221h16M60 222h12M460 222h16M60 223h12M460 223h16M60 224h24M460 224h16M60 225h24M460 225h16M60 226h24M460 226h16M60 227h24M460 227h16M60 228h24M460 228h16M60 229h24M460 229h16M60 230h24M460 230h16M60 231h24M460 231h16M68 232h24M452 232h16M68 233h24M452 233h16M68 234h24M452 234h16M68 235h24M452 235h16M68 236h24M452 236h16M68 237h24M452 237h16M68 238h24M452 238h16M68 239h24M452 239h16M84 240h376M84 241h376M84 242h376M84 243h376M84 244h376M84 245h376M84 246h376M84 247h376M92 248h360M92 249h360M92 250h360M92 251h360M92 252h360M92 253h360M92 254h360M92 255h360" />
<path stroke="#400638" d="M92 40h352M92 41h352M92 42h352M92 43h352M92 44h352M92 45h352M92 46h352M92 47h352M84 48h24M436 48h16M84 49h24M436 49h16M84 50h24M436 50h16M84 51h24M436 51h16M84 52h24M436 52h16M84 53h24M436 53h16M84 54h24M436 54h16M84 55h24M436 55h16M72 56h28M444 56h16M72 57h28M444 57h16M72 58h28M444 58h16M72 59h28M444 59h16M72 60h28M444 60h16M72 61h28M444 61h16M72 62h28M444 62h16M72 63h28M444 63h16M72 64h20M444 64h16M72 65h20M444 65h16M72 66h20M444 66h16M72 67h20M444 67h16M72 68h20M444 68h16M72 69h20M444 69h16M72 70h20M444 70h16M72 71h20M444 71h16M72 72h20M444 72h16M72 73h20M444 73h16M72 74h20M444 74h16M72 75h20M444 75h16M72 76h20M444 76h16M72 77h20M444 77h16M72 78h20M444 78h16M72 79h20M444 79h16M72 80h20M444 80h16M72 81h20M444 81h16M72 82h20M444 82h16M72 83h20M444 83h16M72 84h20M444 84h16M72 85h20M444 85h16M72 86h20M444 86h16M72 87h20M444 87h16M72 88h20M444 88h16M72 89h20M444 89h16M72 90h20M444 90h16M72 91h20M444 91h16M72 92h20M444 92h16M72 93h20M444 93h16M72 94h20M444 94h16M72 95h20M444 95h16M72 96h20M444 96h16M72 97h20M444 97h16M72 98h20M444 98h16M72 99h20M444 99h16M72 100h20M444 100h16M72 101h20M444 101h16M72 102h20M444 102h16M72 103h20M444 103h16M72 104h20M444 104h16M72 105h20M444 105h16M72 106h20M444 106h16M72 107h20M444 107h16M72 108h20M444 108h16M72 109h20M444 109h16M72 110h20M444 110h16M72 111h20M444 111h16M72 112h20M444 112h16M72 113h20M444 113h16M72 114h20M444 114h16M72 115h20M444 115h16M72 116h20M444 116h16M72 117h20M444 117h16M72 118h20M444 118h16M72 119h20M444 119h16M72 120h20M444 120h16M72 121h20M444 121h16M72 122h20M444 122h16M72 123h20M444 123h16M72 124h20M444 124h16M72 125h20M444 125h16M72 126h20M444 126h16M72 127h20M444 127h16M72 128h20M444 128h16M72 129h20M444 129h16M72 130h20M444 130h16M72 131h20M444 131h16M72 132h20M444 132h16M72 133h20M444 133h16M72 134h20M444 134h16M72 135h20M444 135h16M72 136h20M444 136h16M72 137h20M444 137h16M72 138h20M444 138h16M72 139h20M444 139h16M72 140h20M444 140h16M72 141h20M444 141h16M72 142h20M444 142h16M72 143h20M444 143h16M72 144h20M444 144h16M72 145h20M444 145h16M72 146h20M444 146h16M72 147h20M444 147h16M72 148h20M444 148h16M72 149h20M444 149h16M72 150h20M444 150h16M72 151h20M444 151h16M72 152h20M444 152h16M72 153h20M444 153h16M72 154h20M444 154h16M72 155h20M444 155h16M72 156h20M444 156h16M72 157h20M444 157h16M72 158h20M444 158h16M72 159h20M444 159h16M72 160h20M444 160h16M72 161h20M444 161h16M72 162h20M444 162h16M72 163h20M444 163h16M72 164h20M444 164h16M72 165h20M444 165h16M72 166h20M444 166h16M72 167h20M444 167h16M72 168h20M444 168h16M72 169h20M444 169h16M72 170h20M444 170h16M72 171h20M444 171h16M72 172h20M444 172h16M72 173h20M444 173h16M72 174h20M444 174h16M72 175h20M444 175h16M72 176h20M444 176h16M72 177h20M444 177h16M72 178h20M444 178h16M72 179h20M444 179h16M72 180h20M444 180h16M72 181h20M444 181h16M72 182h20M444 182h16M72 183h20M444 183h16M72 184h20M444 184h16M72 185h20M444 185h16M72 186h20M444 186h16M72 187h20M444 187h16M72 188h20M444 188h16M72 189h20M444 189h16M72 190h20M444 190h16M72 191h20M444 191h16M72 192h20M444 192h16M72 193h20M444 193h16M72 194h20M444 194h16M72 195h20M444 195h16M72 196h20M444 196h16M72 197h20M444 197h16M72 198h20M444 198h16M72 199h20M444 199h16M72 200h20M444 200h16M72 201h20M444 201h16M72 202h20M444 202h16M72 203h20M444 203h16M72 204h20M444 204h16M72 205h20M444 205h16M72 206h20M444 206h16M72 207h20M444 207h16M72 208h20M444 208h16M72 209h20M444 209h16M72 210h20M444 210h16M72 211h20M444 211h16M72 212h20M444 212h16M72 213h20M444 213h16M72 214h20M444 214h16M72 215h20M444 215h16M72 216h20M444 216h16M72 217h20M444 217h16M72 218h20M444 218h16M72 219h20M444 219h16M72 220h20M444 220h16M72 221h20M444 221h16M72 222h20M444 222h16M72 223h20M444 223h16M84 224h16M436 224h24M84 225h16M436 225h24M84 226h16M436 226h24M84 227h16M436 227h24M84 228h16M436 228h24M84 229h16M436 229h24M84 230h16M436 230h24M84 231h16M436 231h24M92 232h360M92 233h360M92 234h360M92 235h360M92 236h360M92 237h360M92 238h360M92 239h360" />
<path stroke="#4a0636" d="M108 48h328M108 49h328M108 50h328M108 51h328M108 52h328M108 53h328M108 54h328M108 55h328M100 56h16M428 56h16M100 57h16M428 57h16M100 58h16M428 58h16M100 59h16M428 59h16M100 60h16M428 60h16M100 61h16M428 61h16M100 62h16M428 62h16M100 63h16M428 63h16M92 64h24M428 64h16M92 65h24M428 65h16M92 66h24M428 66h16M92 67h24M428 67h16M92 68h24M428 68h16M92 69h24M428 69h16M92 70h24M428 70h16M92 71h24M428 71h16M92 72h24M428 72h16M92 73h24M428 73h16M92 74h24M428 74h16M92 75h24M428 75h16M92 76h24M428 76h16M92 77h24M428 77h16M92 78h24M428 78h16M92 79h24M428 79h16M92 80h24M428 80h16M92 81h24M428 81h16M92 82h24M428 82h16M92 83h24M428 83h16M92 84h24M428 84h16M92 85h24M428 85h16M92 86h24M428 86h16M92 87h24M428 87h16M92 88h24M428 88h16M92 89h24M428 89h16M92 90h24M428 90h16M92 91h24M428 91h16M92 92h24M428 92h16M92 93h24M428 93h16M92 94h24M428 94h16M92 95h24M428 95h16M92 96h24M428 96h16M92 97h24M428 97h16M92 98h24M428 98h16M92 99h24M428 99h16M92 100h24M428 100h16M92 101h24M428 101h16M92 102h24M428 102h16M92 103h24M428 103h16M92 104h24M428 104h16M92 105h24M428 105h16M92 106h24M428 106h16M92 107h24M428 107h16M92 108h24M428 108h16M92 109h24M428 109h16M92 110h24M428 110h16M92 111h24M428 111h16M92 112h24M428 112h16M92 113h24M428 113h16M92 114h24M428 114h16M92 115h24M428 115h16M92 116h24M428 116h16M92 117h24M428 117h16M92 118h24M428 118h16M92 119h24M428 119h16M92 120h24M428 120h16M92 121h24M428 121h16M92 122h24M428 122h16M92 123h24M428 123h16M92 124h24M428 124h16M92 125h24M428 125h16M92 126h24M428 126h16M92 127h24M428 127h16M92 128h24M428 128h16M92 129h24M428 129h16M92 130h24M428 130h16M92 131h24M428 131h16M92 132h24M428 132h16M92 133h24M428 133h16M92 134h24M428 134h16M92 135h24M428 135h16M92 136h24M428 136h16M92 137h24M428 137h16M92 138h24M428 138h16M92 139h24M428 139h16M92 140h24M428 140h16M92 141h24M428 141h16M92 142h24M428 142h16M92 143h24M428 143h16M92 144h24M428 144h16M92 145h24M428 145h16M92 146h24M428 146h16M92 147h24M428 147h16M92 148h24M428 148h16M92 149h24M428 149h16M92 150h24M428 150h16M92 151h24M428 151h16M92 152h24M428 152h16M92 153h24M428 153h16M92 154h24M428 154h16M92 155h24M428 155h16M92 156h24M428 156h16M92 157h24M428 157h16M92 158h24M428 158h16M92 159h24M428 159h16M92 160h24M428 160h16M92 161h24M428 161h16M92 162h24M428 162h16M92 163h24M428 163h16M92 164h24M428 164h16M92 165h24M428 165h16M92 166h24M428 166h16M92 167h24M428 167h16M92 168h24M428 168h16M92 169h24M428 169h16M92 170h24M428 170h16M92 171h24M428 171h16M92 172h24M428 172h16M92 173h24M428 173h16M92 174h24M428 174h16M92 175h24M428 175h16M92 176h24M428 176h16M92 177h24M428 177h16M92 178h24M428 178h16M92 179h24M428 179h16M92 180h24M428 180h16M92 181h24M428 181h16M92 182h24M428 182h16M92 183h24M428 183h16M92 184h24M428 184h16M92 185h24M428 185h16M92 186h24M428 186h16M92 187h24M428 187h16M92 188h24M428 188h16M92 189h24M428 189h16M92 190h24M428 190h16M92 191h24M428 191h16M92 192h24M428 192h16M92 193h24M428 193h16M92 194h24M428 194h16M92 195h24M428 195h16M92 196h24M428 196h16M92 197h24M428 197h16M92 198h24M428 198h16M92 199h24M428 199h16M92 200h24M428 200h16M92 201h24M428 201h16M92 202h24M428 202h16M92 203h24M428 203h16M92 204h24M428 204h16M92 205h24M428 205h16M92 206h24M428 206h16M92 207h24M428 207h16M92 208h24M428 208h16M92 209h24M428 209h16M92 210h24M428 210h16M92 211h24M428 211h16M92 212h24M428 212h16M92 213h24M428 213h16M92 214h24M428 214h16M92 215h24M428 215h16M92 216h24M428 216h16M92 217h24M428 217h16M92 218h24M428 218h16M92 219h24M428 219h16M92 220h24M428 220h16M92 221h24M428 221h16M92 222h24M428 222h16M92 223h24M428 223h16M100 224h336M100 225h336M100 226h336M100 227h336M100 228h336M100 229h336M100 230h336M100 231h336" />
<path stroke="#530633" d="M116 56h312M116 57h312M116 58h312M116 59h312M116 60h312M116 61h312M116 62h312M116 63h312M116 64h88M332 64h96M116 65h88M332 65h96M116 66h88M332 66h96M116 67h88M332 67h96M116 68h88M332 68h96M116 69h88M332 69h96M116 70h88M332 70h96M116 71h88M332 71h96M116 72h80M340 72h88M116 73h80M340 73h88M116 74h80M340 74h88M116 75h80M340 75h88M116 76h80M340 76h88M116 77h80M340 77h88M116 78h80M340 78h88M116 79h80M340 79h88M116 80h72M356 80h72M116 81h72M356 81h72M116 82h72M356 82h72M116 83h72M356 83h72M116 84h72M356 84h72M116 85h72M356 85h72M116 86h72M356 86h72M116 87h72M356 87h72M116 88h56M364 88h64M116 89h56M364 89h64M116 90h56M364 90h64M116 91h56M364 91h64M116 92h56M364 92h64M116 93h56M364 93h64M116 94h56M364 94h64M116 95h56M364 95h64M116 96h48M372 96h56M116 97h48M372 97h56M116 98h48M372 98h56M116 99h48M372 99h56M116 100h48M372 100h56M116 101h48M372 101h56M116 102h48M372 102h56M116 103h48M372 103h56M116 104h40M380 104h48M116 105h40M380 105h48M116 106h40M380 106h48M116 107h40M380 107h48M116 108h40M380 108h48M116 109h40M380 109h48M116 110h40M380 110h48M116 111h40M380 111h48M116 112h28M388 112h40M116 113h28M388 113h40M116 114h28M388 114h40M116 115h28M388 115h40M116 116h28M388 116h40M116 117h28M388 117h40M116 118h28M388 118h40M116 119h28M388 119h40M116 120h24M396 120h32M116 121h24M396 121h32M116 122h24M396 122h32M116 123h24M396 123h32M116 124h24M396 124h32M116 125h24M396 125h32M116 126h24M396 126h32M116 127h24M396 127h32M116 128h16M404 128h24M116 129h16M404 129h24M116 130h16M404 130h24M116 131h16M404 131h24M116 132h16M404 132h24M116 133h16M404 133h24M116 134h16M404 134h24M116 135h16M404 135h24M116 136h16M404 136h24M116 137h16M404 137h24M116 138h16M404 138h24M116 139h16M404 139h24M116 140h16M404 140h24M116 141h16M404 141h24M116 142h16M404 142h24M116 143h16M404 143h24M116 144h16M404 144h24M116 145h16M404 145h24M116 146h16M404 146h24M116 147h16M404 147h24M116 148h16M404 148h24M116 149h16M404 149h24M116 150h16M404 150h24M116 151h16M404 151h24M116 152h16M404 152h24M116 153h16M404 153h24M116 154h16M404 154h24M116 155h16M404 155h24M116 156h16M404 156h24M116 157h16M404 157h24M116 158h16M404 158h24M116 159h16M404 159h24M116 160h24M396 160h32M116 161h24M396 161h32M116 162h24M396 162h32M116 163h24M396 163h32M116 164h24M396 164h32M116 165h24M396 165h32M116 166h24M396 166h32M116 167h24M396 167h32M116 168h28M388 168h40M116 169h28M388 169h40M116 170h28M388 170h40M116 171h28M388 171h40M116 172h28M388 172h40M116 173h28M388 173h40M116 174h28M388 174h40M116 175h28M388 175h40M116 176h40M380 176h48M116 177h40M380 177h48M116 178h40M380 178h48M116 179h40M380 179h48M116 180h40M380 180h48M116 181h40M380 181h48M116 182h40M380 182h48M116 183h40M380 183h48M116 184h56M372 184h56M116 185h56M372 185h56M116 186h56M372 186h56M116 187h56M372 187h56M116 188h56M372 188h56M116 189h56M372 189h56M116 190h56M372 190h56M116 191h56M372 191h56M116 192h64M364 192h64M116 193h64M364 193h64M116 194h64M364 194h64M116 195h64M364 195h64M116 196h64M364 196h64M116 197h64M364 197h64M116 198h64M364 198h64M116 199h64M364 199h64M116 200h72M348 200h80M116 201h72M348 201h80M116 202h72M348 202h80M116 203h72M348 203h80M116 204h72M348 204h80M116 205h72M348 205h80M116 206h72M348 206h80M116 207h72M348 207h80M116 208h80M340 208h88M116 209h80M340 209h88M116 210h80M340 210h88M116 211h80M340 211h88M116 212h80M340 212h88M116 213h80M340 213h88M116 214h80M340 214h88M116 215h80M340 215h88M116 216h312M116 217h312M116 218h312M116 219h312M116 220h312M116 221h312M116 222h312M116 223h312" />
<path stroke="#5c0730" d="M204 64h128M204 65h128M204 66h128M204 67h128M204 68h128M204 69h128M204 70h128M204 71h128M196 72h16M324 72h16M196 73h16M324 73h16M196 74h16M324 74h16M196 75h16M324 75h16M196 76h16M324 76h16M196 77h16M324 77h16M196 78h16M324 78h16M196 79h16M324 79h16M188 80h16M332 80h24M188 81h16M332 81h24M188 82h16M332 82h24M188 83h16M332 83h24M188 84h16M332 84h24M188 85h16M332 85h24M188 86h16M332 86h24M188 87h16M332 87h24M172 88h24M340 88h24M172 89h24M340 89h24M172 90h24M340 90h24M172 91h24M340 91h24M172 92h24M340 92h24M172 93h24M340 93h24M172 94h24M340 94h24M172 95h24M340 95h24M164 96h24M356 96h16M164 97h24M356 97h16M164 98h24M356 98h16M164 99h24M356 99h16M164 100h24M356 100h16M164 101h24M356 101h16M164 102h24M356 102h16M164 103h24M356 103h16M156 104h16M364 104h16M156 105h16M364 105h16M156 106h16M364 106h16M156 107h16M364 107h16M156 108h16M364 108h16M156 109h16M364 109h16M156 110h16M364 110h16M156 111h16M364 111h16M144 112h20M372 112h16M144 113h20M372 113h16M144 114h20M372 114h16M144 115h20M372 115h16M144 116h20M372 116h16M144 117h20M372 117h16M144 118h20M372 118h16M144 119h20M372 119h16M140 120h16M380 120h16M140 121h16M380 121h16M140 122h16M380 122h16M140 123h16M380 123h16M140 124h16M380 124h16M140 125h16M380 125h16M140 126h16M380 126h16M140 127h16M380 127h16M132 128h12M388 128h16M132 129h12M388 129h16M132 130h12M388 130h16M132 131h12M388 131h16M132 132h12M388 132h16M132 133h12M388 133h16M132 134h12M388 134h16M132 135h12M388 135h16M132 136h12M388 136h16M132 137h12M388 137h16M132 138h12M388 138h16M132 139h12M388 139h16M132 140h12M388 140h16M132 141h12M388 141h16M132 142h12M388 142h16M132 143h12M388 143h16M132 144h12M388 144h16M132 145h12M388 145h16M132 146h12M388 146h16M132 147h12M388 147h16M132 148h12M388 148h16M132 149h12M388 149h16M132 150h12M388 150h16M132 151h12M388 151h16M132 152h12M388 152h16M132 153h12M388 153h16M132 154h12M388 154h16M132 155h12M388 155h16M132 156h12M388 156h16M132 157h12M388 157h16M132 158h12M388 158h16M132 159h12M388 159h16M140 160h16M380 160h16M140 161h16M380 161h16M140 162h16M380 162h16M140 163h16M380 163h16M140 164h16M380 164h16M140 165h16M380 165h16M140 166h16M380 166h16M140 167h16M380 167h16M144 168h28M372 168h16M144 169h28M372 169h16M144 170h28M372 170h16M144 171h28M372 171h16M144 172h28M372 172h16M144 173h28M372 173h16M144 174h28M372 174h16M144 175h28M372 175h16M156 176h24M364 176h16M156 177h24M364 177h16M156 178h24M364 178h16M156 179h24M364 179h16M156 180h24M364 180h16M156 181h24M364 181h16M156 182h24M364 182h16M156 183h24M364 183h16M172 184h16M348 184h24M172 185h16M348 185h24M172 186h16M348 186h24M172 187h16M348 187h24M172 188h16M348 188h24M172 189h16M348 189h24M172 190h16M348 190h24M172 191h16M348 191h24M180 192h16M340 192h24M180 193h16M340 193h24M180 194h16M340 194h24M180 195h16M340 195h24M180 196h16M340 196h24M180 197h16M340 197h24M180 198h16M340 198h24M180 199h16M340 199h24M188 200h16M332 200h16M188 201h16M332 201h16M188 202h16M332 202h16M188 203h16M332 203h16M188 204h16M332 204h16M188 205h16M332 205h16M188 206h16M332 206h16M188 207h16M332 207h16M196 208h144M196 209h144M196 210h144M196 211h144M196 212h144M196 213h144M196 214h144M196 215h144" />
<path stroke="#66072e" d="M212 72h112M212 73h112M212 74h112M212 75h112M212 76h112M212 77h112M212 78h112M212 79h112M204 80h128M204 81h128M204 82h128M204 83h128M204 84h128M204 85h128M204 86h128M204 87h128M196 88h16M324 88h16M196 89h16M324 89h16M196 90h16M324 90h16M196 91h16M324 91h16M196 92h16M324 92h16M196 93h16M324 93h16M196 94h16M324 94h16M196 95h16M324 95h16M188 96h16M332 96h24M188 97h16M332 97h24M188 98h16M332 98h24M188 99h16M332 99h24M188 100h16M332 100h24M188 101h16M332 101h24M188 102h16M332 102h24M188 103h16M332 103h24M172 104h24M340 104h24M172 105h24M340 105h24M172 106h24M340 106h24M172 107h24M340 107h24M172 108h24M340 108h24M172 109h24M340 109h24M172 110h24M340 110h24M172 111h24M340 111h24M164 112h24M356 112h16M164 113h24M356 113h16M164 114h24M356 114h16M164 115h24M356 115h16M164 116h24M356 116h16M164 117h24M356 117h16M164 118h24M356 118h16M164 119h24M356 119h16M156 120h16M364 120h16M156 121h16M364 121h16M156 122h16M364 122h16M156 123h16M364 123h16M156 124h16M364 124h16M156 125h16M364 125h16M156 126h16M364 126h16M156 127h16M364 127h16M144 128h28M372 128h16M144 129h28M372 129h16M144 130h28M372 130h16M144 131h28M372 131h16M144 132h28M372 132h16M144 133h28M372 133h16M144 134h28M372 134h16M144 135h28M372 135h16M144 136h28M372 136h16M144 137h28M372 137h16M144 138h28M372 138h16M144 139h28M372 139h16M144 140h28M372 140h16M144 141h28M372 141h16M144 142h28M372 142h16M144 143h28M372 143h16M144 144h28M372 144h16M144 145h28M372 145h16M144 146h28M372 146h16M144 147h28M372 147h16M144 148h28M372 148h16M144 149h28M372 149h16M144 150h28M372 150h16M144 151h28M372 151h16M144 152h28M372 152h16M144 153h28M372 153h16M144 154h28M372 154h16M144 155h28M372 155h16M144 156h28M372 156h16M144 157h28M372 157h16M144 158h28M372 158h16M144 159h28M372 159h16M156 160h24M364 160h16M156 161h24M364 161h16M156 162h24M364 162h16M156 163h24M364 163h16M156 164h24M364 164h16M156 165h24M364 165h16M156 166h24M364 166h16M156 167h24M364 167h16M172 168h16M348 168h24M172 169h16M348 169h24M172 170h16M348 170h24M172 171h16M348 171h24M172 172h16M348 172h24M172 173h16M348 173h24M172 174h16M348 174h24M172 175h16M348 175h24M180 176h16M340 176h24M180 177h16M340 177h24M180 178h16M340 178h24M180 179h16M340 179h24M180 180h16M340 180h24M180 181h16M340 181h24M180 182h16M340 182h24M180 183h16M340 183h24M188 184h16M332 184h16M188 185h16M332 185h16M188 186h16M332 186h16M188 187h16M332 187h16M188 188h16M332 188h16M188 189h16M332 189h16M188 190h16M332 190h16M188 191h16M332 191h16M196 192h20M324 192h16M196 193h20M324 193h16M196 194h20M324 194h16M196 195h20M324 195h16M196 196h20M324 196h16M196 197h20M324 197h16M196 198h20M324 198h16M196 199h20M324 199h16M204 200h128M204 201h128M204 202h128M204 203h128M204 204h128M204 205h128M204 206h128M204 207h128" />
<path stroke="#6f082b" d="M212 88h112M212 89h112M212 90h112M212 91h112M212 92h112M212 93h112M212 94h112M212 95h112M204 96h12M316 96h16M204 97h12M316 97h16M204 98h12M316 98h16M204 99h12M316 99h16M204 100h12M316 100h16M204 101h12M316 101h16M204 102h12M316 102h16M204 103h12M316 103h16M196 104h16M324 104h16M196 105h16M324 105h16M196 106h16M324 106h16M196 107h16M324 107h16M196 108h16M324 108h16M196 109h16M324 109h16M196 110h16M324 110h16M196 111h16M324 111h16M188 112h16M332 112h24M188 113h16M332 113h24M188 114h16M332 114h24M188 115h16M332 115h24M188 116h16M332 116h24M188 117h16M332 117h24M188 118h16M332 118h24M188 119h16M332 119h24M172 120h24M340 120h24M172 121h24M340 121h24M172 122h24M340 122h24M172 123h24M340 123h24M172 124h24M340 124h24M172 125h24M340 125h24M172 126h24M340 126h24M172 127h24M340 127h24M172 128h16M348 128h24M172 129h16M348 129h24M172 130h16M348 130h24M172 131h16M348 131h24M172 132h16M348 132h24M172 133h16M348 133h24M172 134h16M348 134h24M172 135h16M348 135h24M172 136h16M348 136h24M172 137h16M348 137h24M172 138h16M348 138h24M172 139h16M348 139h24M172 140h16M348 140h24M172 141h16M348 141h24M172 142h16M348 142h24M172 143h16M348 143h24M172 144h16M348 144h24M172 145h16M348 145h24M172 146h16M348 146h24M172 147h16M348 147h24M172 148h16M348 148h24M172 149h16M348 149h24M172 150h16M348 150h24M172 151h16M348 151h24M172 152h16M348 152h24M172 153h16M348 153h24M172 154h16M348 154h24M172 155h16M348 155h24M172 156h16M348 156h24M172 157h16M348 157h24M172 158h16M348 158h24M172 159h16M348 159h24M180 160h16M340 160h24M180 161h16M340 161h24M180 162h16M340 162h24M180 163h16M340 163h24M180 164h16M340 164h24M180 165h16M340 165h24M180 166h16M340 166h24M180 167h16M340 167h24M188 168h16M332 168h16M188 169h16M332 169h16M188 170h16M332 170h16M188 171h16M332 171h16M188 172h16M332 172h16M188 173h16M332 173h16M188 174h16M332 174h16M188 175h16M332 175h16M196 176h20M324 176h16M196 177h20M324 177h16M196 178h20M324 178h16M196 179h20M324 179h16M196 180h20M324 180h16M196 181h20M324 181h16M196 182h20M324 182h16M196 183h20M324 183h16M204 184h24M316 184h16M204 185h24M316 185h16M204 186h24M316 186h16M204 187h24M316 187h16M204 188h24M316 188h16M204 189h24M316 189h16M204 190h24M316 190h16M204 191h24M316 191h16M216 192h108M216 193h108M216 194h108M216 195h108M216 196h108M216 197h108M216 198h108M216 199h108" />
<path stroke="#780829" d="M216 96h100M216 97h100M216 98h100M216 99h100M216 100h100M216 101h100M216 102h100M216 103h100M212 104h24M300 104h24M212 105h24M300 105h24M212 106h24M300 106h24M212 107h24M300 107h24M212 108h24M300 108h24M212 109h24M300 109h24M212 110h24M300 110h24M212 111h24M300 111h24M204 112h24M316 112h16M204 113h24M316 113h16M204 114h24M316 114h16M204 115h24M316 115h16M204 116h24M316 116h16M204 117h24M316 117h16M204 118h24M316 118h16M204 119h24M316 119h16M196 120h20M324 120h16M196 121h20M324 121h16M196 122h20M324 122h16M196 123h20M324 123h16M196 124h20M324 124h16M196 125h20M324 125h16M196 126h20M324 126h16M196 127h20M324 127h16M188 128h24M324 128h24M188 129h24M324 129h24M188 130h24M324 130h24M188 131h24M324 131h24M188 132h24M324 132h24M188 133h24M324 133h24M188 134h24M324 134h24M188 135h24M324 135h24M188 136h24M324 136h24M188 137h24M324 137h24M188 138h24M324 138h24M188 139h24M324 139h24M188 140h24M324 140h24M188 141h24M324 141h24M188 142h24M324 142h24M188 143h24M324 143h24M188 144h24M324 144h24M188 145h24M324 145h24M188 146h24M324 146h24M188 147h24M324 147h24M188 148h24M324 148h24M188 149h24M324 149h24M188 150h24M324 150h24M188 151h24M324 151h24M188 152h24M324 152h24M188 153h24M324 153h24M188 154h24M324 154h24M188 155h24M324 155h24M188 156h24M324 156h24M188 157h24M324 157h24M188 158h24M324 158h24M188 159h24M324 159h24M196 160h20M316 160h24M196 161h20M316 161h24M196 162h20M316 162h24M196 163h20M316 163h24M196 164h20M316 164h24M196 165h20M316 165h24M196 166h20M316 166h24M196 167h20M316 167h24M204 168h32M300 168h32M204 169h32M300 169h32M204 170h32M300 170h32M204 171h32M300 171h32M204 172h32M300 172h32M204 173h32M300 173h32M204 174h32M300 174h32M204 175h32M300 175h32M216 176h28M292 176h32M216 177h28M292 177h32M216 178h28M292 178h32M216 179h28M292 179h32M216 180h28M292 180h32M216 181h28M292 181h32M216 182h28M292 182h32M216 183h28M292 183h32M228 184h88M228 185h88M228 186h88M228 187h88M228 188h88M228 189h88M228 190h88M228 191h88" />
<path stroke="#810826" d="M236 104h64M236 105h64M236 106h64M236 107h64M236 108h64M236 109h64M236 110h64M236 111h64M228 112h16M292 112h24M228 113h16M292 113h24M228 114h16M292 114h24M228 115h16M292 115h24M228 116h16M292 116h24M228 117h16M292 117h24M228 118h16M292 118h24M228 119h16M292 119h24M216 120h20M300 120h24M216 121h20M300 121h24M216 122h20M300 122h24M216 123h20M300 123h24M216 124h20M300 124h24M216 125h20M300 125h24M216 126h20M300 126h24M216 127h20M300 127h24M212 128h16M308 128h16M212 129h16M308 129h16M212 130h16M308 130h16M212 131h16M308 131h16M212 132h16M308 132h16M212 133h16M308 133h16M212 134h16M308 134h16M212 135h16M308 135h16M212 136h16M308 136h16M212 137h16M308 137h16M212 138h16M308 138h16M212 139h16M308 139h16M212 140h16M308 140h16M212 141h16M308 141h16M212 142h16M308 142h16M212 143h16M308 143h16M212 144h16M308 144h16M212 145h16M308 145h16M212 146h16M308 146h16M212 147h16M308 147h16M212 148h16M308 148h16M212 149h16M308 149h16M212 150h16M308 150h16M212 151h16M308 151h16M212 152h16M308 152h16M212 153h16M308 153h16M212 154h16M308 154h16M212 155h16M308 155h16M212 156h16M308 156h16M212 157h16M308 157h16M212 158h16M308 158h16M212 159h16M308 159h16M216 160h20M300 160h16M216 161h20M300 161h16M216 162h20M300 162h16M216 163h20M300 163h16M216 164h20M300 164h16M216 165h20M300 165h16M216 166h20M300 166h16M216 167h20M300 167h16M236 168h8M292 168h8M236 169h8M292 169h8M236 170h8M292 170h8M236 171h8M292 171h8M236 172h8M292 172h8M236 173h8M292 173h8M236 174h8M292 174h8M236 175h8M292 175h8M244 176h48M244 177h48M244 178h48M244 179h48M244 180h48M244 181h48M244 182h48M244 183h48" />
<path stroke="#8b0924" d="M244 112h48M244 113h48M244 114h48M244 115h48M244 116h48M244 117h48M244 118h48M244 119h48M236 120h16M284 120h16M236 121h16M284 121h16M236 122h16M284 122h16M236 123h16M284 123h16M236 124h16M284 124h16M236 125h16M284 125h16M236 126h16M284 126h16M236 127h16M284 127h16M228 128h16M292 128h16M228 129h16M292 129h16M228 130h16M292 130h16M228 131h16M292 131h16M228 132h16M292 132h16M228 133h16M292 133h16M228 134h16M292 134h16M228 135h16M292 135h16M228 136h16M292 136h16M228 137h16M292 137h16M228 138h16M292 138h16M228 139h16M292 139h16M228 140h16M292 140h16M228 141h16M292 141h16M228 142h16M292 142h16M228 143h16M292 143h16M228 144h16M292 144h16M228 145h16M292 145h16M228 146h16M292 146h16M228 147h16M292 147h16M228 148h16M292 148h16M228 149h16M292 149h16M228 150h16M292 150h16M228 151h16M292 151h16M228 152h16M292 152h16M228 153h16M292 153h16M228 154h16M292 154h16M228 155h16M292 155h16M228 156h16M292 156h16M228 157h16M292 157h16M228 158h16M292 158h16M228 159h16M292 159h16M236 160h16M284 160h16M236 161h16M284 161h16M236 162h16M284 162h16M236 163h16M284 163h16M236 164h16M284 164h16M236 165h16M284 165h16M236 166h16M284 166h16M236 167h16M284 167h16M244 168h48M244 169h48M244 170h48M244 171h48M244 172h48M244 173h48M244 174h48M244 175h48" />
<path stroke="#940921" d="M252 120h32M252 121h32M252 122h32M252 123h32M252 124h32M252 125h32M252 126h32M252 127h32M244 128h48M244 129h48M244 130h48M244 131h48M244 132h48M244 133h48M244 134h48M244 135h48M244 136h48M244 137h48M244 138h48M244 139h48M244 140h48M244 141h48M244 142h48M244 143h48M244 144h48M244 145h48M244 146h48M244 147h48M244 148h48M244 149h48M244 150h48M244 151h48M244 152h48M244 153h48M244 154h48M244 155h48M244 156h48M244 157h48M244 158h48M244 159h48M252 160h32M252 161h32M252 162h32M252 163h32M252 164h32M252 165h32M252 166h32M252 167h32" />
</svg>