<svg width="287" height="500" xmlns="http://www.w3.org/2000/svg" shape-rendering="crispEdges">
 <metadata>Made with Pixels to Svg https://codepen.io/shshaw/pen/XbxvNj</metadata>

 <g>
  <title>Layer 1</title>
  <g transform="rotate(90 144 252.5)" stroke="null" id="svg_16">
   <path stroke="#120445" d="m-112,109l512,0m-512,1l512,0m-512,1l512,0m-512,1l512,0m-512,1l512,0m-512,1l512,0m-512,1l512,0m-512,1l512,0m-512,1l52,0m432,0l28,0m-512,1l52,0m432,0l28,0m-512,1l52,0m432,0l28,0m-512,1l52,0m432,0l28,0m-512,1l52,0m432,0l28,0m-512,1l52,0m432,0l28,0m-512,1l52,0m432,0l28,0m-512,1l52,0m432,0l28,0m-512,1l44,0m448,0l20,0m-512,1l44,0m448,0l20,0m-512,1l44,0m448,0l20,0m-512,1l44,0m448,0l20,0m-512,1l44,0m448,0l20,0m-512,1l44,0m448,0l20,0m-512,1l44,0m448,0l20,0m-512,1l44,0m448,0l20,0m-512,1l36,0m464,0l12,0m-512,1l36,0m464,0l12,0m-512,1l36,0m464,0l12,0m-512,1l36,0m464,0l12,0m-512,1l36,0m464,0l12,0m-512,1l36,0m464,0l12,0m-512,1l36,0m464,0l12,0m-512,1l36,0m464,0l12,0m-512,1l28,0m480,0l4,0m-512,1l28,0m480,0l4,0m-512,1l28,0m480,0l4,0m-512,1l28,0m480,0l4,0m-512,1l28,0m480,0l4,0m-512,1l28,0m480,0l4,0m-512,1l28,0m480,0l4,0m-512,1l28,0m480,0l4,0m-512,1l20,0m-20,1l20,0m-20,1l20,0m-20,1l20,0m-20,1l20,0m-20,1l20,0m-20,1l20,0m-20,1l20,0m-20,1l12,0m-12,1l12,0m-12,1l12,0m-12,1l12,0m-12,1l12,0m-12,1l12,0m-12,1l12,0m-12,1l12,0m-12,177l20,0m-20,1l20,0m-20,1l20,0m-20,1l20,0m-20,1l20,0m-20,1l20,0m-20,1l20,0m-20,1l20,0m-20,1l28,0m480,0l4,0m-512,1l28,0m480,0l4,0m-512,1l28,0m480,0l4,0m-512,1l28,0m480,0l4,0m-512,1l28,0m480,0l4,0m-512,1l28,0m480,0l4,0m-512,1l28,0m480,0l4,0m-512,1l28,0m480,0l4,0m-512,1l36,0m464,0l12,0m-512,1l36,0m464,0l12,0m-512,1l36,0m464,0l12,0m-512,1l36,0m464,0l12,0m-512,1l36,0m464,0l12,0m-512,1l36,0m464,0l12,0m-512,1l36,0m464,0l12,0m-512,1l36,0m464,0l12,0m-512,1l44,0m448,0l20,0m-512,1l44,0m448,0l20,0m-512,1l44,0m448,0l20,0m-512,1l44,0m448,0l20,0m-512,1l44,0m448,0l20,0m-512,1l44,0m448,0l20,0m-512,1l44,0m448,0l20,0m-512,1l44,0m448,0l20,0m-512,1l52,0m432,0l28,0m-512,1l52,0m432,0l28,0m-512,1l52,0m432,0l28,0m-512,1l52,0m432,0l28,0m-512,1l52,0m432,0l28,0m-512,1l52,0m432,0l28,0m-512,1l52,0m432,0l28,0m-512,1l52,0m432,0l28,0m-512,1l60,0m424,0l28,0m-512,1l60,0m424,0l28,0m-512,1l60,0m424,0l28,0m-512,1l60,0m424,0l28,0m-512,1l60,0m424,0l28,0m-512,1l60,0m424,0l28,0m-512,1l60,0m424,0l28,0m-512,1l60,0m424,0l28,0m-512,1l428,0m24,0l60,0m-512,1l428,0m24,0l60,0m-512,1l428,0m24,0l60,0m-512,1l428,0m24,0l60,0m-512,1l428,0m24,0l60,0m-512,1l428,0m24,0l60,0m-512,1l428,0m24,0l60,0m-512,1l428,0m24,0l60,0" id="svg_1"/>
   <path stroke="#1b0442" d="m-60,117l432,0m-432,1l432,0m-432,1l432,0m-432,1l432,0m-432,1l432,0m-432,1l432,0m-432,1l432,0m-432,1l432,0m-440,1l16,0m416,0l16,0m-448,1l16,0m416,0l16,0m-448,1l16,0m416,0l16,0m-448,1l16,0m416,0l16,0m-448,1l16,0m416,0l16,0m-448,1l16,0m416,0l16,0m-448,1l16,0m416,0l16,0m-448,1l16,0m416,0l16,0m-456,1l16,0m432,0l16,0m-464,1l16,0m432,0l16,0m-464,1l16,0m432,0l16,0m-464,1l16,0m432,0l16,0m-464,1l16,0m432,0l16,0m-464,1l16,0m432,0l16,0m-464,1l16,0m432,0l16,0m-464,1l16,0m432,0l16,0m-472,1l16,0m448,0l16,0m-480,1l16,0m448,0l16,0m-480,1l16,0m448,0l16,0m-480,1l16,0m448,0l16,0m-480,1l16,0m448,0l16,0m-480,1l16,0m448,0l16,0m-480,1l16,0m448,0l16,0m-480,1l16,0m448,0l16,0m-488,1l16,0m464,0l12,0m-492,1l16,0m464,0l12,0m-492,1l16,0m464,0l12,0m-492,1l16,0m464,0l12,0m-492,1l16,0m464,0l12,0m-492,1l16,0m464,0l12,0m-492,1l16,0m464,0l12,0m-492,1l16,0m464,0l12,0m-500,1l16,0m480,0l4,0m-500,1l16,0m480,0l4,0m-500,1l16,0m480,0l4,0m-500,1l16,0m480,0l4,0m-500,1l16,0m480,0l4,0m-500,1l16,0m480,0l4,0m-500,1l16,0m480,0l4,0m-500,1l16,0m480,0l4,0m-512,1l20,0m-20,1l20,0m-20,1l20,0m-20,1l20,0m-20,1l20,0m-20,1l20,0m-20,1l20,0m-20,1l20,0m-20,1l20,0m-20,1l20,0m-20,1l20,0m-20,1l20,0m-20,1l20,0m-20,1l20,0m-20,1l20,0m-20,1l20,0m-20,1l20,0m-20,1l20,0m-20,1l20,0m-20,1l20,0m-20,1l20,0m-20,1l20,0m-20,1l20,0m-20,1l20,0m-20,1l20,0m-20,1l20,0m-20,1l20,0m-20,1l20,0m-20,1l20,0m-20,1l20,0m-20,1l20,0m-20,1l20,0m-20,1l20,0m-20,1l20,0m-20,1l20,0m-20,1l20,0m-20,1l20,0m-20,1l20,0m-20,1l20,0m-20,1l20,0m-20,1l20,0m-20,1l20,0m-20,1l20,0m-20,1l20,0m-20,1l20,0m-20,1l20,0m-20,1l20,0m-20,1l20,0m-20,1l20,0m-20,1l20,0m-20,1l20,0m-20,1l20,0m-20,1l20,0m-20,1l20,0m-20,1l20,0m-20,1l20,0m-20,1l20,0m-20,1l20,0m-20,1l20,0m-20,1l20,0m-20,1l20,0m-20,1l20,0m-20,1l20,0m-20,1l20,0m-20,1l20,0m-20,1l20,0m-20,1l20,0m-20,1l20,0m-20,1l20,0m-20,1l20,0m-20,1l20,0m-20,1l20,0m-20,1l20,0m-20,1l20,0m-20,1l20,0m-20,1l20,0m-20,1l20,0m-20,1l20,0m-20,1l20,0m-20,1l20,0m-20,1l20,0m-20,1l20,0m-20,1l20,0m-20,1l20,0m-20,1l20,0m-20,1l20,0m-20,1l20,0m-20,1l20,0m-20,1l20,0m-20,1l20,0m-20,1l20,0m-20,1l20,0m-20,1l20,0m-20,1l20,0m-20,1l20,0m-20,1l20,0m-20,1l20,0m-20,1l20,0m-20,1l20,0m-20,1l20,0m-20,1l20,0m-20,1l20,0m-20,1l20,0m-20,1l20,0m-20,1l20,0m-20,1l20,0m-20,1l20,0m-20,1l20,0m-20,1l20,0m-20,1l20,0m-20,1l20,0m-20,1l20,0m-20,1l20,0m-20,1l20,0m-20,1l20,0m-20,1l20,0m-20,1l20,0m-20,1l20,0m-20,1l20,0m-20,1l20,0m-20,1l20,0m-20,1l20,0m-20,1l20,0m-20,1l20,0m-20,1l20,0m-20,1l20,0m-20,1l20,0m-20,1l20,0m-20,1l20,0m-20,1l20,0m-20,1l20,0m-20,1l20,0m-20,1l20,0m-20,1l20,0m-20,1l20,0m-20,1l20,0m-20,1l20,0m-20,1l20,0m-20,1l20,0m-20,1l20,0m-20,1l20,0m-20,1l20,0m-20,1l20,0m-20,1l20,0m-20,1l20,0m-20,1l20,0m-20,1l20,0m-20,1l20,0m-20,1l20,0m-20,1l20,0m-20,1l20,0m-20,1l20,0m-20,1l20,0m-20,1l20,0m-20,1l20,0m-20,1l20,0m-20,1l20,0m-20,1l20,0m-20,1l20,0m-20,1l20,0m-20,1l20,0m-20,1l20,0m-20,1l20,0m-20,1l20,0m-20,1l20,0m-20,1l20,0m-20,1l20,0m-20,1l20,0m-20,1l28,0m480,0l4,0m-512,1l28,0m480,0l4,0m-512,1l28,0m480,0l4,0m-512,1l28,0m480,0l4,0m-512,1l28,0m480,0l4,0m-512,1l28,0m480,0l4,0m-512,1l28,0m480,0l4,0m-512,1l28,0m480,0l4,0m-492,1l16,0m464,0l12,0m-492,1l16,0m464,0l12,0m-492,1l16,0m464,0l12,0m-492,1l16,0m464,0l12,0m-492,1l16,0m464,0l12,0m-492,1l16,0m464,0l12,0m-492,1l16,0m464,0l12,0m-492,1l16,0m464,0l12,0m-484,1l16,0m448,0l16,0m-480,1l16,0m448,0l16,0m-480,1l16,0m448,0l16,0m-480,1l16,0m448,0l16,0m-480,1l16,0m448,0l16,0m-480,1l16,0m448,0l16,0m-480,1l16,0m448,0l16,0m-480,1l16,0m448,0l16,0m-472,1l16,0m432,0l16,0m-464,1l16,0m432,0l16,0m-464,1l16,0m432,0l16,0m-464,1l16,0m432,0l16,0m-464,1l16,0m432,0l16,0m-464,1l16,0m432,0l16,0m-464,1l16,0m432,0l16,0m-464,1l16,0m432,0l16,0m-456,1l16,0m416,0l16,0m-448,1l16,0m416,0l16,0m-448,1l16,0m416,0l16,0m-448,1l16,0m416,0l16,0m-448,1l16,0m416,0l16,0m-448,1l16,0m416,0l16,0m-448,1l16,0m416,0l16,0m-448,1l16,0m416,0l16,0m-440,1l16,0m400,0l16,0m-432,1l16,0m400,0l16,0m-432,1l16,0m400,0l16,0m-432,1l16,0m400,0l16,0m-432,1l16,0m400,0l16,0m-432,1l16,0m400,0l16,0m-432,1l16,0m400,0l16,0m-432,1l16,0m400,0l16,0m-424,1l424,0m-424,1l424,0m-424,1l424,0m-424,1l424,0m-424,1l424,0m-424,1l424,0m-424,1l424,0m-424,1l424,0m-56,1l24,0m-24,1l24,0m-24,1l24,0m-24,1l24,0m-24,1l24,0m-24,1l24,0m-24,1l24,0m-24,1l24,0" id="svg_2"/>
   <path stroke="#250540" d="m-52,125l416,0m-416,1l416,0m-416,1l416,0m-416,1l416,0m-416,1l416,0m-416,1l416,0m-416,1l416,0m-416,1l416,0m-424,1l16,0m400,0l16,0m-432,1l16,0m400,0l16,0m-432,1l16,0m400,0l16,0m-432,1l16,0m400,0l16,0m-432,1l16,0m400,0l16,0m-432,1l16,0m400,0l16,0m-432,1l16,0m400,0l16,0m-432,1l16,0m400,0l16,0m-440,1l16,0m416,0l16,0m-448,1l16,0m416,0l16,0m-448,1l16,0m416,0l16,0m-448,1l16,0m416,0l16,0m-448,1l16,0m416,0l16,0m-448,1l16,0m416,0l16,0m-448,1l16,0m416,0l16,0m-448,1l16,0m416,0l16,0m-456,1l16,0m432,0l16,0m-464,1l16,0m432,0l16,0m-464,1l16,0m432,0l16,0m-464,1l16,0m432,0l16,0m-464,1l16,0m432,0l16,0m-464,1l16,0m432,0l16,0m-464,1l16,0m432,0l16,0m-464,1l16,0m432,0l16,0m-472,1l16,0m448,0l16,0m-480,1l16,0m448,0l16,0m-480,1l16,0m448,0l16,0m-480,1l16,0m448,0l16,0m-480,1l16,0m448,0l16,0m-480,1l16,0m448,0l16,0m-480,1l16,0m448,0l16,0m-480,1l16,0m448,0l16,0m-488,1l16,0m464,0l12,0m-492,1l16,0m464,0l12,0m-492,1l16,0m464,0l12,0m-492,1l16,0m464,0l12,0m-492,1l16,0m464,0l12,0m-492,1l16,0m464,0l12,0m-492,1l16,0m464,0l12,0m-492,1l16,0m464,0l12,0m-492,1l16,0m464,0l12,0m-492,1l16,0m464,0l12,0m-492,1l16,0m464,0l12,0m-492,1l16,0m464,0l12,0m-492,1l16,0m464,0l12,0m-492,1l16,0m464,0l12,0m-492,1l16,0m464,0l12,0m-492,1l16,0m464,0l12,0m-492,1l16,0m464,0l12,0m-492,1l16,0m464,0l12,0m-492,1l16,0m464,0l12,0m-492,1l16,0m464,0l12,0m-492,1l16,0m464,0l12,0m-492,1l16,0m464,0l12,0m-492,1l16,0m464,0l12,0m-492,1l16,0m464,0l12,0m-492,1l16,0m464,0l12,0m-492,1l16,0m464,0l12,0m-492,1l16,0m464,0l12,0m-492,1l16,0m464,0l12,0m-492,1l16,0m464,0l12,0m-492,1l16,0m464,0l12,0m-492,1l16,0m464,0l12,0m-492,1l16,0m464,0l12,0m-492,1l16,0m464,0l12,0m-492,1l16,0m464,0l12,0m-492,1l16,0m464,0l12,0m-492,1l16,0m464,0l12,0m-492,1l16,0m464,0l12,0m-492,1l16,0m464,0l12,0m-492,1l16,0m464,0l12,0m-492,1l16,0m464,0l12,0m-492,1l16,0m464,0l12,0m-492,1l16,0m464,0l12,0m-492,1l16,0m464,0l12,0m-492,1l16,0m464,0l12,0m-492,1l16,0m464,0l12,0m-492,1l16,0m464,0l12,0m-492,1l16,0m464,0l12,0m-492,1l16,0m464,0l12,0m-492,1l16,0m464,0l12,0m-492,1l16,0m464,0l12,0m-492,1l16,0m464,0l12,0m-492,1l16,0m464,0l12,0m-492,1l16,0m464,0l12,0m-492,1l16,0m464,0l12,0m-492,1l16,0m464,0l12,0m-492,1l16,0m464,0l12,0m-492,1l16,0m464,0l12,0m-492,1l16,0m464,0l12,0m-492,1l16,0m464,0l12,0m-492,1l16,0m464,0l12,0m-492,1l16,0m464,0l12,0m-492,1l16,0m464,0l12,0m-492,1l16,0m464,0l12,0m-492,1l16,0m464,0l12,0m-492,1l16,0m464,0l12,0m-492,1l16,0m464,0l12,0m-492,1l16,0m464,0l12,0m-492,1l16,0m464,0l12,0m-492,1l16,0m464,0l12,0m-492,1l16,0m464,0l12,0m-492,1l16,0m464,0l12,0m-492,1l16,0m464,0l12,0m-492,1l16,0m464,0l12,0m-492,1l16,0m464,0l12,0m-492,1l16,0m464,0l12,0m-492,1l16,0m464,0l12,0m-492,1l16,0m464,0l12,0m-492,1l16,0m464,0l12,0m-492,1l16,0m464,0l12,0m-492,1l16,0m464,0l12,0m-492,1l16,0m464,0l12,0m-492,1l16,0m464,0l12,0m-492,1l16,0m464,0l12,0m-492,1l16,0m464,0l12,0m-492,1l16,0m464,0l12,0m-492,1l16,0m464,0l12,0m-492,1l16,0m464,0l12,0m-492,1l16,0m464,0l12,0m-492,1l16,0m464,0l12,0m-492,1l16,0m464,0l12,0m-492,1l16,0m464,0l12,0m-492,1l16,0m464,0l12,0m-492,1l16,0m464,0l12,0m-492,1l16,0m464,0l12,0m-492,1l16,0m464,0l12,0m-492,1l16,0m464,0l12,0m-492,1l16,0m464,0l12,0m-492,1l16,0m464,0l12,0m-492,1l16,0m464,0l12,0m-492,1l16,0m464,0l12,0m-492,1l16,0m464,0l12,0m-492,1l16,0m464,0l12,0m-492,1l16,0m464,0l12,0m-492,1l16,0m464,0l12,0m-492,1l16,0m464,0l12,0m-492,1l16,0m464,0l12,0m-492,1l16,0m464,0l12,0m-492,1l16,0m464,0l12,0m-492,1l16,0m464,0l12,0m-492,1l16,0m464,0l12,0m-492,1l16,0m464,0l12,0m-492,1l16,0m464,0l12,0m-492,1l16,0m464,0l12,0m-492,1l16,0m464,0l12,0m-492,1l16,0m464,0l12,0m-492,1l16,0m464,0l12,0m-492,1l16,0m464,0l12,0m-492,1l16,0m464,0l12,0m-492,1l16,0m464,0l12,0m-492,1l16,0m464,0l12,0m-492,1l16,0m464,0l12,0m-492,1l16,0m464,0l12,0m-492,1l16,0m464,0l12,0m-492,1l16,0m464,0l12,0m-492,1l16,0m464,0l12,0m-492,1l16,0m464,0l12,0m-492,1l16,0m464,0l12,0m-492,1l16,0m464,0l12,0m-492,1l16,0m464,0l12,0m-492,1l16,0m464,0l12,0m-492,1l16,0m464,0l12,0m-492,1l16,0m464,0l12,0m-492,1l16,0m464,0l12,0m-492,1l16,0m464,0l12,0m-492,1l16,0m464,0l12,0m-492,1l16,0m464,0l12,0m-492,1l16,0m464,0l12,0m-492,1l16,0m464,0l12,0m-492,1l16,0m464,0l12,0m-492,1l16,0m464,0l12,0m-492,1l16,0m464,0l12,0m-492,1l16,0m464,0l12,0m-492,1l16,0m464,0l12,0m-492,1l16,0m464,0l12,0m-492,1l16,0m464,0l12,0m-492,1l16,0m464,0l12,0m-492,1l16,0m464,0l12,0m-492,1l16,0m464,0l12,0m-492,1l16,0m464,0l12,0m-492,1l16,0m464,0l12,0m-492,1l16,0m464,0l12,0m-492,1l16,0m464,0l12,0m-492,1l16,0m464,0l12,0m-492,1l16,0m464,0l12,0m-492,1l16,0m464,0l12,0m-492,1l16,0m464,0l12,0m-492,1l16,0m464,0l12,0m-492,1l16,0m464,0l12,0m-492,1l16,0m464,0l12,0m-492,1l16,0m464,0l12,0m-492,1l16,0m464,0l12,0m-492,1l16,0m464,0l12,0m-492,1l16,0m464,0l12,0m-492,1l16,0m464,0l12,0m-492,1l16,0m464,0l12,0m-492,1l16,0m464,0l12,0m-492,1l16,0m464,0l12,0m-492,1l16,0m464,0l12,0m-484,1l16,0m448,0l16,0m-480,1l16,0m448,0l16,0m-480,1l16,0m448,0l16,0m-480,1l16,0m448,0l16,0m-480,1l16,0m448,0l16,0m-480,1l16,0m448,0l16,0m-480,1l16,0m448,0l16,0m-480,1l16,0m448,0l16,0m-472,1l16,0m432,0l16,0m-464,1l16,0m432,0l16,0m-464,1l16,0m432,0l16,0m-464,1l16,0m432,0l16,0m-464,1l16,0m432,0l16,0m-464,1l16,0m432,0l16,0m-464,1l16,0m432,0l16,0m-464,1l16,0m432,0l16,0m-456,1l16,0m416,0l16,0m-448,1l16,0m416,0l16,0m-448,1l16,0m416,0l16,0m-448,1l16,0m416,0l16,0m-448,1l16,0m416,0l16,0m-448,1l16,0m416,0l16,0m-448,1l16,0m416,0l16,0m-448,1l16,0m416,0l16,0m-440,1l16,0m400,0l16,0m-432,1l16,0m400,0l16,0m-432,1l16,0m400,0l16,0m-432,1l16,0m400,0l16,0m-432,1l16,0m400,0l16,0m-432,1l16,0m400,0l16,0m-432,1l16,0m400,0l16,0m-432,1l16,0m400,0l16,0m-424,1l12,0m388,0l16,0m-416,1l12,0m388,0l16,0m-416,1l12,0m388,0l16,0m-416,1l12,0m388,0l16,0m-416,1l12,0m388,0l16,0m-416,1l12,0m388,0l16,0m-416,1l12,0m388,0l16,0m-416,1l12,0m388,0l16,0m-408,1l400,0m-400,1l400,0m-400,1l400,0m-400,1l400,0m-400,1l400,0m-400,1l400,0m-400,1l400,0m-400,1l400,0" id="svg_3"/>
   <path stroke="#2e053d" d="m-44,133l400,0m-400,1l400,0m-400,1l400,0m-400,1l400,0m-400,1l400,0m-400,1l400,0m-400,1l400,0m-400,1l400,0m-408,1l24,0m368,0l24,0m-416,1l24,0m368,0l24,0m-416,1l24,0m368,0l24,0m-416,1l24,0m368,0l24,0m-416,1l24,0m368,0l24,0m-416,1l24,0m368,0l24,0m-416,1l24,0m368,0l24,0m-416,1l24,0m368,0l24,0m-424,1l20,0m388,0l24,0m-432,1l20,0m388,0l24,0m-432,1l20,0m388,0l24,0m-432,1l20,0m388,0l24,0m-432,1l20,0m388,0l24,0m-432,1l20,0m388,0l24,0m-432,1l20,0m388,0l24,0m-432,1l20,0m388,0l24,0m-440,1l24,0m400,0l24,0m-448,1l24,0m400,0l24,0m-448,1l24,0m400,0l24,0m-448,1l24,0m400,0l24,0m-448,1l24,0m400,0l24,0m-448,1l24,0m400,0l24,0m-448,1l24,0m400,0l24,0m-448,1l24,0m400,0l24,0m-456,1l24,0m416,0l24,0m-464,1l24,0m416,0l24,0m-464,1l24,0m416,0l24,0m-464,1l24,0m416,0l24,0m-464,1l24,0m416,0l24,0m-464,1l24,0m416,0l24,0m-464,1l24,0m416,0l24,0m-464,1l24,0m416,0l24,0m-464,1l24,0m416,0l24,0m-464,1l24,0m416,0l24,0m-464,1l24,0m416,0l24,0m-464,1l24,0m416,0l24,0m-464,1l24,0m416,0l24,0m-464,1l24,0m416,0l24,0m-464,1l24,0m416,0l24,0m-464,1l24,0m416,0l24,0m-464,1l24,0m416,0l24,0m-464,1l24,0m416,0l24,0m-464,1l24,0m416,0l24,0m-464,1l24,0m416,0l24,0m-464,1l24,0m416,0l24,0m-464,1l24,0m416,0l24,0m-464,1l24,0m416,0l24,0m-464,1l24,0m416,0l24,0m-464,1l24,0m416,0l24,0m-464,1l24,0m416,0l24,0m-464,1l24,0m416,0l24,0m-464,1l24,0m416,0l24,0m-464,1l24,0m416,0l24,0m-464,1l24,0m416,0l24,0m-464,1l24,0m416,0l24,0m-464,1l24,0m416,0l24,0m-464,1l24,0m416,0l24,0m-464,1l24,0m416,0l24,0m-464,1l24,0m416,0l24,0m-464,1l24,0m416,0l24,0m-464,1l24,0m416,0l24,0m-464,1l24,0m416,0l24,0m-464,1l24,0m416,0l24,0m-464,1l24,0m416,0l24,0m-464,1l24,0m416,0l24,0m-464,1l24,0m416,0l24,0m-464,1l24,0m416,0l24,0m-464,1l24,0m416,0l24,0m-464,1l24,0m416,0l24,0m-464,1l24,0m416,0l24,0m-464,1l24,0m416,0l24,0m-464,1l24,0m416,0l24,0m-464,1l24,0m416,0l24,0m-464,1l24,0m416,0l24,0m-464,1l24,0m416,0l24,0m-464,1l24,0m416,0l24,0m-464,1l24,0m416,0l24,0m-464,1l24,0m416,0l24,0m-464,1l24,0m416,0l24,0m-464,1l24,0m416,0l24,0m-464,1l24,0m416,0l24,0m-464,1l24,0m416,0l24,0m-464,1l24,0m416,0l24,0m-464,1l24,0m416,0l24,0m-464,1l24,0m416,0l24,0m-464,1l24,0m416,0l24,0m-464,1l24,0m416,0l24,0m-464,1l24,0m416,0l24,0m-464,1l24,0m416,0l24,0m-464,1l24,0m416,0l24,0m-464,1l24,0m416,0l24,0m-464,1l24,0m416,0l24,0m-464,1l24,0m416,0l24,0m-464,1l24,0m416,0l24,0m-464,1l24,0m416,0l24,0m-464,1l24,0m416,0l24,0m-464,1l24,0m416,0l24,0m-464,1l24,0m416,0l24,0m-464,1l24,0m416,0l24,0m-464,1l24,0m416,0l24,0m-464,1l24,0m416,0l24,0m-464,1l24,0m416,0l24,0m-464,1l24,0m416,0l24,0m-464,1l24,0m416,0l24,0m-464,1l24,0m416,0l24,0m-464,1l24,0m416,0l24,0m-464,1l24,0m416,0l24,0m-464,1l24,0m416,0l24,0m-464,1l24,0m416,0l24,0m-464,1l24,0m416,0l24,0m-464,1l24,0m416,0l24,0m-464,1l24,0m416,0l24,0m-464,1l24,0m416,0l24,0m-464,1l24,0m416,0l24,0m-464,1l24,0m416,0l24,0m-464,1l24,0m416,0l24,0m-464,1l24,0m416,0l24,0m-464,1l24,0m416,0l24,0m-464,1l24,0m416,0l24,0m-464,1l24,0m416,0l24,0m-464,1l24,0m416,0l24,0m-464,1l24,0m416,0l24,0m-464,1l24,0m416,0l24,0m-464,1l24,0m416,0l24,0m-464,1l24,0m416,0l24,0m-464,1l24,0m416,0l24,0m-464,1l24,0m416,0l24,0m-464,1l24,0m416,0l24,0m-464,1l24,0m416,0l24,0m-464,1l24,0m416,0l24,0m-464,1l24,0m416,0l24,0m-464,1l24,0m416,0l24,0m-464,1l24,0m416,0l24,0m-464,1l24,0m416,0l24,0m-464,1l24,0m416,0l24,0m-464,1l24,0m416,0l24,0m-464,1l24,0m416,0l24,0m-464,1l24,0m416,0l24,0m-464,1l24,0m416,0l24,0m-464,1l24,0m416,0l24,0m-464,1l24,0m416,0l24,0m-464,1l24,0m416,0l24,0m-464,1l24,0m416,0l24,0m-464,1l24,0m416,0l24,0m-464,1l24,0m416,0l24,0m-464,1l24,0m416,0l24,0m-464,1l24,0m416,0l24,0m-464,1l24,0m416,0l24,0m-464,1l24,0m416,0l24,0m-464,1l24,0m416,0l24,0m-464,1l24,0m416,0l24,0m-464,1l24,0m416,0l24,0m-464,1l24,0m416,0l24,0m-464,1l24,0m416,0l24,0m-464,1l24,0m416,0l24,0m-464,1l24,0m416,0l24,0m-464,1l24,0m416,0l24,0m-464,1l24,0m416,0l24,0m-464,1l24,0m416,0l24,0m-464,1l24,0m416,0l24,0m-464,1l24,0m416,0l24,0m-464,1l24,0m416,0l24,0m-464,1l24,0m416,0l24,0m-464,1l24,0m416,0l24,0m-464,1l24,0m416,0l24,0m-464,1l24,0m416,0l24,0m-464,1l24,0m416,0l24,0m-464,1l24,0m416,0l24,0m-464,1l24,0m416,0l24,0m-464,1l24,0m416,0l24,0m-464,1l24,0m416,0l24,0m-464,1l24,0m416,0l24,0m-464,1l24,0m416,0l24,0m-464,1l24,0m416,0l24,0m-464,1l24,0m416,0l24,0m-464,1l24,0m416,0l24,0m-464,1l24,0m416,0l24,0m-464,1l24,0m416,0l24,0m-464,1l24,0m416,0l24,0m-464,1l24,0m416,0l24,0m-464,1l24,0m416,0l24,0m-464,1l24,0m416,0l24,0m-464,1l24,0m416,0l24,0m-464,1l24,0m416,0l24,0m-464,1l24,0m416,0l24,0m-464,1l24,0m416,0l24,0m-464,1l24,0m416,0l24,0m-464,1l24,0m416,0l24,0m-464,1l24,0m416,0l24,0m-464,1l24,0m416,0l24,0m-464,1l24,0m416,0l24,0m-464,1l24,0m416,0l24,0m-456,1l16,0m416,0l16,0m-448,1l16,0m416,0l16,0m-448,1l16,0m416,0l16,0m-448,1l16,0m416,0l16,0m-448,1l16,0m416,0l16,0m-448,1l16,0m416,0l16,0m-448,1l16,0m416,0l16,0m-448,1l16,0m416,0l16,0m-440,1l16,0m400,0l16,0m-432,1l16,0m400,0l16,0m-432,1l16,0m400,0l16,0m-432,1l16,0m400,0l16,0m-432,1l16,0m400,0l16,0m-432,1l16,0m400,0l16,0m-432,1l16,0m400,0l16,0m-432,1l16,0m400,0l16,0m-424,1l24,0m376,0l16,0m-416,1l24,0m376,0l16,0m-416,1l24,0m376,0l16,0m-416,1l24,0m376,0l16,0m-416,1l24,0m376,0l16,0m-416,1l24,0m376,0l16,0m-416,1l24,0m376,0l16,0m-416,1l24,0m376,0l16,0m-408,1l24,0m360,0l16,0m-400,1l24,0m360,0l16,0m-400,1l24,0m360,0l16,0m-400,1l24,0m360,0l16,0m-400,1l24,0m360,0l16,0m-400,1l24,0m360,0l16,0m-400,1l24,0m360,0l16,0m-400,1l24,0m360,0l16,0m-396,1l388,0m-388,1l388,0m-388,1l388,0m-388,1l388,0m-388,1l388,0m-388,1l388,0m-388,1l388,0m-388,1l388,0" id="svg_4"/>
   <path stroke="#37053b" d="m-28,141l368,0m-368,1l368,0m-368,1l368,0m-368,1l368,0m-368,1l368,0m-368,1l368,0m-368,1l368,0m-368,1l368,0m-380,1l20,0m352,0l16,0m-388,1l20,0m352,0l16,0m-388,1l20,0m352,0l16,0m-388,1l20,0m352,0l16,0m-388,1l20,0m352,0l16,0m-388,1l20,0m352,0l16,0m-388,1l20,0m352,0l16,0m-388,1l20,0m352,0l16,0m-392,1l16,0m368,0l16,0m-400,1l16,0m368,0l16,0m-400,1l16,0m368,0l16,0m-400,1l16,0m368,0l16,0m-400,1l16,0m368,0l16,0m-400,1l16,0m368,0l16,0m-400,1l16,0m368,0l16,0m-400,1l16,0m368,0l16,0m-408,1l12,0m388,0l16,0m-416,1l12,0m388,0l16,0m-416,1l12,0m388,0l16,0m-416,1l12,0m388,0l16,0m-416,1l12,0m388,0l16,0m-416,1l12,0m388,0l16,0m-416,1l12,0m388,0l16,0m-416,1l12,0m388,0l16,0m-416,1l12,0m388,0l16,0m-416,1l12,0m388,0l16,0m-416,1l12,0m388,0l16,0m-416,1l12,0m388,0l16,0m-416,1l12,0m388,0l16,0m-416,1l12,0m388,0l16,0m-416,1l12,0m388,0l16,0m-416,1l12,0m388,0l16,0m-416,1l12,0m388,0l16,0m-416,1l12,0m388,0l16,0m-416,1l12,0m388,0l16,0m-416,1l12,0m388,0l16,0m-416,1l12,0m388,0l16,0m-416,1l12,0m388,0l16,0m-416,1l12,0m388,0l16,0m-416,1l12,0m388,0l16,0m-416,1l12,0m388,0l16,0m-416,1l12,0m388,0l16,0m-416,1l12,0m388,0l16,0m-416,1l12,0m388,0l16,0m-416,1l12,0m388,0l16,0m-416,1l12,0m388,0l16,0m-416,1l12,0m388,0l16,0m-416,1l12,0m388,0l16,0m-416,1l12,0m388,0l16,0m-416,1l12,0m388,0l16,0m-416,1l12,0m388,0l16,0m-416,1l12,0m388,0l16,0m-416,1l12,0m388,0l16,0m-416,1l12,0m388,0l16,0m-416,1l12,0m388,0l16,0m-416,1l12,0m388,0l16,0m-416,1l12,0m388,0l16,0m-416,1l12,0m388,0l16,0m-416,1l12,0m388,0l16,0m-416,1l12,0m388,0l16,0m-416,1l12,0m388,0l16,0m-416,1l12,0m388,0l16,0m-416,1l12,0m388,0l16,0m-416,1l12,0m388,0l16,0m-416,1l12,0m388,0l16,0m-416,1l12,0m388,0l16,0m-416,1l12,0m388,0l16,0m-416,1l12,0m388,0l16,0m-416,1l12,0m388,0l16,0m-416,1l12,0m388,0l16,0m-416,1l12,0m388,0l16,0m-416,1l12,0m388,0l16,0m-416,1l12,0m388,0l16,0m-416,1l12,0m388,0l16,0m-416,1l12,0m388,0l16,0m-416,1l12,0m388,0l16,0m-416,1l12,0m388,0l16,0m-416,1l12,0m388,0l16,0m-416,1l12,0m388,0l16,0m-416,1l12,0m388,0l16,0m-416,1l12,0m388,0l16,0m-416,1l12,0m388,0l16,0m-416,1l12,0m388,0l16,0m-416,1l12,0m388,0l16,0m-416,1l12,0m388,0l16,0m-416,1l12,0m388,0l16,0m-416,1l12,0m388,0l16,0m-416,1l12,0m388,0l16,0m-416,1l12,0m388,0l16,0m-416,1l12,0m388,0l16,0m-416,1l12,0m388,0l16,0m-416,1l12,0m388,0l16,0m-416,1l12,0m388,0l16,0m-416,1l12,0m388,0l16,0m-416,1l12,0m388,0l16,0m-416,1l12,0m388,0l16,0m-416,1l12,0m388,0l16,0m-416,1l12,0m388,0l16,0m-416,1l12,0m388,0l16,0m-416,1l12,0m388,0l16,0m-416,1l12,0m388,0l16,0m-416,1l12,0m388,0l16,0m-416,1l12,0m388,0l16,0m-416,1l12,0m388,0l16,0m-416,1l12,0m388,0l16,0m-416,1l12,0m388,0l16,0m-416,1l12,0m388,0l16,0m-416,1l12,0m388,0l16,0m-416,1l12,0m388,0l16,0m-416,1l12,0m388,0l16,0m-416,1l12,0m388,0l16,0m-416,1l12,0m388,0l16,0m-416,1l12,0m388,0l16,0m-416,1l12,0m388,0l16,0m-416,1l12,0m388,0l16,0m-416,1l12,0m388,0l16,0m-416,1l12,0m388,0l16,0m-416,1l12,0m388,0l16,0m-416,1l12,0m388,0l16,0m-416,1l12,0m388,0l16,0m-416,1l12,0m388,0l16,0m-416,1l12,0m388,0l16,0m-416,1l12,0m388,0l16,0m-416,1l12,0m388,0l16,0m-416,1l12,0m388,0l16,0m-416,1l12,0m388,0l16,0m-416,1l12,0m388,0l16,0m-416,1l12,0m388,0l16,0m-416,1l12,0m388,0l16,0m-416,1l12,0m388,0l16,0m-416,1l12,0m388,0l16,0m-416,1l12,0m388,0l16,0m-416,1l12,0m388,0l16,0m-416,1l12,0m388,0l16,0m-416,1l12,0m388,0l16,0m-416,1l12,0m388,0l16,0m-416,1l12,0m388,0l16,0m-416,1l12,0m388,0l16,0m-416,1l12,0m388,0l16,0m-416,1l12,0m388,0l16,0m-416,1l12,0m388,0l16,0m-416,1l12,0m388,0l16,0m-416,1l12,0m388,0l16,0m-416,1l12,0m388,0l16,0m-416,1l12,0m388,0l16,0m-416,1l12,0m388,0l16,0m-416,1l12,0m388,0l16,0m-416,1l12,0m388,0l16,0m-416,1l12,0m388,0l16,0m-416,1l12,0m388,0l16,0m-416,1l12,0m388,0l16,0m-416,1l12,0m388,0l16,0m-416,1l12,0m388,0l16,0m-416,1l12,0m388,0l16,0m-416,1l12,0m388,0l16,0m-416,1l12,0m388,0l16,0m-416,1l12,0m388,0l16,0m-416,1l12,0m388,0l16,0m-416,1l12,0m388,0l16,0m-416,1l12,0m388,0l16,0m-416,1l12,0m388,0l16,0m-416,1l12,0m388,0l16,0m-416,1l12,0m388,0l16,0m-416,1l12,0m388,0l16,0m-416,1l12,0m388,0l16,0m-416,1l12,0m388,0l16,0m-416,1l12,0m388,0l16,0m-416,1l12,0m388,0l16,0m-416,1l12,0m388,0l16,0m-416,1l12,0m388,0l16,0m-416,1l12,0m388,0l16,0m-416,1l12,0m388,0l16,0m-416,1l12,0m388,0l16,0m-416,1l12,0m388,0l16,0m-416,1l12,0m388,0l16,0m-416,1l12,0m388,0l16,0m-416,1l12,0m388,0l16,0m-416,1l12,0m388,0l16,0m-416,1l12,0m388,0l16,0m-416,1l12,0m388,0l16,0m-416,1l12,0m388,0l16,0m-416,1l12,0m388,0l16,0m-416,1l12,0m388,0l16,0m-416,1l12,0m388,0l16,0m-416,1l24,0m376,0l16,0m-416,1l24,0m376,0l16,0m-416,1l24,0m376,0l16,0m-416,1l24,0m376,0l16,0m-416,1l24,0m376,0l16,0m-416,1l24,0m376,0l16,0m-416,1l24,0m376,0l16,0m-416,1l24,0m376,0l16,0m-408,1l24,0m360,0l16,0m-400,1l24,0m360,0l16,0m-400,1l24,0m360,0l16,0m-400,1l24,0m360,0l16,0m-400,1l24,0m360,0l16,0m-400,1l24,0m360,0l16,0m-400,1l24,0m360,0l16,0m-400,1l24,0m360,0l16,0m-384,1l376,0m-376,1l376,0m-376,1l376,0m-376,1l376,0m-376,1l376,0m-376,1l376,0m-376,1l376,0m-376,1l376,0m-368,1l360,0m-360,1l360,0m-360,1l360,0m-360,1l360,0m-360,1l360,0m-360,1l360,0m-360,1l360,0m-360,1l360,0" id="svg_5"/>
   <path stroke="#400638" d="m-20,149l352,0m-352,1l352,0m-352,1l352,0m-352,1l352,0m-352,1l352,0m-352,1l352,0m-352,1l352,0m-352,1l352,0m-360,1l24,0m328,0l16,0m-368,1l24,0m328,0l16,0m-368,1l24,0m328,0l16,0m-368,1l24,0m328,0l16,0m-368,1l24,0m328,0l16,0m-368,1l24,0m328,0l16,0m-368,1l24,0m328,0l16,0m-368,1l24,0m328,0l16,0m-380,1l28,0m344,0l16,0m-388,1l28,0m344,0l16,0m-388,1l28,0m344,0l16,0m-388,1l28,0m344,0l16,0m-388,1l28,0m344,0l16,0m-388,1l28,0m344,0l16,0m-388,1l28,0m344,0l16,0m-388,1l28,0m344,0l16,0m-388,1l20,0m352,0l16,0m-388,1l20,0m352,0l16,0m-388,1l20,0m352,0l16,0m-388,1l20,0m352,0l16,0m-388,1l20,0m352,0l16,0m-388,1l20,0m352,0l16,0m-388,1l20,0m352,0l16,0m-388,1l20,0m352,0l16,0m-388,1l20,0m352,0l16,0m-388,1l20,0m352,0l16,0m-388,1l20,0m352,0l16,0m-388,1l20,0m352,0l16,0m-388,1l20,0m352,0l16,0m-388,1l20,0m352,0l16,0m-388,1l20,0m352,0l16,0m-388,1l20,0m352,0l16,0m-388,1l20,0m352,0l16,0m-388,1l20,0m352,0l16,0m-388,1l20,0m352,0l16,0m-388,1l20,0m352,0l16,0m-388,1l20,0m352,0l16,0m-388,1l20,0m352,0l16,0m-388,1l20,0m352,0l16,0m-388,1l20,0m352,0l16,0m-388,1l20,0m352,0l16,0m-388,1l20,0m352,0l16,0m-388,1l20,0m352,0l16,0m-388,1l20,0m352,0l16,0m-388,1l20,0m352,0l16,0m-388,1l20,0m352,0l16,0m-388,1l20,0m352,0l16,0m-388,1l20,0m352,0l16,0m-388,1l20,0m352,0l16,0m-388,1l20,0m352,0l16,0m-388,1l20,0m352,0l16,0m-388,1l20,0m352,0l16,0m-388,1l20,0m352,0l16,0m-388,1l20,0m352,0l16,0m-388,1l20,0m352,0l16,0m-388,1l20,0m352,0l16,0m-388,1l20,0m352,0l16,0m-388,1l20,0m352,0l16,0m-388,1l20,0m352,0l16,0m-388,1l20,0m352,0l16,0m-388,1l20,0m352,0l16,0m-388,1l20,0m352,0l16,0m-388,1l20,0m352,0l16,0m-388,1l20,0m352,0l16,0m-388,1l20,0m352,0l16,0m-388,1l20,0m352,0l16,0m-388,1l20,0m352,0l16,0m-388,1l20,0m352,0l16,0m-388,1l20,0m352,0l16,0m-388,1l20,0m352,0l16,0m-388,1l20,0m352,0l16,0m-388,1l20,0m352,0l16,0m-388,1l20,0m352,0l16,0m-388,1l20,0m352,0l16,0m-388,1l20,0m352,0l16,0m-388,1l20,0m352,0l16,0m-388,1l20,0m352,0l16,0m-388,1l20,0m352,0l16,0m-388,1l20,0m352,0l16,0m-388,1l20,0m352,0l16,0m-388,1l20,0m352,0l16,0m-388,1l20,0m352,0l16,0m-388,1l20,0m352,0l16,0m-388,1l20,0m352,0l16,0m-388,1l20,0m352,0l16,0m-388,1l20,0m352,0l16,0m-388,1l20,0m352,0l16,0m-388,1l20,0m352,0l16,0m-388,1l20,0m352,0l16,0m-388,1l20,0m352,0l16,0m-388,1l20,0m352,0l16,0m-388,1l20,0m352,0l16,0m-388,1l20,0m352,0l16,0m-388,1l20,0m352,0l16,0m-388,1l20,0m352,0l16,0m-388,1l20,0m352,0l16,0m-388,1l20,0m352,0l16,0m-388,1l20,0m352,0l16,0m-388,1l20,0m352,0l16,0m-388,1l20,0m352,0l16,0m-388,1l20,0m352,0l16,0m-388,1l20,0m352,0l16,0m-388,1l20,0m352,0l16,0m-388,1l20,0m352,0l16,0m-388,1l20,0m352,0l16,0m-388,1l20,0m352,0l16,0m-388,1l20,0m352,0l16,0m-388,1l20,0m352,0l16,0m-388,1l20,0m352,0l16,0m-388,1l20,0m352,0l16,0m-388,1l20,0m352,0l16,0m-388,1l20,0m352,0l16,0m-388,1l20,0m352,0l16,0m-388,1l20,0m352,0l16,0m-388,1l20,0m352,0l16,0m-388,1l20,0m352,0l16,0m-388,1l20,0m352,0l16,0m-388,1l20,0m352,0l16,0m-388,1l20,0m352,0l16,0m-388,1l20,0m352,0l16,0m-388,1l20,0m352,0l16,0m-388,1l20,0m352,0l16,0m-388,1l20,0m352,0l16,0m-388,1l20,0m352,0l16,0m-388,1l20,0m352,0l16,0m-388,1l20,0m352,0l16,0m-388,1l20,0m352,0l16,0m-388,1l20,0m352,0l16,0m-388,1l20,0m352,0l16,0m-388,1l20,0m352,0l16,0m-388,1l20,0m352,0l16,0m-388,1l20,0m352,0l16,0m-388,1l20,0m352,0l16,0m-388,1l20,0m352,0l16,0m-388,1l20,0m352,0l16,0m-388,1l20,0m352,0l16,0m-388,1l20,0m352,0l16,0m-388,1l20,0m352,0l16,0m-388,1l20,0m352,0l16,0m-388,1l20,0m352,0l16,0m-388,1l20,0m352,0l16,0m-388,1l20,0m352,0l16,0m-388,1l20,0m352,0l16,0m-388,1l20,0m352,0l16,0m-388,1l20,0m352,0l16,0m-388,1l20,0m352,0l16,0m-388,1l20,0m352,0l16,0m-388,1l20,0m352,0l16,0m-388,1l20,0m352,0l16,0m-388,1l20,0m352,0l16,0m-388,1l20,0m352,0l16,0m-388,1l20,0m352,0l16,0m-388,1l20,0m352,0l16,0m-388,1l20,0m352,0l16,0m-388,1l20,0m352,0l16,0m-388,1l20,0m352,0l16,0m-388,1l20,0m352,0l16,0m-388,1l20,0m352,0l16,0m-388,1l20,0m352,0l16,0m-388,1l20,0m352,0l16,0m-388,1l20,0m352,0l16,0m-388,1l20,0m352,0l16,0m-388,1l20,0m352,0l16,0m-388,1l20,0m352,0l16,0m-388,1l20,0m352,0l16,0m-388,1l20,0m352,0l16,0m-388,1l20,0m352,0l16,0m-388,1l20,0m352,0l16,0m-388,1l20,0m352,0l16,0m-388,1l20,0m352,0l16,0m-388,1l20,0m352,0l16,0m-388,1l20,0m352,0l16,0m-388,1l20,0m352,0l16,0m-388,1l20,0m352,0l16,0m-388,1l20,0m352,0l16,0m-388,1l20,0m352,0l16,0m-376,1l16,0m336,0l24,0m-376,1l16,0m336,0l24,0m-376,1l16,0m336,0l24,0m-376,1l16,0m336,0l24,0m-376,1l16,0m336,0l24,0m-376,1l16,0m336,0l24,0m-376,1l16,0m336,0l24,0m-376,1l16,0m336,0l24,0m-368,1l360,0m-360,1l360,0m-360,1l360,0m-360,1l360,0m-360,1l360,0m-360,1l360,0m-360,1l360,0m-360,1l360,0" id="svg_6"/>
   <path stroke="#4a0636" d="m-4,157l328,0m-328,1l328,0m-328,1l328,0m-328,1l328,0m-328,1l328,0m-328,1l328,0m-328,1l328,0m-328,1l328,0m-336,1l16,0m312,0l16,0m-344,1l16,0m312,0l16,0m-344,1l16,0m312,0l16,0m-344,1l16,0m312,0l16,0m-344,1l16,0m312,0l16,0m-344,1l16,0m312,0l16,0m-344,1l16,0m312,0l16,0m-344,1l16,0m312,0l16,0m-352,1l24,0m312,0l16,0m-352,1l24,0m312,0l16,0m-352,1l24,0m312,0l16,0m-352,1l24,0m312,0l16,0m-352,1l24,0m312,0l16,0m-352,1l24,0m312,0l16,0m-352,1l24,0m312,0l16,0m-352,1l24,0m312,0l16,0m-352,1l24,0m312,0l16,0m-352,1l24,0m312,0l16,0m-352,1l24,0m312,0l16,0m-352,1l24,0m312,0l16,0m-352,1l24,0m312,0l16,0m-352,1l24,0m312,0l16,0m-352,1l24,0m312,0l16,0m-352,1l24,0m312,0l16,0m-352,1l24,0m312,0l16,0m-352,1l24,0m312,0l16,0m-352,1l24,0m312,0l16,0m-352,1l24,0m312,0l16,0m-352,1l24,0m312,0l16,0m-352,1l24,0m312,0l16,0m-352,1l24,0m312,0l16,0m-352,1l24,0m312,0l16,0m-352,1l24,0m312,0l16,0m-352,1l24,0m312,0l16,0m-352,1l24,0m312,0l16,0m-352,1l24,0m312,0l16,0m-352,1l24,0m312,0l16,0m-352,1l24,0m312,0l16,0m-352,1l24,0m312,0l16,0m-352,1l24,0m312,0l16,0m-352,1l24,0m312,0l16,0m-352,1l24,0m312,0l16,0m-352,1l24,0m312,0l16,0m-352,1l24,0m312,0l16,0m-352,1l24,0m312,0l16,0m-352,1l24,0m312,0l16,0m-352,1l24,0m312,0l16,0m-352,1l24,0m312,0l16,0m-352,1l24,0m312,0l16,0m-352,1l24,0m312,0l16,0m-352,1l24,0m312,0l16,0m-352,1l24,0m312,0l16,0m-352,1l24,0m312,0l16,0m-352,1l24,0m312,0l16,0m-352,1l24,0m312,0l16,0m-352,1l24,0m312,0l16,0m-352,1l24,0m312,0l16,0m-352,1l24,0m312,0l16,0m-352,1l24,0m312,0l16,0m-352,1l24,0m312,0l16,0m-352,1l24,0m312,0l16,0m-352,1l24,0m312,0l16,0m-352,1l24,0m312,0l16,0m-352,1l24,0m312,0l16,0m-352,1l24,0m312,0l16,0m-352,1l24,0m312,0l16,0m-352,1l24,0m312,0l16,0m-352,1l24,0m312,0l16,0m-352,1l24,0m312,0l16,0m-352,1l24,0m312,0l16,0m-352,1l24,0m312,0l16,0m-352,1l24,0m312,0l16,0m-352,1l24,0m312,0l16,0m-352,1l24,0m312,0l16,0m-352,1l24,0m312,0l16,0m-352,1l24,0m312,0l16,0m-352,1l24,0m312,0l16,0m-352,1l24,0m312,0l16,0m-352,1l24,0m312,0l16,0m-352,1l24,0m312,0l16,0m-352,1l24,0m312,0l16,0m-352,1l24,0m312,0l16,0m-352,1l24,0m312,0l16,0m-352,1l24,0m312,0l16,0m-352,1l24,0m312,0l16,0m-352,1l24,0m312,0l16,0m-352,1l24,0m312,0l16,0m-352,1l24,0m312,0l16,0m-352,1l24,0m312,0l16,0m-352,1l24,0m312,0l16,0m-352,1l24,0m312,0l16,0m-352,1l24,0m312,0l16,0m-352,1l24,0m312,0l16,0m-352,1l24,0m312,0l16,0m-352,1l24,0m312,0l16,0m-352,1l24,0m312,0l16,0m-352,1l24,0m312,0l16,0m-352,1l24,0m312,0l16,0m-352,1l24,0m312,0l16,0m-352,1l24,0m312,0l16,0m-352,1l24,0m312,0l16,0m-352,1l24,0m312,0l16,0m-352,1l24,0m312,0l16,0m-352,1l24,0m312,0l16,0m-352,1l24,0m312,0l16,0m-352,1l24,0m312,0l16,0m-352,1l24,0m312,0l16,0m-352,1l24,0m312,0l16,0m-352,1l24,0m312,0l16,0m-352,1l24,0m312,0l16,0m-352,1l24,0m312,0l16,0m-352,1l24,0m312,0l16,0m-352,1l24,0m312,0l16,0m-352,1l24,0m312,0l16,0m-352,1l24,0m312,0l16,0m-352,1l24,0m312,0l16,0m-352,1l24,0m312,0l16,0m-352,1l24,0m312,0l16,0m-352,1l24,0m312,0l16,0m-352,1l24,0m312,0l16,0m-352,1l24,0m312,0l16,0m-352,1l24,0m312,0l16,0m-352,1l24,0m312,0l16,0m-352,1l24,0m312,0l16,0m-352,1l24,0m312,0l16,0m-352,1l24,0m312,0l16,0m-352,1l24,0m312,0l16,0m-352,1l24,0m312,0l16,0m-352,1l24,0m312,0l16,0m-352,1l24,0m312,0l16,0m-352,1l24,0m312,0l16,0m-352,1l24,0m312,0l16,0m-352,1l24,0m312,0l16,0m-352,1l24,0m312,0l16,0m-352,1l24,0m312,0l16,0m-352,1l24,0m312,0l16,0m-352,1l24,0m312,0l16,0m-352,1l24,0m312,0l16,0m-352,1l24,0m312,0l16,0m-352,1l24,0m312,0l16,0m-352,1l24,0m312,0l16,0m-352,1l24,0m312,0l16,0m-352,1l24,0m312,0l16,0m-352,1l24,0m312,0l16,0m-352,1l24,0m312,0l16,0m-352,1l24,0m312,0l16,0m-352,1l24,0m312,0l16,0m-352,1l24,0m312,0l16,0m-352,1l24,0m312,0l16,0m-352,1l24,0m312,0l16,0m-352,1l24,0m312,0l16,0m-352,1l24,0m312,0l16,0m-352,1l24,0m312,0l16,0m-352,1l24,0m312,0l16,0m-352,1l24,0m312,0l16,0m-352,1l24,0m312,0l16,0m-352,1l24,0m312,0l16,0m-352,1l24,0m312,0l16,0m-352,1l24,0m312,0l16,0m-352,1l24,0m312,0l16,0m-352,1l24,0m312,0l16,0m-352,1l24,0m312,0l16,0m-352,1l24,0m312,0l16,0m-352,1l24,0m312,0l16,0m-352,1l24,0m312,0l16,0m-352,1l24,0m312,0l16,0m-352,1l24,0m312,0l16,0m-352,1l24,0m312,0l16,0m-344,1l336,0m-336,1l336,0m-336,1l336,0m-336,1l336,0m-336,1l336,0m-336,1l336,0m-336,1l336,0m-336,1l336,0" id="svg_7"/>
   <path stroke="#530633" d="m4,165l312,0m-312,1l312,0m-312,1l312,0m-312,1l312,0m-312,1l312,0m-312,1l312,0m-312,1l312,0m-312,1l312,0m-312,1l88,0m128,0l96,0m-312,1l88,0m128,0l96,0m-312,1l88,0m128,0l96,0m-312,1l88,0m128,0l96,0m-312,1l88,0m128,0l96,0m-312,1l88,0m128,0l96,0m-312,1l88,0m128,0l96,0m-312,1l88,0m128,0l96,0m-312,1l80,0m144,0l88,0m-312,1l80,0m144,0l88,0m-312,1l80,0m144,0l88,0m-312,1l80,0m144,0l88,0m-312,1l80,0m144,0l88,0m-312,1l80,0m144,0l88,0m-312,1l80,0m144,0l88,0m-312,1l80,0m144,0l88,0m-312,1l72,0m168,0l72,0m-312,1l72,0m168,0l72,0m-312,1l72,0m168,0l72,0m-312,1l72,0m168,0l72,0m-312,1l72,0m168,0l72,0m-312,1l72,0m168,0l72,0m-312,1l72,0m168,0l72,0m-312,1l72,0m168,0l72,0m-312,1l56,0m192,0l64,0m-312,1l56,0m192,0l64,0m-312,1l56,0m192,0l64,0m-312,1l56,0m192,0l64,0m-312,1l56,0m192,0l64,0m-312,1l56,0m192,0l64,0m-312,1l56,0m192,0l64,0m-312,1l56,0m192,0l64,0m-312,1l48,0m208,0l56,0m-312,1l48,0m208,0l56,0m-312,1l48,0m208,0l56,0m-312,1l48,0m208,0l56,0m-312,1l48,0m208,0l56,0m-312,1l48,0m208,0l56,0m-312,1l48,0m208,0l56,0m-312,1l48,0m208,0l56,0m-312,1l40,0m224,0l48,0m-312,1l40,0m224,0l48,0m-312,1l40,0m224,0l48,0m-312,1l40,0m224,0l48,0m-312,1l40,0m224,0l48,0m-312,1l40,0m224,0l48,0m-312,1l40,0m224,0l48,0m-312,1l40,0m224,0l48,0m-312,1l28,0m244,0l40,0m-312,1l28,0m244,0l40,0m-312,1l28,0m244,0l40,0m-312,1l28,0m244,0l40,0m-312,1l28,0m244,0l40,0m-312,1l28,0m244,0l40,0m-312,1l28,0m244,0l40,0m-312,1l28,0m244,0l40,0m-312,1l24,0m256,0l32,0m-312,1l24,0m256,0l32,0m-312,1l24,0m256,0l32,0m-312,1l24,0m256,0l32,0m-312,1l24,0m256,0l32,0m-312,1l24,0m256,0l32,0m-312,1l24,0m256,0l32,0m-312,1l24,0m256,0l32,0m-312,1l16,0m272,0l24,0m-312,1l16,0m272,0l24,0m-312,1l16,0m272,0l24,0m-312,1l16,0m272,0l24,0m-312,1l16,0m272,0l24,0m-312,1l16,0m272,0l24,0m-312,1l16,0m272,0l24,0m-312,1l16,0m272,0l24,0m-312,1l16,0m272,0l24,0m-312,1l16,0m272,0l24,0m-312,1l16,0m272,0l24,0m-312,1l16,0m272,0l24,0m-312,1l16,0m272,0l24,0m-312,1l16,0m272,0l24,0m-312,1l16,0m272,0l24,0m-312,1l16,0m272,0l24,0m-312,1l16,0m272,0l24,0m-312,1l16,0m272,0l24,0m-312,1l16,0m272,0l24,0m-312,1l16,0m272,0l24,0m-312,1l16,0m272,0l24,0m-312,1l16,0m272,0l24,0m-312,1l16,0m272,0l24,0m-312,1l16,0m272,0l24,0m-312,1l16,0m272,0l24,0m-312,1l16,0m272,0l24,0m-312,1l16,0m272,0l24,0m-312,1l16,0m272,0l24,0m-312,1l16,0m272,0l24,0m-312,1l16,0m272,0l24,0m-312,1l16,0m272,0l24,0m-312,1l16,0m272,0l24,0m-312,1l24,0m256,0l32,0m-312,1l24,0m256,0l32,0m-312,1l24,0m256,0l32,0m-312,1l24,0m256,0l32,0m-312,1l24,0m256,0l32,0m-312,1l24,0m256,0l32,0m-312,1l24,0m256,0l32,0m-312,1l24,0m256,0l32,0m-312,1l28,0m244,0l40,0m-312,1l28,0m244,0l40,0m-312,1l28,0m244,0l40,0m-312,1l28,0m244,0l40,0m-312,1l28,0m244,0l40,0m-312,1l28,0m244,0l40,0m-312,1l28,0m244,0l40,0m-312,1l28,0m244,0l40,0m-312,1l40,0m224,0l48,0m-312,1l40,0m224,0l48,0m-312,1l40,0m224,0l48,0m-312,1l40,0m224,0l48,0m-312,1l40,0m224,0l48,0m-312,1l40,0m224,0l48,0m-312,1l40,0m224,0l48,0m-312,1l40,0m224,0l48,0m-312,1l56,0m200,0l56,0m-312,1l56,0m200,0l56,0m-312,1l56,0m200,0l56,0m-312,1l56,0m200,0l56,0m-312,1l56,0m200,0l56,0m-312,1l56,0m200,0l56,0m-312,1l56,0m200,0l56,0m-312,1l56,0m200,0l56,0m-312,1l64,0m184,0l64,0m-312,1l64,0m184,0l64,0m-312,1l64,0m184,0l64,0m-312,1l64,0m184,0l64,0m-312,1l64,0m184,0l64,0m-312,1l64,0m184,0l64,0m-312,1l64,0m184,0l64,0m-312,1l64,0m184,0l64,0m-312,1l72,0m160,0l80,0m-312,1l72,0m160,0l80,0m-312,1l72,0m160,0l80,0m-312,1l72,0m160,0l80,0m-312,1l72,0m160,0l80,0m-312,1l72,0m160,0l80,0m-312,1l72,0m160,0l80,0m-312,1l72,0m160,0l80,0m-312,1l80,0m144,0l88,0m-312,1l80,0m144,0l88,0m-312,1l80,0m144,0l88,0m-312,1l80,0m144,0l88,0m-312,1l80,0m144,0l88,0m-312,1l80,0m144,0l88,0m-312,1l80,0m144,0l88,0m-312,1l80,0m144,0l88,0m-312,1l312,0m-312,1l312,0m-312,1l312,0m-312,1l312,0m-312,1l312,0m-312,1l312,0m-312,1l312,0m-312,1l312,0" id="svg_8"/>
   <path stroke="#5c0730" d="m92,173l128,0m-128,1l128,0m-128,1l128,0m-128,1l128,0m-128,1l128,0m-128,1l128,0m-128,1l128,0m-128,1l128,0m-136,1l16,0m112,0l16,0m-144,1l16,0m112,0l16,0m-144,1l16,0m112,0l16,0m-144,1l16,0m112,0l16,0m-144,1l16,0m112,0l16,0m-144,1l16,0m112,0l16,0m-144,1l16,0m112,0l16,0m-144,1l16,0m112,0l16,0m-152,1l16,0m128,0l24,0m-168,1l16,0m128,0l24,0m-168,1l16,0m128,0l24,0m-168,1l16,0m128,0l24,0m-168,1l16,0m128,0l24,0m-168,1l16,0m128,0l24,0m-168,1l16,0m128,0l24,0m-168,1l16,0m128,0l24,0m-184,1l24,0m144,0l24,0m-192,1l24,0m144,0l24,0m-192,1l24,0m144,0l24,0m-192,1l24,0m144,0l24,0m-192,1l24,0m144,0l24,0m-192,1l24,0m144,0l24,0m-192,1l24,0m144,0l24,0m-192,1l24,0m144,0l24,0m-200,1l24,0m168,0l16,0m-208,1l24,0m168,0l16,0m-208,1l24,0m168,0l16,0m-208,1l24,0m168,0l16,0m-208,1l24,0m168,0l16,0m-208,1l24,0m168,0l16,0m-208,1l24,0m168,0l16,0m-208,1l24,0m168,0l16,0m-216,1l16,0m192,0l16,0m-224,1l16,0m192,0l16,0m-224,1l16,0m192,0l16,0m-224,1l16,0m192,0l16,0m-224,1l16,0m192,0l16,0m-224,1l16,0m192,0l16,0m-224,1l16,0m192,0l16,0m-224,1l16,0m192,0l16,0m-236,1l20,0m208,0l16,0m-244,1l20,0m208,0l16,0m-244,1l20,0m208,0l16,0m-244,1l20,0m208,0l16,0m-244,1l20,0m208,0l16,0m-244,1l20,0m208,0l16,0m-244,1l20,0m208,0l16,0m-244,1l20,0m208,0l16,0m-248,1l16,0m224,0l16,0m-256,1l16,0m224,0l16,0m-256,1l16,0m224,0l16,0m-256,1l16,0m224,0l16,0m-256,1l16,0m224,0l16,0m-256,1l16,0m224,0l16,0m-256,1l16,0m224,0l16,0m-256,1l16,0m224,0l16,0m-264,1l12,0m244,0l16,0m-272,1l12,0m244,0l16,0m-272,1l12,0m244,0l16,0m-272,1l12,0m244,0l16,0m-272,1l12,0m244,0l16,0m-272,1l12,0m244,0l16,0m-272,1l12,0m244,0l16,0m-272,1l12,0m244,0l16,0m-272,1l12,0m244,0l16,0m-272,1l12,0m244,0l16,0m-272,1l12,0m244,0l16,0m-272,1l12,0m244,0l16,0m-272,1l12,0m244,0l16,0m-272,1l12,0m244,0l16,0m-272,1l12,0m244,0l16,0m-272,1l12,0m244,0l16,0m-272,1l12,0m244,0l16,0m-272,1l12,0m244,0l16,0m-272,1l12,0m244,0l16,0m-272,1l12,0m244,0l16,0m-272,1l12,0m244,0l16,0m-272,1l12,0m244,0l16,0m-272,1l12,0m244,0l16,0m-272,1l12,0m244,0l16,0m-272,1l12,0m244,0l16,0m-272,1l12,0m244,0l16,0m-272,1l12,0m244,0l16,0m-272,1l12,0m244,0l16,0m-272,1l12,0m244,0l16,0m-272,1l12,0m244,0l16,0m-272,1l12,0m244,0l16,0m-272,1l12,0m244,0l16,0m-264,1l16,0m224,0l16,0m-256,1l16,0m224,0l16,0m-256,1l16,0m224,0l16,0m-256,1l16,0m224,0l16,0m-256,1l16,0m224,0l16,0m-256,1l16,0m224,0l16,0m-256,1l16,0m224,0l16,0m-256,1l16,0m224,0l16,0m-252,1l28,0m200,0l16,0m-244,1l28,0m200,0l16,0m-244,1l28,0m200,0l16,0m-244,1l28,0m200,0l16,0m-244,1l28,0m200,0l16,0m-244,1l28,0m200,0l16,0m-244,1l28,0m200,0l16,0m-244,1l28,0m200,0l16,0m-232,1l24,0m184,0l16,0m-224,1l24,0m184,0l16,0m-224,1l24,0m184,0l16,0m-224,1l24,0m184,0l16,0m-224,1l24,0m184,0l16,0m-224,1l24,0m184,0l16,0m-224,1l24,0m184,0l16,0m-224,1l24,0m184,0l16,0m-208,1l16,0m160,0l24,0m-200,1l16,0m160,0l24,0m-200,1l16,0m160,0l24,0m-200,1l16,0m160,0l24,0m-200,1l16,0m160,0l24,0m-200,1l16,0m160,0l24,0m-200,1l16,0m160,0l24,0m-200,1l16,0m160,0l24,0m-192,1l16,0m144,0l24,0m-184,1l16,0m144,0l24,0m-184,1l16,0m144,0l24,0m-184,1l16,0m144,0l24,0m-184,1l16,0m144,0l24,0m-184,1l16,0m144,0l24,0m-184,1l16,0m144,0l24,0m-184,1l16,0m144,0l24,0m-176,1l16,0m128,0l16,0m-160,1l16,0m128,0l16,0m-160,1l16,0m128,0l16,0m-160,1l16,0m128,0l16,0m-160,1l16,0m128,0l16,0m-160,1l16,0m128,0l16,0m-160,1l16,0m128,0l16,0m-160,1l16,0m128,0l16,0m-152,1l144,0m-144,1l144,0m-144,1l144,0m-144,1l144,0m-144,1l144,0m-144,1l144,0m-144,1l144,0m-144,1l144,0" id="svg_9"/>
   <path stroke="#66072e" d="m100,181l112,0m-112,1l112,0m-112,1l112,0m-112,1l112,0m-112,1l112,0m-112,1l112,0m-112,1l112,0m-112,1l112,0m-120,1l128,0m-128,1l128,0m-128,1l128,0m-128,1l128,0m-128,1l128,0m-128,1l128,0m-128,1l128,0m-128,1l128,0m-136,1l16,0m112,0l16,0m-144,1l16,0m112,0l16,0m-144,1l16,0m112,0l16,0m-144,1l16,0m112,0l16,0m-144,1l16,0m112,0l16,0m-144,1l16,0m112,0l16,0m-144,1l16,0m112,0l16,0m-144,1l16,0m112,0l16,0m-152,1l16,0m128,0l24,0m-168,1l16,0m128,0l24,0m-168,1l16,0m128,0l24,0m-168,1l16,0m128,0l24,0m-168,1l16,0m128,0l24,0m-168,1l16,0m128,0l24,0m-168,1l16,0m128,0l24,0m-168,1l16,0m128,0l24,0m-184,1l24,0m144,0l24,0m-192,1l24,0m144,0l24,0m-192,1l24,0m144,0l24,0m-192,1l24,0m144,0l24,0m-192,1l24,0m144,0l24,0m-192,1l24,0m144,0l24,0m-192,1l24,0m144,0l24,0m-192,1l24,0m144,0l24,0m-200,1l24,0m168,0l16,0m-208,1l24,0m168,0l16,0m-208,1l24,0m168,0l16,0m-208,1l24,0m168,0l16,0m-208,1l24,0m168,0l16,0m-208,1l24,0m168,0l16,0m-208,1l24,0m168,0l16,0m-208,1l24,0m168,0l16,0m-216,1l16,0m192,0l16,0m-224,1l16,0m192,0l16,0m-224,1l16,0m192,0l16,0m-224,1l16,0m192,0l16,0m-224,1l16,0m192,0l16,0m-224,1l16,0m192,0l16,0m-224,1l16,0m192,0l16,0m-224,1l16,0m192,0l16,0m-236,1l28,0m200,0l16,0m-244,1l28,0m200,0l16,0m-244,1l28,0m200,0l16,0m-244,1l28,0m200,0l16,0m-244,1l28,0m200,0l16,0m-244,1l28,0m200,0l16,0m-244,1l28,0m200,0l16,0m-244,1l28,0m200,0l16,0m-244,1l28,0m200,0l16,0m-244,1l28,0m200,0l16,0m-244,1l28,0m200,0l16,0m-244,1l28,0m200,0l16,0m-244,1l28,0m200,0l16,0m-244,1l28,0m200,0l16,0m-244,1l28,0m200,0l16,0m-244,1l28,0m200,0l16,0m-244,1l28,0m200,0l16,0m-244,1l28,0m200,0l16,0m-244,1l28,0m200,0l16,0m-244,1l28,0m200,0l16,0m-244,1l28,0m200,0l16,0m-244,1l28,0m200,0l16,0m-244,1l28,0m200,0l16,0m-244,1l28,0m200,0l16,0m-244,1l28,0m200,0l16,0m-244,1l28,0m200,0l16,0m-244,1l28,0m200,0l16,0m-244,1l28,0m200,0l16,0m-244,1l28,0m200,0l16,0m-244,1l28,0m200,0l16,0m-244,1l28,0m200,0l16,0m-244,1l28,0m200,0l16,0m-232,1l24,0m184,0l16,0m-224,1l24,0m184,0l16,0m-224,1l24,0m184,0l16,0m-224,1l24,0m184,0l16,0m-224,1l24,0m184,0l16,0m-224,1l24,0m184,0l16,0m-224,1l24,0m184,0l16,0m-224,1l24,0m184,0l16,0m-208,1l16,0m160,0l24,0m-200,1l16,0m160,0l24,0m-200,1l16,0m160,0l24,0m-200,1l16,0m160,0l24,0m-200,1l16,0m160,0l24,0m-200,1l16,0m160,0l24,0m-200,1l16,0m160,0l24,0m-200,1l16,0m160,0l24,0m-192,1l16,0m144,0l24,0m-184,1l16,0m144,0l24,0m-184,1l16,0m144,0l24,0m-184,1l16,0m144,0l24,0m-184,1l16,0m144,0l24,0m-184,1l16,0m144,0l24,0m-184,1l16,0m144,0l24,0m-184,1l16,0m144,0l24,0m-176,1l16,0m128,0l16,0m-160,1l16,0m128,0l16,0m-160,1l16,0m128,0l16,0m-160,1l16,0m128,0l16,0m-160,1l16,0m128,0l16,0m-160,1l16,0m128,0l16,0m-160,1l16,0m128,0l16,0m-160,1l16,0m128,0l16,0m-152,1l20,0m108,0l16,0m-144,1l20,0m108,0l16,0m-144,1l20,0m108,0l16,0m-144,1l20,0m108,0l16,0m-144,1l20,0m108,0l16,0m-144,1l20,0m108,0l16,0m-144,1l20,0m108,0l16,0m-144,1l20,0m108,0l16,0m-136,1l128,0m-128,1l128,0m-128,1l128,0m-128,1l128,0m-128,1l128,0m-128,1l128,0m-128,1l128,0m-128,1l128,0" id="svg_10"/>
   <path stroke="#6f082b" d="m100,197l112,0m-112,1l112,0m-112,1l112,0m-112,1l112,0m-112,1l112,0m-112,1l112,0m-112,1l112,0m-112,1l112,0m-120,1l12,0m100,0l16,0m-128,1l12,0m100,0l16,0m-128,1l12,0m100,0l16,0m-128,1l12,0m100,0l16,0m-128,1l12,0m100,0l16,0m-128,1l12,0m100,0l16,0m-128,1l12,0m100,0l16,0m-128,1l12,0m100,0l16,0m-136,1l16,0m112,0l16,0m-144,1l16,0m112,0l16,0m-144,1l16,0m112,0l16,0m-144,1l16,0m112,0l16,0m-144,1l16,0m112,0l16,0m-144,1l16,0m112,0l16,0m-144,1l16,0m112,0l16,0m-144,1l16,0m112,0l16,0m-152,1l16,0m128,0l24,0m-168,1l16,0m128,0l24,0m-168,1l16,0m128,0l24,0m-168,1l16,0m128,0l24,0m-168,1l16,0m128,0l24,0m-168,1l16,0m128,0l24,0m-168,1l16,0m128,0l24,0m-168,1l16,0m128,0l24,0m-184,1l24,0m144,0l24,0m-192,1l24,0m144,0l24,0m-192,1l24,0m144,0l24,0m-192,1l24,0m144,0l24,0m-192,1l24,0m144,0l24,0m-192,1l24,0m144,0l24,0m-192,1l24,0m144,0l24,0m-192,1l24,0m144,0l24,0m-192,1l16,0m160,0l24,0m-200,1l16,0m160,0l24,0m-200,1l16,0m160,0l24,0m-200,1l16,0m160,0l24,0m-200,1l16,0m160,0l24,0m-200,1l16,0m160,0l24,0m-200,1l16,0m160,0l24,0m-200,1l16,0m160,0l24,0m-200,1l16,0m160,0l24,0m-200,1l16,0m160,0l24,0m-200,1l16,0m160,0l24,0m-200,1l16,0m160,0l24,0m-200,1l16,0m160,0l24,0m-200,1l16,0m160,0l24,0m-200,1l16,0m160,0l24,0m-200,1l16,0m160,0l24,0m-200,1l16,0m160,0l24,0m-200,1l16,0m160,0l24,0m-200,1l16,0m160,0l24,0m-200,1l16,0m160,0l24,0m-200,1l16,0m160,0l24,0m-200,1l16,0m160,0l24,0m-200,1l16,0m160,0l24,0m-200,1l16,0m160,0l24,0m-200,1l16,0m160,0l24,0m-200,1l16,0m160,0l24,0m-200,1l16,0m160,0l24,0m-200,1l16,0m160,0l24,0m-200,1l16,0m160,0l24,0m-200,1l16,0m160,0l24,0m-200,1l16,0m160,0l24,0m-200,1l16,0m160,0l24,0m-192,1l16,0m144,0l24,0m-184,1l16,0m144,0l24,0m-184,1l16,0m144,0l24,0m-184,1l16,0m144,0l24,0m-184,1l16,0m144,0l24,0m-184,1l16,0m144,0l24,0m-184,1l16,0m144,0l24,0m-184,1l16,0m144,0l24,0m-176,1l16,0m128,0l16,0m-160,1l16,0m128,0l16,0m-160,1l16,0m128,0l16,0m-160,1l16,0m128,0l16,0m-160,1l16,0m128,0l16,0m-160,1l16,0m128,0l16,0m-160,1l16,0m128,0l16,0m-160,1l16,0m128,0l16,0m-152,1l20,0m108,0l16,0m-144,1l20,0m108,0l16,0m-144,1l20,0m108,0l16,0m-144,1l20,0m108,0l16,0m-144,1l20,0m108,0l16,0m-144,1l20,0m108,0l16,0m-144,1l20,0m108,0l16,0m-144,1l20,0m108,0l16,0m-136,1l24,0m88,0l16,0m-128,1l24,0m88,0l16,0m-128,1l24,0m88,0l16,0m-128,1l24,0m88,0l16,0m-128,1l24,0m88,0l16,0m-128,1l24,0m88,0l16,0m-128,1l24,0m88,0l16,0m-128,1l24,0m88,0l16,0m-116,1l108,0m-108,1l108,0m-108,1l108,0m-108,1l108,0m-108,1l108,0m-108,1l108,0m-108,1l108,0m-108,1l108,0" id="svg_11"/>
   <path stroke="#780829" d="m104,205l100,0m-100,1l100,0m-100,1l100,0m-100,1l100,0m-100,1l100,0m-100,1l100,0m-100,1l100,0m-100,1l100,0m-104,1l24,0m64,0l24,0m-112,1l24,0m64,0l24,0m-112,1l24,0m64,0l24,0m-112,1l24,0m64,0l24,0m-112,1l24,0m64,0l24,0m-112,1l24,0m64,0l24,0m-112,1l24,0m64,0l24,0m-112,1l24,0m64,0l24,0m-120,1l24,0m88,0l16,0m-128,1l24,0m88,0l16,0m-128,1l24,0m88,0l16,0m-128,1l24,0m88,0l16,0m-128,1l24,0m88,0l16,0m-128,1l24,0m88,0l16,0m-128,1l24,0m88,0l16,0m-128,1l24,0m88,0l16,0m-136,1l20,0m108,0l16,0m-144,1l20,0m108,0l16,0m-144,1l20,0m108,0l16,0m-144,1l20,0m108,0l16,0m-144,1l20,0m108,0l16,0m-144,1l20,0m108,0l16,0m-144,1l20,0m108,0l16,0m-144,1l20,0m108,0l16,0m-152,1l24,0m112,0l24,0m-160,1l24,0m112,0l24,0m-160,1l24,0m112,0l24,0m-160,1l24,0m112,0l24,0m-160,1l24,0m112,0l24,0m-160,1l24,0m112,0l24,0m-160,1l24,0m112,0l24,0m-160,1l24,0m112,0l24,0m-160,1l24,0m112,0l24,0m-160,1l24,0m112,0l24,0m-160,1l24,0m112,0l24,0m-160,1l24,0m112,0l24,0m-160,1l24,0m112,0l24,0m-160,1l24,0m112,0l24,0m-160,1l24,0m112,0l24,0m-160,1l24,0m112,0l24,0m-160,1l24,0m112,0l24,0m-160,1l24,0m112,0l24,0m-160,1l24,0m112,0l24,0m-160,1l24,0m112,0l24,0m-160,1l24,0m112,0l24,0m-160,1l24,0m112,0l24,0m-160,1l24,0m112,0l24,0m-160,1l24,0m112,0l24,0m-160,1l24,0m112,0l24,0m-160,1l24,0m112,0l24,0m-160,1l24,0m112,0l24,0m-160,1l24,0m112,0l24,0m-160,1l24,0m112,0l24,0m-160,1l24,0m112,0l24,0m-160,1l24,0m112,0l24,0m-160,1l24,0m112,0l24,0m-152,1l20,0m100,0l24,0m-144,1l20,0m100,0l24,0m-144,1l20,0m100,0l24,0m-144,1l20,0m100,0l24,0m-144,1l20,0m100,0l24,0m-144,1l20,0m100,0l24,0m-144,1l20,0m100,0l24,0m-144,1l20,0m100,0l24,0m-136,1l32,0m64,0l32,0m-128,1l32,0m64,0l32,0m-128,1l32,0m64,0l32,0m-128,1l32,0m64,0l32,0m-128,1l32,0m64,0l32,0m-128,1l32,0m64,0l32,0m-128,1l32,0m64,0l32,0m-128,1l32,0m64,0l32,0m-116,1l28,0m48,0l32,0m-108,1l28,0m48,0l32,0m-108,1l28,0m48,0l32,0m-108,1l28,0m48,0l32,0m-108,1l28,0m48,0l32,0m-108,1l28,0m48,0l32,0m-108,1l28,0m48,0l32,0m-108,1l28,0m48,0l32,0m-96,1l88,0m-88,1l88,0m-88,1l88,0m-88,1l88,0m-88,1l88,0m-88,1l88,0m-88,1l88,0m-88,1l88,0" id="svg_12"/>
   <path stroke="#810826" d="m124,213l64,0m-64,1l64,0m-64,1l64,0m-64,1l64,0m-64,1l64,0m-64,1l64,0m-64,1l64,0m-64,1l64,0m-72,1l16,0m48,0l24,0m-88,1l16,0m48,0l24,0m-88,1l16,0m48,0l24,0m-88,1l16,0m48,0l24,0m-88,1l16,0m48,0l24,0m-88,1l16,0m48,0l24,0m-88,1l16,0m48,0l24,0m-88,1l16,0m48,0l24,0m-100,1l20,0m64,0l24,0m-108,1l20,0m64,0l24,0m-108,1l20,0m64,0l24,0m-108,1l20,0m64,0l24,0m-108,1l20,0m64,0l24,0m-108,1l20,0m64,0l24,0m-108,1l20,0m64,0l24,0m-108,1l20,0m64,0l24,0m-112,1l16,0m80,0l16,0m-112,1l16,0m80,0l16,0m-112,1l16,0m80,0l16,0m-112,1l16,0m80,0l16,0m-112,1l16,0m80,0l16,0m-112,1l16,0m80,0l16,0m-112,1l16,0m80,0l16,0m-112,1l16,0m80,0l16,0m-112,1l16,0m80,0l16,0m-112,1l16,0m80,0l16,0m-112,1l16,0m80,0l16,0m-112,1l16,0m80,0l16,0m-112,1l16,0m80,0l16,0m-112,1l16,0m80,0l16,0m-112,1l16,0m80,0l16,0m-112,1l16,0m80,0l16,0m-112,1l16,0m80,0l16,0m-112,1l16,0m80,0l16,0m-112,1l16,0m80,0l16,0m-112,1l16,0m80,0l16,0m-112,1l16,0m80,0l16,0m-112,1l16,0m80,0l16,0m-112,1l16,0m80,0l16,0m-112,1l16,0m80,0l16,0m-112,1l16,0m80,0l16,0m-112,1l16,0m80,0l16,0m-112,1l16,0m80,0l16,0m-112,1l16,0m80,0l16,0m-112,1l16,0m80,0l16,0m-112,1l16,0m80,0l16,0m-112,1l16,0m80,0l16,0m-112,1l16,0m80,0l16,0m-108,1l20,0m64,0l16,0m-100,1l20,0m64,0l16,0m-100,1l20,0m64,0l16,0m-100,1l20,0m64,0l16,0m-100,1l20,0m64,0l16,0m-100,1l20,0m64,0l16,0m-100,1l20,0m64,0l16,0m-100,1l20,0m64,0l16,0m-80,1l8,0m48,0l8,0m-64,1l8,0m48,0l8,0m-64,1l8,0m48,0l8,0m-64,1l8,0m48,0l8,0m-64,1l8,0m48,0l8,0m-64,1l8,0m48,0l8,0m-64,1l8,0m48,0l8,0m-64,1l8,0m48,0l8,0m-56,1l48,0m-48,1l48,0m-48,1l48,0m-48,1l48,0m-48,1l48,0m-48,1l48,0m-48,1l48,0m-48,1l48,0" id="svg_13"/>
   <path stroke="#8b0924" d="m132,221l48,0m-48,1l48,0m-48,1l48,0m-48,1l48,0m-48,1l48,0m-48,1l48,0m-48,1l48,0m-48,1l48,0m-56,1l16,0m32,0l16,0m-64,1l16,0m32,0l16,0m-64,1l16,0m32,0l16,0m-64,1l16,0m32,0l16,0m-64,1l16,0m32,0l16,0m-64,1l16,0m32,0l16,0m-64,1l16,0m32,0l16,0m-64,1l16,0m32,0l16,0m-72,1l16,0m48,0l16,0m-80,1l16,0m48,0l16,0m-80,1l16,0m48,0l16,0m-80,1l16,0m48,0l16,0m-80,1l16,0m48,0l16,0m-80,1l16,0m48,0l16,0m-80,1l16,0m48,0l16,0m-80,1l16,0m48,0l16,0m-80,1l16,0m48,0l16,0m-80,1l16,0m48,0l16,0m-80,1l16,0m48,0l16,0m-80,1l16,0m48,0l16,0m-80,1l16,0m48,0l16,0m-80,1l16,0m48,0l16,0m-80,1l16,0m48,0l16,0m-80,1l16,0m48,0l16,0m-80,1l16,0m48,0l16,0m-80,1l16,0m48,0l16,0m-80,1l16,0m48,0l16,0m-80,1l16,0m48,0l16,0m-80,1l16,0m48,0l16,0m-80,1l16,0m48,0l16,0m-80,1l16,0m48,0l16,0m-80,1l16,0m48,0l16,0m-80,1l16,0m48,0l16,0m-80,1l16,0m48,0l16,0m-80,1l16,0m48,0l16,0m-80,1l16,0m48,0l16,0m-80,1l16,0m48,0l16,0m-80,1l16,0m48,0l16,0m-80,1l16,0m48,0l16,0m-80,1l16,0m48,0l16,0m-72,1l16,0m32,0l16,0m-64,1l16,0m32,0l16,0m-64,1l16,0m32,0l16,0m-64,1l16,0m32,0l16,0m-64,1l16,0m32,0l16,0m-64,1l16,0m32,0l16,0m-64,1l16,0m32,0l16,0m-64,1l16,0m32,0l16,0m-56,1l48,0m-48,1l48,0m-48,1l48,0m-48,1l48,0m-48,1l48,0m-48,1l48,0m-48,1l48,0m-48,1l48,0" id="svg_14"/>
   <path stroke="#940921" d="m140,229l32,0m-32,1l32,0m-32,1l32,0m-32,1l32,0m-32,1l32,0m-32,1l32,0m-32,1l32,0m-32,1l32,0m-40,1l48,0m-48,1l48,0m-48,1l48,0m-48,1l48,0m-48,1l48,0m-48,1l48,0m-48,1l48,0m-48,1l48,0m-48,1l48,0m-48,1l48,0m-48,1l48,0m-48,1l48,0m-48,1l48,0m-48,1l48,0m-48,1l48,0m-48,1l48,0m-48,1l48,0m-48,1l48,0m-48,1l48,0m-48,1l48,0m-48,1l48,0m-48,1l48,0m-48,1l48,0m-48,1l48,0m-48,1l48,0m-48,1l48,0m-48,1l48,0m-48,1l48,0m-48,1l48,0m-48,1l48,0m-48,1l48,0m-48,1l48,0m-40,1l32,0m-32,1l32,0m-32,1l32,0m-32,1l32,0m-32,1l32,0m-32,1l32,0m-32,1l32,0m-32,1l32,0" id="svg_15"/>
  </g>
 </g>
</svg>