<?xml version="1.0" encoding="UTF-8"?>
<svg xmlns="http://www.w3.org/2000/svg" xmlns:xlink="http://www.w3.org/1999/xlink" width="100px" height="15px" viewBox="0 0 250 81" version="1.1">
<g id="surface1">
<path style="fill-rule:nonzero;fill:rgb(0%,0%,0%);fill-opacity:1;stroke-width:1;stroke-linecap:butt;stroke-linejoin:miter;stroke:rgb(0%,0%,0%);stroke-opacity:1;stroke-miterlimit:4;" d="M 14.99978 2.998264 L 365.999435 2.998264 M 14.99978 4.002894 L 365.999435 4.002894 M 14.99978 5.001543 L 365.999435 5.001543 M 11.997427 6.000193 L 14.99978 6.000193 M 362.997082 6.000193 L 369.001788 6.000193 M 11.997427 6.998843 L 14.99978 6.998843 M 362.997082 6.998843 L 369.001788 6.998843 M 11.997427 7.997492 L 14.99978 7.997492 M 362.997082 7.997492 L 369.001788 7.997492 M 9.001067 9.002122 L 11.997427 9.002122 M 369.001788 9.002122 L 371.998149 9.002122 M 9.001067 10.000772 L 11.997427 10.000772 M 369.001788 10.000772 L 371.998149 10.000772 M 9.001067 10.999421 L 11.997427 10.999421 M 369.001788 10.999421 L 371.998149 10.999421 M 5.998714 11.998071 L 9.001067 11.998071 M 371.998149 11.998071 L 375.000502 11.998071 M 5.998714 13.002701 L 9.001067 13.002701 M 371.998149 13.002701 L 375.000502 13.002701 M 5.998714 14.00135 L 9.001067 14.00135 M 371.998149 14.00135 L 375.000502 14.00135 M 3.002353 15 L 5.998714 15 M 375.000502 15 L 378.002855 15 M 3.002353 15.99865 L 5.998714 15.99865 M 375.000502 15.99865 L 378.002855 15.99865 M 3.002353 16.997299 L 5.998714 16.997299 M 375.000502 16.997299 L 378.002855 16.997299 M 3.002353 18.001929 L 5.998714 18.001929 M 378.002855 18.001929 L 380.999216 18.001929 M 3.002353 19.000579 L 5.998714 19.000579 M 378.002855 19.000579 L 380.999216 19.000579 M 3.002353 19.999228 L 5.998714 19.999228 M 378.002855 19.999228 L 380.999216 19.999228 M 3.002353 20.997878 L 5.998714 20.997878 M 378.002855 20.997878 L 380.999216 20.997878 M 3.002353 22.002508 L 5.998714 22.002508 M 378.002855 22.002508 L 380.999216 22.002508 M 3.002353 23.001157 L 5.998714 23.001157 M 378.002855 23.001157 L 380.999216 23.001157 M 3.002353 23.999807 L 5.998714 23.999807 M 378.002855 23.999807 L 380.999216 23.999807 M 3.002353 24.998457 L 5.998714 24.998457 M 378.002855 24.998457 L 380.999216 24.998457 M 3.002353 25.997106 L 5.998714 25.997106 M 378.002855 25.997106 L 380.999216 25.997106 M 3.002353 27.001736 L 5.998714 27.001736 M 378.002855 27.001736 L 380.999216 27.001736 M 3.002353 28.000386 L 5.998714 28.000386 M 378.002855 28.000386 L 380.999216 28.000386 M 3.002353 28.999035 L 5.998714 28.999035 M 378.002855 28.999035 L 380.999216 28.999035 M 3.002353 29.997685 L 5.998714 29.997685 M 378.002855 29.997685 L 380.999216 29.997685 M 3.002353 31.002315 L 5.998714 31.002315 M 378.002855 31.002315 L 380.999216 31.002315 M 3.002353 32.000965 L 5.998714 32.000965 M 378.002855 32.000965 L 380.999216 32.000965 M 3.002353 32.999614 L 5.998714 32.999614 M 378.002855 32.999614 L 380.999216 32.999614 M 3.002353 33.998264 L 5.998714 33.998264 M 378.002855 33.998264 L 380.999216 33.998264 M 3.002353 35.002894 L 5.998714 35.002894 M 378.002855 35.002894 L 380.999216 35.002894 M 3.002353 36.001543 L 5.998714 36.001543 M 378.002855 36.001543 L 380.999216 36.001543 M 3.002353 37.000193 L 5.998714 37.000193 M 378.002855 37.000193 L 380.999216 37.000193 M 3.002353 37.998843 L 5.998714 37.998843 M 378.002855 37.998843 L 380.999216 37.998843 M 3.002353 38.997492 L 5.998714 38.997492 M 378.002855 38.997492 L 380.999216 38.997492 M 3.002353 40.002122 L 5.998714 40.002122 M 378.002855 40.002122 L 380.999216 40.002122 M 3.002353 41.000772 L 5.998714 41.000772 M 378.002855 41.000772 L 380.999216 41.000772 M 3.002353 41.999421 L 5.998714 41.999421 M 378.002855 41.999421 L 380.999216 41.999421 M 3.002353 42.998071 L 5.998714 42.998071 M 378.002855 42.998071 L 380.999216 42.998071 M 3.002353 44.002701 L 5.998714 44.002701 M 378.002855 44.002701 L 380.999216 44.002701 M 3.002353 45.00135 L 5.998714 45.00135 M 378.002855 45.00135 L 380.999216 45.00135 M 3.002353 46 L 5.998714 46 M 378.002855 46 L 380.999216 46 M 3.002353 46.99865 L 5.998714 46.99865 M 378.002855 46.99865 L 380.999216 46.99865 M 3.002353 47.997299 L 5.998714 47.997299 M 378.002855 47.997299 L 380.999216 47.997299 M 3.002353 49.001929 L 5.998714 49.001929 M 378.002855 49.001929 L 380.999216 49.001929 M 3.002353 50.000579 L 5.998714 50.000579 M 378.002855 50.000579 L 380.999216 50.000579 M 3.002353 50.999228 L 5.998714 50.999228 M 378.002855 50.999228 L 380.999216 50.999228 M 3.002353 51.997878 L 5.998714 51.997878 M 378.002855 51.997878 L 380.999216 51.997878 M 3.002353 53.002508 L 5.998714 53.002508 M 378.002855 53.002508 L 380.999216 53.002508 M 3.002353 54.001157 L 5.998714 54.001157 M 378.002855 54.001157 L 380.999216 54.001157 M 3.002353 54.999807 L 5.998714 54.999807 M 378.002855 54.999807 L 380.999216 54.999807 M 3.002353 55.998457 L 5.998714 55.998457 M 378.002855 55.998457 L 380.999216 55.998457 M 3.002353 56.997106 L 5.998714 56.997106 M 378.002855 56.997106 L 380.999216 56.997106 M 3.002353 58.001736 L 5.998714 58.001736 M 378.002855 58.001736 L 380.999216 58.001736 M 3.002353 59.000386 L 5.998714 59.000386 M 378.002855 59.000386 L 380.999216 59.000386 M 3.002353 59.999035 L 5.998714 59.999035 M 378.002855 59.999035 L 380.999216 59.999035 M 3.002353 60.997685 L 5.998714 60.997685 M 378.002855 60.997685 L 380.999216 60.997685 M 3.002353 62.002315 L 5.998714 62.002315 M 378.002855 62.002315 L 380.999216 62.002315 M 3.002353 63.000965 L 5.998714 63.000965 M 378.002855 63.000965 L 380.999216 63.000965 M 3.002353 63.999614 L 5.998714 63.999614 M 378.002855 63.999614 L 380.999216 63.999614 M 3.002353 64.998264 L 5.998714 64.998264 M 378.002855 64.998264 L 380.999216 64.998264 M 3.002353 66.002894 L 5.998714 66.002894 M 378.002855 66.002894 L 380.999216 66.002894 M 3.002353 67.001543 L 5.998714 67.001543 M 378.002855 67.001543 L 380.999216 67.001543 M 3.002353 68.000193 L 5.998714 68.000193 M 378.002855 68.000193 L 380.999216 68.000193 M 3.002353 68.998843 L 5.998714 68.998843 M 378.002855 68.998843 L 380.999216 68.998843 M 3.002353 69.997492 L 5.998714 69.997492 M 378.002855 69.997492 L 380.999216 69.997492 M 3.002353 71.002122 L 5.998714 71.002122 M 378.002855 71.002122 L 380.999216 71.002122 M 3.002353 72.000772 L 5.998714 72.000772 M 378.002855 72.000772 L 380.999216 72.000772 M 3.002353 72.999421 L 5.998714 72.999421 M 378.002855 72.999421 L 380.999216 72.999421 M 3.002353 73.998071 L 5.998714 73.998071 M 378.002855 73.998071 L 380.999216 73.998071 M 3.002353 75.002701 L 5.998714 75.002701 M 378.002855 75.002701 L 380.999216 75.002701 M 3.002353 76.00135 L 5.998714 76.00135 M 378.002855 76.00135 L 380.999216 76.00135 M 3.002353 77 L 5.998714 77 M 378.002855 77 L 380.999216 77 M 3.002353 77.99865 L 5.998714 77.99865 M 378.002855 77.99865 L 380.999216 77.99865 M 3.002353 78.997299 L 5.998714 78.997299 M 378.002855 78.997299 L 380.999216 78.997299 M 3.002353 80.001929 L 5.998714 80.001929 M 378.002855 80.001929 L 380.999216 80.001929 M 3.002353 81.000579 L 5.998714 81.000579 M 378.002855 81.000579 L 380.999216 81.000579 M 3.002353 81.999228 L 5.998714 81.999228 M 378.002855 81.999228 L 380.999216 81.999228 M 3.002353 82.997878 L 5.998714 82.997878 M 378.002855 82.997878 L 380.999216 82.997878 M 3.002353 84.002508 L 5.998714 84.002508 M 378.002855 84.002508 L 380.999216 84.002508 M 3.002353 85.001157 L 5.998714 85.001157 M 378.002855 85.001157 L 380.999216 85.001157 M 3.002353 85.999807 L 5.998714 85.999807 M 378.002855 85.999807 L 380.999216 85.999807 M 3.002353 86.998457 L 5.998714 86.998457 M 378.002855 86.998457 L 380.999216 86.998457 M 3.002353 87.997106 L 5.998714 87.997106 M 378.002855 87.997106 L 380.999216 87.997106 M 3.002353 89.001736 L 5.998714 89.001736 M 378.002855 89.001736 L 380.999216 89.001736 M 3.002353 90.000386 L 5.998714 90.000386 M 378.002855 90.000386 L 380.999216 90.000386 M 3.002353 90.999035 L 5.998714 90.999035 M 378.002855 90.999035 L 380.999216 90.999035 M 3.002353 91.997685 L 5.998714 91.997685 M 378.002855 91.997685 L 380.999216 91.997685 M 3.002353 93.002315 L 5.998714 93.002315 M 378.002855 93.002315 L 380.999216 93.002315 M 3.002353 94.000965 L 5.998714 94.000965 M 378.002855 94.000965 L 380.999216 94.000965 M 3.002353 94.999614 L 5.998714 94.999614 M 378.002855 94.999614 L 380.999216 94.999614 M 3.002353 95.998264 L 5.998714 95.998264 M 378.002855 95.998264 L 380.999216 95.998264 M 3.002353 97.002894 L 5.998714 97.002894 M 378.002855 97.002894 L 380.999216 97.002894 M 3.002353 98.001543 L 5.998714 98.001543 M 378.002855 98.001543 L 380.999216 98.001543 M 3.002353 99.000193 L 5.998714 99.000193 M 378.002855 99.000193 L 380.999216 99.000193 M 3.002353 99.998843 L 5.998714 99.998843 M 378.002855 99.998843 L 380.999216 99.998843 M 3.002353 100.997492 L 5.998714 100.997492 M 378.002855 100.997492 L 380.999216 100.997492 M 3.002353 102.002122 L 5.998714 102.002122 M 378.002855 102.002122 L 380.999216 102.002122 M 3.002353 103.000772 L 5.998714 103.000772 M 378.002855 103.000772 L 380.999216 103.000772 M 3.002353 103.999421 L 5.998714 103.999421 M 378.002855 103.999421 L 380.999216 103.999421 M 3.002353 104.998071 L 5.998714 104.998071 M 378.002855 104.998071 L 380.999216 104.998071 M 3.002353 106.002701 L 5.998714 106.002701 M 378.002855 106.002701 L 380.999216 106.002701 M 3.002353 107.00135 L 5.998714 107.00135 M 378.002855 107.00135 L 380.999216 107.00135 M 3.002353 108 L 5.998714 108 M 378.002855 108 L 380.999216 108 M 3.002353 108.99865 L 5.998714 108.99865 M 378.002855 108.99865 L 380.999216 108.99865 M 3.002353 109.997299 L 5.998714 109.997299 M 378.002855 109.997299 L 380.999216 109.997299 M 5.998714 111.001929 L 9.001067 111.001929 M 375.000502 111.001929 L 378.002855 111.001929 M 5.998714 112.000579 L 9.001067 112.000579 M 375.000502 112.000579 L 378.002855 112.000579 M 5.998714 112.999228 L 9.001067 112.999228 M 375.000502 112.999228 L 378.002855 112.999228 M 9.001067 113.997878 L 11.997427 113.997878 M 371.998149 113.997878 L 375.000502 113.997878 M 9.001067 115.002508 L 11.997427 115.002508 M 371.998149 115.002508 L 375.000502 115.002508 M 9.001067 116.001157 L 11.997427 116.001157 M 371.998149 116.001157 L 375.000502 116.001157 M 11.997427 116.999807 L 14.99978 116.999807 M 369.001788 116.999807 L 371.998149 116.999807 M 11.997427 117.998457 L 14.99978 117.998457 M 369.001788 117.998457 L 371.998149 117.998457 M 11.997427 118.997106 L 14.99978 118.997106 M 369.001788 118.997106 L 371.998149 118.997106 M 14.99978 120.001736 L 369.001788 120.001736 M 14.99978 121.000386 L 369.001788 121.000386 M 14.99978 121.999035 L 369.001788 121.999035 " transform="matrix(0.651832,0,0,0.653226,0,0.326613)"/>
<path style="fill-rule:nonzero;fill:rgb(0%,0%,0%);fill-opacity:1;stroke-width:1;stroke-linecap:butt;stroke-linejoin:miter;stroke:rgb(59.607843%,4.705882%,4.705882%);stroke-opacity:1;stroke-miterlimit:4;" d="M 14.99978 6.000193 L 362.997082 6.000193 M 14.99978 6.998843 L 362.997082 6.998843 M 14.99978 7.997492 L 362.997082 7.997492 M 11.997427 9.002122 L 18.002134 9.002122 M 11.997427 10.000772 L 18.002134 10.000772 M 11.997427 10.999421 L 18.002134 10.999421 M 9.001067 11.998071 L 14.99978 11.998071 M 9.001067 13.002701 L 14.99978 13.002701 M 9.001067 14.00135 L 14.99978 14.00135 M 5.998714 15 L 9.001067 15 M 371.998149 15 L 375.000502 15 M 5.998714 15.99865 L 9.001067 15.99865 M 371.998149 15.99865 L 375.000502 15.99865 M 5.998714 16.997299 L 9.001067 16.997299 M 371.998149 16.997299 L 375.000502 16.997299 M 5.998714 18.001929 L 9.001067 18.001929 M 371.998149 18.001929 L 378.002855 18.001929 M 5.998714 19.000579 L 9.001067 19.000579 M 371.998149 19.000579 L 378.002855 19.000579 M 5.998714 19.999228 L 9.001067 19.999228 M 371.998149 19.999228 L 378.002855 19.999228 M 5.998714 20.997878 L 9.001067 20.997878 M 371.998149 20.997878 L 378.002855 20.997878 M 5.998714 22.002508 L 9.001067 22.002508 M 371.998149 22.002508 L 378.002855 22.002508 M 5.998714 23.001157 L 9.001067 23.001157 M 371.998149 23.001157 L 378.002855 23.001157 M 5.998714 23.999807 L 9.001067 23.999807 M 371.998149 23.999807 L 378.002855 23.999807 M 5.998714 24.998457 L 9.001067 24.998457 M 371.998149 24.998457 L 378.002855 24.998457 M 5.998714 25.997106 L 9.001067 25.997106 M 371.998149 25.997106 L 378.002855 25.997106 M 5.998714 27.001736 L 9.001067 27.001736 M 371.998149 27.001736 L 378.002855 27.001736 M 5.998714 28.000386 L 9.001067 28.000386 M 371.998149 28.000386 L 378.002855 28.000386 M 5.998714 28.999035 L 9.001067 28.999035 M 371.998149 28.999035 L 378.002855 28.999035 M 5.998714 29.997685 L 9.001067 29.997685 M 371.998149 29.997685 L 378.002855 29.997685 M 5.998714 31.002315 L 9.001067 31.002315 M 371.998149 31.002315 L 378.002855 31.002315 M 5.998714 32.000965 L 9.001067 32.000965 M 371.998149 32.000965 L 378.002855 32.000965 M 5.998714 32.999614 L 9.001067 32.999614 M 371.998149 32.999614 L 378.002855 32.999614 M 5.998714 33.998264 L 9.001067 33.998264 M 371.998149 33.998264 L 378.002855 33.998264 M 5.998714 35.002894 L 9.001067 35.002894 M 371.998149 35.002894 L 378.002855 35.002894 M 5.998714 36.001543 L 9.001067 36.001543 M 371.998149 36.001543 L 378.002855 36.001543 M 5.998714 37.000193 L 9.001067 37.000193 M 371.998149 37.000193 L 378.002855 37.000193 M 5.998714 37.998843 L 9.001067 37.998843 M 371.998149 37.998843 L 378.002855 37.998843 M 5.998714 38.997492 L 9.001067 38.997492 M 371.998149 38.997492 L 378.002855 38.997492 M 5.998714 40.002122 L 9.001067 40.002122 M 371.998149 40.002122 L 378.002855 40.002122 M 5.998714 41.000772 L 9.001067 41.000772 M 371.998149 41.000772 L 378.002855 41.000772 M 5.998714 41.999421 L 9.001067 41.999421 M 371.998149 41.999421 L 378.002855 41.999421 M 5.998714 42.998071 L 9.001067 42.998071 M 371.998149 42.998071 L 378.002855 42.998071 M 5.998714 44.002701 L 9.001067 44.002701 M 371.998149 44.002701 L 378.002855 44.002701 M 5.998714 45.00135 L 9.001067 45.00135 M 371.998149 45.00135 L 378.002855 45.00135 M 5.998714 46 L 9.001067 46 M 371.998149 46 L 378.002855 46 M 5.998714 46.99865 L 9.001067 46.99865 M 371.998149 46.99865 L 378.002855 46.99865 M 5.998714 47.997299 L 9.001067 47.997299 M 371.998149 47.997299 L 378.002855 47.997299 M 5.998714 49.001929 L 9.001067 49.001929 M 371.998149 49.001929 L 378.002855 49.001929 M 5.998714 50.000579 L 9.001067 50.000579 M 371.998149 50.000579 L 378.002855 50.000579 M 5.998714 50.999228 L 9.001067 50.999228 M 371.998149 50.999228 L 378.002855 50.999228 M 5.998714 51.997878 L 9.001067 51.997878 M 371.998149 51.997878 L 378.002855 51.997878 M 5.998714 53.002508 L 9.001067 53.002508 M 371.998149 53.002508 L 378.002855 53.002508 M 5.998714 54.001157 L 9.001067 54.001157 M 371.998149 54.001157 L 378.002855 54.001157 M 5.998714 54.999807 L 9.001067 54.999807 M 371.998149 54.999807 L 378.002855 54.999807 M 5.998714 55.998457 L 9.001067 55.998457 M 371.998149 55.998457 L 378.002855 55.998457 M 5.998714 56.997106 L 9.001067 56.997106 M 371.998149 56.997106 L 378.002855 56.997106 M 5.998714 58.001736 L 9.001067 58.001736 M 371.998149 58.001736 L 378.002855 58.001736 M 5.998714 59.000386 L 9.001067 59.000386 M 371.998149 59.000386 L 378.002855 59.000386 M 5.998714 59.999035 L 9.001067 59.999035 M 371.998149 59.999035 L 378.002855 59.999035 M 5.998714 60.997685 L 9.001067 60.997685 M 371.998149 60.997685 L 378.002855 60.997685 M 5.998714 62.002315 L 9.001067 62.002315 M 371.998149 62.002315 L 378.002855 62.002315 M 5.998714 63.000965 L 9.001067 63.000965 M 371.998149 63.000965 L 378.002855 63.000965 M 5.998714 63.999614 L 9.001067 63.999614 M 371.998149 63.999614 L 378.002855 63.999614 M 5.998714 64.998264 L 9.001067 64.998264 M 371.998149 64.998264 L 378.002855 64.998264 M 5.998714 66.002894 L 9.001067 66.002894 M 371.998149 66.002894 L 378.002855 66.002894 M 5.998714 67.001543 L 9.001067 67.001543 M 371.998149 67.001543 L 378.002855 67.001543 M 5.998714 68.000193 L 9.001067 68.000193 M 371.998149 68.000193 L 378.002855 68.000193 M 5.998714 68.998843 L 9.001067 68.998843 M 371.998149 68.998843 L 378.002855 68.998843 M 5.998714 69.997492 L 9.001067 69.997492 M 371.998149 69.997492 L 378.002855 69.997492 M 5.998714 71.002122 L 9.001067 71.002122 M 371.998149 71.002122 L 378.002855 71.002122 M 5.998714 72.000772 L 9.001067 72.000772 M 371.998149 72.000772 L 378.002855 72.000772 M 5.998714 72.999421 L 9.001067 72.999421 M 371.998149 72.999421 L 378.002855 72.999421 M 5.998714 73.998071 L 9.001067 73.998071 M 371.998149 73.998071 L 378.002855 73.998071 M 5.998714 75.002701 L 9.001067 75.002701 M 371.998149 75.002701 L 378.002855 75.002701 M 5.998714 76.00135 L 9.001067 76.00135 M 371.998149 76.00135 L 378.002855 76.00135 M 5.998714 77 L 9.001067 77 M 371.998149 77 L 378.002855 77 M 5.998714 77.99865 L 9.001067 77.99865 M 371.998149 77.99865 L 378.002855 77.99865 M 5.998714 78.997299 L 9.001067 78.997299 M 371.998149 78.997299 L 378.002855 78.997299 M 5.998714 80.001929 L 9.001067 80.001929 M 371.998149 80.001929 L 378.002855 80.001929 M 5.998714 81.000579 L 9.001067 81.000579 M 371.998149 81.000579 L 378.002855 81.000579 M 5.998714 81.999228 L 9.001067 81.999228 M 371.998149 81.999228 L 378.002855 81.999228 M 5.998714 82.997878 L 9.001067 82.997878 M 371.998149 82.997878 L 378.002855 82.997878 M 5.998714 84.002508 L 9.001067 84.002508 M 371.998149 84.002508 L 378.002855 84.002508 M 5.998714 85.001157 L 9.001067 85.001157 M 371.998149 85.001157 L 378.002855 85.001157 M 5.998714 85.999807 L 9.001067 85.999807 M 371.998149 85.999807 L 378.002855 85.999807 M 5.998714 86.998457 L 9.001067 86.998457 M 371.998149 86.998457 L 378.002855 86.998457 M 5.998714 87.997106 L 9.001067 87.997106 M 371.998149 87.997106 L 378.002855 87.997106 M 5.998714 89.001736 L 9.001067 89.001736 M 371.998149 89.001736 L 378.002855 89.001736 M 5.998714 90.000386 L 9.001067 90.000386 M 371.998149 90.000386 L 378.002855 90.000386 M 5.998714 90.999035 L 9.001067 90.999035 M 371.998149 90.999035 L 378.002855 90.999035 M 5.998714 91.997685 L 9.001067 91.997685 M 371.998149 91.997685 L 378.002855 91.997685 M 5.998714 93.002315 L 9.001067 93.002315 M 371.998149 93.002315 L 378.002855 93.002315 M 5.998714 94.000965 L 9.001067 94.000965 M 371.998149 94.000965 L 378.002855 94.000965 M 5.998714 94.999614 L 9.001067 94.999614 M 371.998149 94.999614 L 378.002855 94.999614 M 5.998714 95.998264 L 9.001067 95.998264 M 371.998149 95.998264 L 378.002855 95.998264 M 5.998714 97.002894 L 9.001067 97.002894 M 371.998149 97.002894 L 378.002855 97.002894 M 5.998714 98.001543 L 9.001067 98.001543 M 371.998149 98.001543 L 378.002855 98.001543 M 5.998714 99.000193 L 9.001067 99.000193 M 371.998149 99.000193 L 378.002855 99.000193 M 5.998714 99.998843 L 9.001067 99.998843 M 371.998149 99.998843 L 378.002855 99.998843 M 5.998714 100.997492 L 9.001067 100.997492 M 371.998149 100.997492 L 378.002855 100.997492 M 5.998714 102.002122 L 9.001067 102.002122 M 371.998149 102.002122 L 378.002855 102.002122 M 5.998714 103.000772 L 9.001067 103.000772 M 371.998149 103.000772 L 378.002855 103.000772 M 5.998714 103.999421 L 9.001067 103.999421 M 371.998149 103.999421 L 378.002855 103.999421 M 5.998714 104.998071 L 9.001067 104.998071 M 371.998149 104.998071 L 378.002855 104.998071 M 5.998714 106.002701 L 9.001067 106.002701 M 371.998149 106.002701 L 378.002855 106.002701 M 5.998714 107.00135 L 9.001067 107.00135 M 371.998149 107.00135 L 378.002855 107.00135 M 5.998714 108 L 9.001067 108 M 369.001788 108 L 378.002855 108 M 5.998714 108.99865 L 9.001067 108.99865 M 369.001788 108.99865 L 378.002855 108.99865 M 5.998714 109.997299 L 9.001067 109.997299 M 369.001788 109.997299 L 378.002855 109.997299 M 365.999435 111.001929 L 375.000502 111.001929 M 365.999435 112.000579 L 375.000502 112.000579 M 365.999435 112.999228 L 375.000502 112.999228 M 11.997427 113.997878 L 371.998149 113.997878 M 11.997427 115.002508 L 371.998149 115.002508 M 11.997427 116.001157 L 371.998149 116.001157 M 14.99978 116.999807 L 369.001788 116.999807 M 14.99978 117.998457 L 369.001788 117.998457 M 14.99978 118.997106 L 369.001788 118.997106 " transform="matrix(0.651832,0,0,0.653226,0,0.326613)"/>
<path style="fill-rule:nonzero;fill:rgb(0%,0%,0%);fill-opacity:1;stroke-width:1;stroke-linecap:butt;stroke-linejoin:miter;stroke:rgb(86.666667%,7.058824%,7.058824%);stroke-opacity:1;stroke-miterlimit:4;" d="M 18.002134 9.002122 L 365.999435 9.002122 M 18.002134 10.000772 L 365.999435 10.000772 M 18.002134 10.999421 L 365.999435 10.999421 M 14.99978 11.998071 L 29.999561 11.998071 M 356.998368 11.998071 L 365.999435 11.998071 M 14.99978 13.002701 L 29.999561 13.002701 M 356.998368 13.002701 L 365.999435 13.002701 M 14.99978 14.00135 L 29.999561 14.00135 M 356.998368 14.00135 L 365.999435 14.00135 M 11.997427 15 L 20.998494 15 M 360.000722 15 L 365.999435 15 M 11.997427 15.99865 L 20.998494 15.99865 M 360.000722 15.99865 L 365.999435 15.99865 M 11.997427 16.997299 L 20.998494 16.997299 M 360.000722 16.997299 L 365.999435 16.997299 M 11.997427 18.001929 L 18.002134 18.001929 M 360.000722 18.001929 L 365.999435 18.001929 M 11.997427 19.000579 L 18.002134 19.000579 M 360.000722 19.000579 L 365.999435 19.000579 M 11.997427 19.999228 L 18.002134 19.999228 M 360.000722 19.999228 L 365.999435 19.999228 M 11.997427 20.997878 L 18.002134 20.997878 M 360.000722 20.997878 L 365.999435 20.997878 M 11.997427 22.002508 L 18.002134 22.002508 M 360.000722 22.002508 L 365.999435 22.002508 M 11.997427 23.001157 L 18.002134 23.001157 M 360.000722 23.001157 L 365.999435 23.001157 M 11.997427 23.999807 L 18.002134 23.999807 M 362.997082 23.999807 L 365.999435 23.999807 M 11.997427 24.998457 L 18.002134 24.998457 M 362.997082 24.998457 L 365.999435 24.998457 M 11.997427 25.997106 L 18.002134 25.997106 M 362.997082 25.997106 L 365.999435 25.997106 M 11.997427 27.001736 L 18.002134 27.001736 M 362.997082 27.001736 L 365.999435 27.001736 M 11.997427 28.000386 L 18.002134 28.000386 M 362.997082 28.000386 L 365.999435 28.000386 M 11.997427 28.999035 L 18.002134 28.999035 M 362.997082 28.999035 L 365.999435 28.999035 M 11.997427 29.997685 L 18.002134 29.997685 M 362.997082 29.997685 L 365.999435 29.997685 M 11.997427 31.002315 L 18.002134 31.002315 M 362.997082 31.002315 L 365.999435 31.002315 M 11.997427 32.000965 L 18.002134 32.000965 M 362.997082 32.000965 L 365.999435 32.000965 M 11.997427 32.999614 L 18.002134 32.999614 M 362.997082 32.999614 L 365.999435 32.999614 M 11.997427 33.998264 L 18.002134 33.998264 M 362.997082 33.998264 L 365.999435 33.998264 M 11.997427 35.002894 L 18.002134 35.002894 M 362.997082 35.002894 L 365.999435 35.002894 M 11.997427 36.001543 L 18.002134 36.001543 M 362.997082 36.001543 L 365.999435 36.001543 M 11.997427 37.000193 L 18.002134 37.000193 M 362.997082 37.000193 L 365.999435 37.000193 M 11.997427 37.998843 L 18.002134 37.998843 M 362.997082 37.998843 L 365.999435 37.998843 M 11.997427 38.997492 L 18.002134 38.997492 M 362.997082 38.997492 L 365.999435 38.997492 M 11.997427 40.002122 L 18.002134 40.002122 M 362.997082 40.002122 L 365.999435 40.002122 M 11.997427 41.000772 L 18.002134 41.000772 M 362.997082 41.000772 L 365.999435 41.000772 M 11.997427 41.999421 L 18.002134 41.999421 M 362.997082 41.999421 L 365.999435 41.999421 M 11.997427 42.998071 L 18.002134 42.998071 M 362.997082 42.998071 L 365.999435 42.998071 M 11.997427 44.002701 L 18.002134 44.002701 M 362.997082 44.002701 L 365.999435 44.002701 M 11.997427 45.00135 L 18.002134 45.00135 M 362.997082 45.00135 L 365.999435 45.00135 M 11.997427 46 L 18.002134 46 M 362.997082 46 L 365.999435 46 M 11.997427 46.99865 L 18.002134 46.99865 M 362.997082 46.99865 L 365.999435 46.99865 M 11.997427 47.997299 L 18.002134 47.997299 M 362.997082 47.997299 L 365.999435 47.997299 M 11.997427 49.001929 L 18.002134 49.001929 M 362.997082 49.001929 L 365.999435 49.001929 M 11.997427 50.000579 L 18.002134 50.000579 M 362.997082 50.000579 L 365.999435 50.000579 M 11.997427 50.999228 L 18.002134 50.999228 M 362.997082 50.999228 L 365.999435 50.999228 M 11.997427 51.997878 L 18.002134 51.997878 M 362.997082 51.997878 L 365.999435 51.997878 M 11.997427 53.002508 L 18.002134 53.002508 M 362.997082 53.002508 L 365.999435 53.002508 M 11.997427 54.001157 L 18.002134 54.001157 M 362.997082 54.001157 L 365.999435 54.001157 M 11.997427 54.999807 L 18.002134 54.999807 M 362.997082 54.999807 L 365.999435 54.999807 M 11.997427 55.998457 L 18.002134 55.998457 M 362.997082 55.998457 L 365.999435 55.998457 M 11.997427 56.997106 L 18.002134 56.997106 M 362.997082 56.997106 L 365.999435 56.997106 M 11.997427 58.001736 L 18.002134 58.001736 M 362.997082 58.001736 L 365.999435 58.001736 M 11.997427 59.000386 L 18.002134 59.000386 M 362.997082 59.000386 L 365.999435 59.000386 M 11.997427 59.999035 L 18.002134 59.999035 M 362.997082 59.999035 L 365.999435 59.999035 M 11.997427 60.997685 L 18.002134 60.997685 M 362.997082 60.997685 L 365.999435 60.997685 M 11.997427 62.002315 L 18.002134 62.002315 M 362.997082 62.002315 L 365.999435 62.002315 M 11.997427 63.000965 L 18.002134 63.000965 M 362.997082 63.000965 L 365.999435 63.000965 M 11.997427 63.999614 L 18.002134 63.999614 M 362.997082 63.999614 L 365.999435 63.999614 M 11.997427 64.998264 L 18.002134 64.998264 M 362.997082 64.998264 L 365.999435 64.998264 M 11.997427 66.002894 L 18.002134 66.002894 M 362.997082 66.002894 L 365.999435 66.002894 M 11.997427 67.001543 L 18.002134 67.001543 M 362.997082 67.001543 L 365.999435 67.001543 M 11.997427 68.000193 L 18.002134 68.000193 M 362.997082 68.000193 L 365.999435 68.000193 M 11.997427 68.998843 L 18.002134 68.998843 M 362.997082 68.998843 L 365.999435 68.998843 M 11.997427 69.997492 L 18.002134 69.997492 M 362.997082 69.997492 L 365.999435 69.997492 M 11.997427 71.002122 L 18.002134 71.002122 M 362.997082 71.002122 L 365.999435 71.002122 M 11.997427 72.000772 L 18.002134 72.000772 M 362.997082 72.000772 L 365.999435 72.000772 M 11.997427 72.999421 L 18.002134 72.999421 M 362.997082 72.999421 L 365.999435 72.999421 M 11.997427 73.998071 L 18.002134 73.998071 M 362.997082 73.998071 L 365.999435 73.998071 M 11.997427 75.002701 L 18.002134 75.002701 M 362.997082 75.002701 L 365.999435 75.002701 M 11.997427 76.00135 L 18.002134 76.00135 M 362.997082 76.00135 L 365.999435 76.00135 M 11.997427 77 L 18.002134 77 M 362.997082 77 L 365.999435 77 M 11.997427 77.99865 L 18.002134 77.99865 M 362.997082 77.99865 L 365.999435 77.99865 M 11.997427 78.997299 L 18.002134 78.997299 M 362.997082 78.997299 L 365.999435 78.997299 M 11.997427 80.001929 L 18.002134 80.001929 M 362.997082 80.001929 L 365.999435 80.001929 M 11.997427 81.000579 L 18.002134 81.000579 M 362.997082 81.000579 L 365.999435 81.000579 M 11.997427 81.999228 L 18.002134 81.999228 M 362.997082 81.999228 L 365.999435 81.999228 M 11.997427 82.997878 L 18.002134 82.997878 M 362.997082 82.997878 L 365.999435 82.997878 M 11.997427 84.002508 L 18.002134 84.002508 M 360.000722 84.002508 L 365.999435 84.002508 M 11.997427 85.001157 L 18.002134 85.001157 M 360.000722 85.001157 L 365.999435 85.001157 M 11.997427 85.999807 L 18.002134 85.999807 M 360.000722 85.999807 L 365.999435 85.999807 M 11.997427 86.998457 L 20.998494 86.998457 M 360.000722 86.998457 L 365.999435 86.998457 M 11.997427 87.997106 L 20.998494 87.997106 M 360.000722 87.997106 L 365.999435 87.997106 M 11.997427 89.001736 L 20.998494 89.001736 M 360.000722 89.001736 L 365.999435 89.001736 M 11.997427 90.000386 L 20.998494 90.000386 M 356.998368 90.000386 L 365.999435 90.000386 M 11.997427 90.999035 L 20.998494 90.999035 M 356.998368 90.999035 L 365.999435 90.999035 M 11.997427 91.997685 L 20.998494 91.997685 M 356.998368 91.997685 L 365.999435 91.997685 M 11.997427 93.002315 L 20.998494 93.002315 M 356.998368 93.002315 L 365.999435 93.002315 M 11.997427 94.000965 L 20.998494 94.000965 M 356.998368 94.000965 L 365.999435 94.000965 M 11.997427 94.999614 L 20.998494 94.999614 M 356.998368 94.999614 L 365.999435 94.999614 M 11.997427 95.998264 L 24.000847 95.998264 M 350.999655 95.998264 L 365.999435 95.998264 M 11.997427 97.002894 L 24.000847 97.002894 M 350.999655 97.002894 L 365.999435 97.002894 M 11.997427 98.001543 L 24.000847 98.001543 M 350.999655 98.001543 L 365.999435 98.001543 M 11.997427 99.000193 L 365.999435 99.000193 M 11.997427 99.998843 L 365.999435 99.998843 M 11.997427 100.997492 L 365.999435 100.997492 M 11.997427 102.002122 L 365.999435 102.002122 M 11.997427 103.000772 L 365.999435 103.000772 M 11.997427 103.999421 L 365.999435 103.999421 " transform="matrix(0.651832,0,0,0.653226,0,0.326613)"/>
<path style="fill-rule:nonzero;fill:rgb(0%,0%,0%);fill-opacity:1;stroke-width:1;stroke-linecap:butt;stroke-linejoin:miter;stroke:rgb(75.686275%,3.921569%,3.921569%);stroke-opacity:1;stroke-miterlimit:4;" d="M 365.999435 9.002122 L 369.001788 9.002122 M 365.999435 10.000772 L 369.001788 10.000772 M 365.999435 10.999421 L 369.001788 10.999421 M 365.999435 11.998071 L 371.998149 11.998071 M 365.999435 13.002701 L 371.998149 13.002701 M 365.999435 14.00135 L 371.998149 14.00135 M 9.001067 15 L 11.997427 15 M 365.999435 15 L 371.998149 15 M 9.001067 15.99865 L 11.997427 15.99865 M 365.999435 15.99865 L 371.998149 15.99865 M 9.001067 16.997299 L 11.997427 16.997299 M 365.999435 16.997299 L 371.998149 16.997299 M 9.001067 18.001929 L 11.997427 18.001929 M 365.999435 18.001929 L 371.998149 18.001929 M 9.001067 19.000579 L 11.997427 19.000579 M 365.999435 19.000579 L 371.998149 19.000579 M 9.001067 19.999228 L 11.997427 19.999228 M 365.999435 19.999228 L 371.998149 19.999228 M 9.001067 20.997878 L 11.997427 20.997878 M 365.999435 20.997878 L 371.998149 20.997878 M 9.001067 22.002508 L 11.997427 22.002508 M 365.999435 22.002508 L 371.998149 22.002508 M 9.001067 23.001157 L 11.997427 23.001157 M 365.999435 23.001157 L 371.998149 23.001157 M 9.001067 23.999807 L 11.997427 23.999807 M 365.999435 23.999807 L 371.998149 23.999807 M 9.001067 24.998457 L 11.997427 24.998457 M 365.999435 24.998457 L 371.998149 24.998457 M 9.001067 25.997106 L 11.997427 25.997106 M 365.999435 25.997106 L 371.998149 25.997106 M 9.001067 27.001736 L 11.997427 27.001736 M 365.999435 27.001736 L 371.998149 27.001736 M 9.001067 28.000386 L 11.997427 28.000386 M 365.999435 28.000386 L 371.998149 28.000386 M 9.001067 28.999035 L 11.997427 28.999035 M 365.999435 28.999035 L 371.998149 28.999035 M 9.001067 29.997685 L 11.997427 29.997685 M 365.999435 29.997685 L 371.998149 29.997685 M 9.001067 31.002315 L 11.997427 31.002315 M 365.999435 31.002315 L 371.998149 31.002315 M 9.001067 32.000965 L 11.997427 32.000965 M 365.999435 32.000965 L 371.998149 32.000965 M 9.001067 32.999614 L 11.997427 32.999614 M 365.999435 32.999614 L 371.998149 32.999614 M 9.001067 33.998264 L 11.997427 33.998264 M 365.999435 33.998264 L 371.998149 33.998264 M 9.001067 35.002894 L 11.997427 35.002894 M 365.999435 35.002894 L 371.998149 35.002894 M 9.001067 36.001543 L 11.997427 36.001543 M 365.999435 36.001543 L 371.998149 36.001543 M 9.001067 37.000193 L 11.997427 37.000193 M 365.999435 37.000193 L 371.998149 37.000193 M 9.001067 37.998843 L 11.997427 37.998843 M 365.999435 37.998843 L 371.998149 37.998843 M 9.001067 38.997492 L 11.997427 38.997492 M 365.999435 38.997492 L 371.998149 38.997492 M 9.001067 40.002122 L 11.997427 40.002122 M 365.999435 40.002122 L 371.998149 40.002122 M 9.001067 41.000772 L 11.997427 41.000772 M 365.999435 41.000772 L 371.998149 41.000772 M 9.001067 41.999421 L 11.997427 41.999421 M 365.999435 41.999421 L 371.998149 41.999421 M 9.001067 42.998071 L 11.997427 42.998071 M 365.999435 42.998071 L 371.998149 42.998071 M 9.001067 44.002701 L 11.997427 44.002701 M 365.999435 44.002701 L 371.998149 44.002701 M 9.001067 45.00135 L 11.997427 45.00135 M 365.999435 45.00135 L 371.998149 45.00135 M 9.001067 46 L 11.997427 46 M 365.999435 46 L 371.998149 46 M 9.001067 46.99865 L 11.997427 46.99865 M 365.999435 46.99865 L 371.998149 46.99865 M 9.001067 47.997299 L 11.997427 47.997299 M 365.999435 47.997299 L 371.998149 47.997299 M 9.001067 49.001929 L 11.997427 49.001929 M 365.999435 49.001929 L 371.998149 49.001929 M 9.001067 50.000579 L 11.997427 50.000579 M 365.999435 50.000579 L 371.998149 50.000579 M 9.001067 50.999228 L 11.997427 50.999228 M 365.999435 50.999228 L 371.998149 50.999228 M 9.001067 51.997878 L 11.997427 51.997878 M 365.999435 51.997878 L 371.998149 51.997878 M 9.001067 53.002508 L 11.997427 53.002508 M 365.999435 53.002508 L 371.998149 53.002508 M 9.001067 54.001157 L 11.997427 54.001157 M 365.999435 54.001157 L 371.998149 54.001157 M 9.001067 54.999807 L 11.997427 54.999807 M 365.999435 54.999807 L 371.998149 54.999807 M 9.001067 55.998457 L 11.997427 55.998457 M 365.999435 55.998457 L 371.998149 55.998457 M 9.001067 56.997106 L 11.997427 56.997106 M 365.999435 56.997106 L 371.998149 56.997106 M 9.001067 58.001736 L 11.997427 58.001736 M 365.999435 58.001736 L 371.998149 58.001736 M 9.001067 59.000386 L 11.997427 59.000386 M 365.999435 59.000386 L 371.998149 59.000386 M 9.001067 59.999035 L 11.997427 59.999035 M 365.999435 59.999035 L 371.998149 59.999035 M 9.001067 60.997685 L 11.997427 60.997685 M 365.999435 60.997685 L 371.998149 60.997685 M 9.001067 62.002315 L 11.997427 62.002315 M 365.999435 62.002315 L 371.998149 62.002315 M 9.001067 63.000965 L 11.997427 63.000965 M 365.999435 63.000965 L 371.998149 63.000965 M 9.001067 63.999614 L 11.997427 63.999614 M 365.999435 63.999614 L 371.998149 63.999614 M 9.001067 64.998264 L 11.997427 64.998264 M 365.999435 64.998264 L 371.998149 64.998264 M 9.001067 66.002894 L 11.997427 66.002894 M 365.999435 66.002894 L 371.998149 66.002894 M 9.001067 67.001543 L 11.997427 67.001543 M 365.999435 67.001543 L 371.998149 67.001543 M 9.001067 68.000193 L 11.997427 68.000193 M 365.999435 68.000193 L 371.998149 68.000193 M 9.001067 68.998843 L 11.997427 68.998843 M 365.999435 68.998843 L 371.998149 68.998843 M 9.001067 69.997492 L 11.997427 69.997492 M 365.999435 69.997492 L 371.998149 69.997492 M 9.001067 71.002122 L 11.997427 71.002122 M 365.999435 71.002122 L 371.998149 71.002122 M 9.001067 72.000772 L 11.997427 72.000772 M 365.999435 72.000772 L 371.998149 72.000772 M 9.001067 72.999421 L 11.997427 72.999421 M 365.999435 72.999421 L 371.998149 72.999421 M 9.001067 73.998071 L 11.997427 73.998071 M 365.999435 73.998071 L 371.998149 73.998071 M 9.001067 75.002701 L 11.997427 75.002701 M 365.999435 75.002701 L 371.998149 75.002701 M 9.001067 76.00135 L 11.997427 76.00135 M 365.999435 76.00135 L 371.998149 76.00135 M 9.001067 77 L 11.997427 77 M 365.999435 77 L 371.998149 77 M 9.001067 77.99865 L 11.997427 77.99865 M 365.999435 77.99865 L 371.998149 77.99865 M 9.001067 78.997299 L 11.997427 78.997299 M 365.999435 78.997299 L 371.998149 78.997299 M 9.001067 80.001929 L 11.997427 80.001929 M 365.999435 80.001929 L 371.998149 80.001929 M 9.001067 81.000579 L 11.997427 81.000579 M 365.999435 81.000579 L 371.998149 81.000579 M 9.001067 81.999228 L 11.997427 81.999228 M 365.999435 81.999228 L 371.998149 81.999228 M 9.001067 82.997878 L 11.997427 82.997878 M 365.999435 82.997878 L 371.998149 82.997878 M 9.001067 84.002508 L 11.997427 84.002508 M 365.999435 84.002508 L 371.998149 84.002508 M 9.001067 85.001157 L 11.997427 85.001157 M 365.999435 85.001157 L 371.998149 85.001157 M 9.001067 85.999807 L 11.997427 85.999807 M 365.999435 85.999807 L 371.998149 85.999807 M 9.001067 86.998457 L 11.997427 86.998457 M 365.999435 86.998457 L 371.998149 86.998457 M 9.001067 87.997106 L 11.997427 87.997106 M 365.999435 87.997106 L 371.998149 87.997106 M 9.001067 89.001736 L 11.997427 89.001736 M 365.999435 89.001736 L 371.998149 89.001736 M 9.001067 90.000386 L 11.997427 90.000386 M 365.999435 90.000386 L 371.998149 90.000386 M 9.001067 90.999035 L 11.997427 90.999035 M 365.999435 90.999035 L 371.998149 90.999035 M 9.001067 91.997685 L 11.997427 91.997685 M 365.999435 91.997685 L 371.998149 91.997685 M 9.001067 93.002315 L 11.997427 93.002315 M 365.999435 93.002315 L 371.998149 93.002315 M 9.001067 94.000965 L 11.997427 94.000965 M 365.999435 94.000965 L 371.998149 94.000965 M 9.001067 94.999614 L 11.997427 94.999614 M 365.999435 94.999614 L 371.998149 94.999614 M 9.001067 95.998264 L 11.997427 95.998264 M 365.999435 95.998264 L 371.998149 95.998264 M 9.001067 97.002894 L 11.997427 97.002894 M 365.999435 97.002894 L 371.998149 97.002894 M 9.001067 98.001543 L 11.997427 98.001543 M 365.999435 98.001543 L 371.998149 98.001543 M 9.001067 99.000193 L 11.997427 99.000193 M 365.999435 99.000193 L 371.998149 99.000193 M 9.001067 99.998843 L 11.997427 99.998843 M 365.999435 99.998843 L 371.998149 99.998843 M 9.001067 100.997492 L 11.997427 100.997492 M 365.999435 100.997492 L 371.998149 100.997492 M 9.001067 102.002122 L 11.997427 102.002122 M 365.999435 102.002122 L 371.998149 102.002122 M 9.001067 103.000772 L 11.997427 103.000772 M 365.999435 103.000772 L 371.998149 103.000772 M 9.001067 103.999421 L 11.997427 103.999421 M 365.999435 103.999421 L 371.998149 103.999421 M 9.001067 104.998071 L 371.998149 104.998071 M 9.001067 106.002701 L 371.998149 106.002701 M 9.001067 107.00135 L 371.998149 107.00135 M 9.001067 108 L 369.001788 108 M 9.001067 108.99865 L 369.001788 108.99865 M 9.001067 109.997299 L 369.001788 109.997299 M 9.001067 111.001929 L 365.999435 111.001929 M 9.001067 112.000579 L 365.999435 112.000579 M 9.001067 112.999228 L 365.999435 112.999228 " transform="matrix(0.651832,0,0,0.653226,0,0.326613)"/>
<path style="fill-rule:nonzero;fill:rgb(0%,0%,0%);fill-opacity:1;stroke-width:1;stroke-linecap:butt;stroke-linejoin:miter;stroke:rgb(99.215686%,3.137255%,3.137255%);stroke-opacity:1;stroke-miterlimit:4;" d="M 29.999561 11.998071 L 356.998368 11.998071 M 29.999561 13.002701 L 356.998368 13.002701 M 29.999561 14.00135 L 356.998368 14.00135 M 20.998494 15 L 360.000722 15 M 20.998494 15.99865 L 360.000722 15.99865 M 20.998494 16.997299 L 360.000722 16.997299 M 18.002134 18.001929 L 360.000722 18.001929 M 18.002134 19.000579 L 360.000722 19.000579 M 18.002134 19.999228 L 360.000722 19.999228 M 18.002134 20.997878 L 360.000722 20.997878 M 18.002134 22.002508 L 360.000722 22.002508 M 18.002134 23.001157 L 360.000722 23.001157 M 18.002134 23.999807 L 362.997082 23.999807 M 18.002134 24.998457 L 362.997082 24.998457 M 18.002134 25.997106 L 362.997082 25.997106 M 18.002134 27.001736 L 362.997082 27.001736 M 18.002134 28.000386 L 362.997082 28.000386 M 18.002134 28.999035 L 362.997082 28.999035 M 18.002134 29.997685 L 362.997082 29.997685 M 18.002134 31.002315 L 362.997082 31.002315 M 18.002134 32.000965 L 362.997082 32.000965 M 18.002134 32.999614 L 362.997082 32.999614 M 18.002134 33.998264 L 362.997082 33.998264 M 18.002134 35.002894 L 362.997082 35.002894 M 18.002134 36.001543 L 362.997082 36.001543 M 18.002134 37.000193 L 362.997082 37.000193 M 18.002134 37.998843 L 362.997082 37.998843 M 18.002134 38.997492 L 362.997082 38.997492 M 18.002134 40.002122 L 362.997082 40.002122 M 18.002134 41.000772 L 362.997082 41.000772 M 18.002134 41.999421 L 362.997082 41.999421 M 18.002134 42.998071 L 362.997082 42.998071 M 18.002134 44.002701 L 362.997082 44.002701 M 18.002134 45.00135 L 362.997082 45.00135 M 18.002134 46 L 362.997082 46 M 18.002134 46.99865 L 362.997082 46.99865 M 18.002134 47.997299 L 362.997082 47.997299 M 18.002134 49.001929 L 362.997082 49.001929 M 18.002134 50.000579 L 362.997082 50.000579 M 18.002134 50.999228 L 362.997082 50.999228 M 18.002134 51.997878 L 362.997082 51.997878 M 18.002134 53.002508 L 362.997082 53.002508 M 18.002134 54.001157 L 362.997082 54.001157 M 18.002134 54.999807 L 362.997082 54.999807 M 18.002134 55.998457 L 362.997082 55.998457 M 18.002134 56.997106 L 362.997082 56.997106 M 18.002134 58.001736 L 362.997082 58.001736 M 18.002134 59.000386 L 362.997082 59.000386 M 18.002134 59.999035 L 362.997082 59.999035 M 18.002134 60.997685 L 362.997082 60.997685 M 18.002134 62.002315 L 362.997082 62.002315 M 18.002134 63.000965 L 362.997082 63.000965 M 18.002134 63.999614 L 362.997082 63.999614 M 18.002134 64.998264 L 362.997082 64.998264 M 18.002134 66.002894 L 362.997082 66.002894 M 18.002134 67.001543 L 362.997082 67.001543 M 18.002134 68.000193 L 362.997082 68.000193 M 18.002134 68.998843 L 362.997082 68.998843 M 18.002134 69.997492 L 362.997082 69.997492 M 18.002134 71.002122 L 362.997082 71.002122 M 18.002134 72.000772 L 362.997082 72.000772 M 18.002134 72.999421 L 362.997082 72.999421 M 18.002134 73.998071 L 362.997082 73.998071 M 18.002134 75.002701 L 362.997082 75.002701 M 18.002134 76.00135 L 362.997082 76.00135 M 18.002134 77 L 362.997082 77 M 18.002134 77.99865 L 362.997082 77.99865 M 18.002134 78.997299 L 362.997082 78.997299 M 18.002134 80.001929 L 362.997082 80.001929 M 18.002134 81.000579 L 362.997082 81.000579 M 18.002134 81.999228 L 362.997082 81.999228 M 18.002134 82.997878 L 362.997082 82.997878 M 18.002134 84.002508 L 360.000722 84.002508 M 18.002134 85.001157 L 360.000722 85.001157 M 18.002134 85.999807 L 360.000722 85.999807 M 20.998494 86.998457 L 360.000722 86.998457 M 20.998494 87.997106 L 360.000722 87.997106 M 20.998494 89.001736 L 360.000722 89.001736 M 20.998494 90.000386 L 356.998368 90.000386 M 20.998494 90.999035 L 356.998368 90.999035 M 20.998494 91.997685 L 356.998368 91.997685 M 20.998494 93.002315 L 356.998368 93.002315 M 20.998494 94.000965 L 356.998368 94.000965 M 20.998494 94.999614 L 356.998368 94.999614 M 24.000847 95.998264 L 350.999655 95.998264 M 24.000847 97.002894 L 350.999655 97.002894 M 24.000847 98.001543 L 350.999655 98.001543 " transform="matrix(0.651832,0,0,0.653226,0,0.326613)"/>
</g>
</svg>
